<svg width="13" height="12" viewBox="0 0 13 12" xmlns="http://www.w3.org/2000/svg">
<path d="M12.0444 4.6233C12.003 4.49601 11.893 4.40325 11.7606 4.38403L8.04054 3.84344L6.37684 0.47251C6.31763 0.352511 6.19541 0.27655 6.0616 0.27655C5.92778 0.27655 5.80557 0.352511 5.74635 0.47251L4.08257 3.84344L0.362588 4.38403C0.23019 4.40325 0.120151 4.49601 0.0788079 4.62328C0.0374409 4.75056 0.0719407 4.89027 0.167776 4.98367L2.85952 7.60759L2.22417 11.3126C2.20153 11.4445 2.25577 11.5778 2.36403 11.6565C2.42527 11.701 2.49781 11.7236 2.5707 11.7236C2.62666 11.7236 2.68282 11.7103 2.73424 11.6832L6.06158 9.93391L9.38878 11.6832C9.50726 11.7455 9.65076 11.7351 9.75902 11.6565C9.86728 11.5778 9.92153 11.4445 9.89892 11.3126L9.26337 7.60759L11.9554 4.98365C12.0512 4.89027 12.0857 4.75056 12.0444 4.6233Z"/>
</svg>
