<svg xmlns="http://www.w3.org/2000/svg"><symbol id="sprite-cart" viewBox="0 0 21 21"><title>cart</title><path fill-rule="evenodd" clip-rule="evenodd" d="M1.264.545L3.39.552c.327-.013.655-.002.98.032a.652.652 0 01.407.37c.178.406.588 3.084.776 3.125h11.345l2.07.005c.31-.031.623-.016.928.044a.727.727 0 01.48.712 4.054 4.054 0 01-.298.889l-.443 1.232c-.47 1.2-.828 2.417-1.316 3.632l-.28.657c-.165.534-.565 2.013-1.089 2.107l-8.747.008c-1.35.14-2.85-.382-3.01.958a1.055 1.055 0 00.77 1.144c.758.08 1.52.095 2.28.045H15.8c.764 0 1.408-.038 1.52.61a.723.723 0 01-.282.667.825.825 0 01-.458.17l-6.661-.004-3.053-.005c-.377.001-.754-.017-1.13-.055a2.48 2.48 0 01-1.127-.568 2.501 2.501 0 01-.808-2.315c.075-.423.256-.82.528-1.152.263-.294.579-.535.932-.71.15-.03.293-.083.427-.157l.013-.018.01-.027a1.198 1.198 0 00-.125-.605l-.424-2.025L4.026 4.31l-.362-1.743-.138-.522c-.16-.255-2.045-.032-2.512-.13a.714.714 0 01-.5-.55.723.723 0 01.252-.7c.156-.074.326-.114.498-.12zm6.428 4.968a17.496 17.496 0 00-1.849.045c.064.468.156.932.278 1.388l.458 2.212.431 1.786c.045.327.125.65.24.96.282.072.576.08.862.026l2.899.005 4.083-.005c.364.053.732.051 1.095-.005l.056-.039c.23-.45.408-.926.532-1.416.436-1.12.837-2.291 1.273-3.44l.53-1.376a.11.11 0 00-.122-.132h-2.432l-8.334-.01zM14.516 18.4c.281-.024.56.066.776.249a1.074 1.074 0 01-.598 1.886 1.072 1.072 0 01-1.135-.743 1.09 1.09 0 01.485-1.272c.15-.06.31-.101.472-.12zm-7.887 0c.283-.007.557.1.761.296a1.076 1.076 0 01-.71 1.849 1.072 1.072 0 01-1.076-.767 1.09 1.09 0 01.469-1.24c.176-.076.364-.122.556-.136V18.4z"/></symbol><symbol fill="none" id="sprite-circle" viewBox="0 0 122 117"><title>circle</title><path opacity=".5" clip-rule="evenodd" d="M60.298 1.873c18.397-1.076 39.304-3.505 51.529 10.32 12.659 14.316 9.828 35.613 5.579 54.264-4.248 18.647-11.255 38.308-28.522 46.444-17.131 8.072-36.696 1.075-53.407-7.84-15.698-8.375-29.32-20.997-33.242-38.385-3.913-17.35 1.706-35.631 13.562-48.864 11.075-12.36 27.957-14.97 44.5-15.939z" stroke="#FF485A"/></symbol><symbol fill="none" id="sprite-clock" viewBox="0 0 20 20"><title>clock</title><path d="M10 19a9 9 0 100-18 9 9 0 000 18z"/><path d="M10 10.87a.871.871 0 100-1.741.871.871 0 000 1.742zM7.097 7.097L9.13 9.129m5.516-3.775L10.872 9.13M10 3.322v1.162m0 11.032v1.16M15.517 10h1.16M3.323 10h1.16"/></symbol><symbol id="sprite-compare" viewBox="0 0 21 18"><title>compare</title><path fill-rule="evenodd" clip-rule="evenodd" d="M20.15 12.395l-2.77-7.067c.51-.334.852-.944.852-1.64 0-1.051-.783-1.907-1.745-1.907-.364 0-.66.322-.66.72 0 .397.296.72.66.72.236 0 .428.21.428.468s-.192.468-.428.468h-5.22V1.313c0-.398-.294-.72-.658-.72-.364 0-.659.322-.659.72v2.844H4.732c-.236 0-.428-.21-.428-.468s.192-.468.428-.468c.364 0 .659-.323.659-.72 0-.398-.295-.72-.66-.72-.962 0-1.745.856-1.745 1.908 0 .696.342 1.305.852 1.639l-2.77 7.067a.716.716 0 00-.459.686c0 2.488 1.85 4.512 4.123 4.512s4.122-2.024 4.122-4.512a.716.716 0 00-.458-.686L5.731 5.597h4.22l.658.849.659-.849h4.22l-2.666 6.798a.717.717 0 00-.458.686c0 2.488 1.85 4.512 4.122 4.512 2.274 0 4.123-2.024 4.123-4.512a.716.716 0 00-.458-.686zm-13.2-.035L4.731 6.705 2.514 12.36H6.95zM2.004 13.8c.296 1.348 1.406 2.352 2.727 2.352 1.32 0 2.43-1.004 2.727-2.351H2.005zm12.264-1.44h4.435l-2.217-5.655-2.218 5.655zm-.51 1.44c.297 1.348 1.407 2.352 2.727 2.352 1.32 0 2.431-1.004 2.728-2.351h-5.455z"/></symbol><symbol fill="none" id="sprite-gift-box" viewBox="0 0 21 21"><title>gift-box</title><g clip-path="url(#clip0)"><path d="M16.597 10.53L14.7 9.838a.548.548 0 00-.2-.035H2.337a.58.58 0 00-.586.586v8.242c0 .973.785 1.758 1.757 1.758h11.72c.972 0 1.757-.785 1.757-1.758v-7.55a.581.581 0 00-.387-.551z" fill="#1AB8FC"/><path d="M16.984 11.08v7.551c0 .973-.785 1.758-1.758 1.758h-5.86V9.803H14.5c.07 0 .14.012.199.035l1.898.692a.581.581 0 01.387.55z" fill="#0099DB"/><path d="M16.773 4.209a2.372 2.372 0 00-1.605-1.7 2.335 2.335 0 00-2.274.493l-1.36 1.195-.269-1.793A2.374 2.374 0 009.824.564a2.225 2.225 0 00-.457-.129 2.33 2.33 0 00-1.852.41 2.378 2.378 0 00-.96 2.25A2.372 2.372 0 008.1 4.994l1.266.457 1.558.574h.012l2.707.996c.27.094.551.14.82.14a2.37 2.37 0 001.583-.608 2.38 2.38 0 00.726-2.344z" fill="#FE9923"/><path d="M16.047 6.553a2.37 2.37 0 01-1.583.609c-.27 0-.55-.047-.82-.14l-2.707-.997h-.012l-1.558-.574V.435c.152.024.305.07.457.13a2.374 2.374 0 011.441 1.84l.27 1.792 1.36-1.195a2.335 2.335 0 012.273-.492 2.37 2.37 0 011.605 1.699 2.38 2.38 0 01-.726 2.344z" fill="#FE8821"/><path d="M18.988 9.533l-.797 2.203a.593.593 0 01-.75.34l-6.059-2.203-.55-1.816-1.465.328-1.29.293L2.02 6.475a.596.596 0 01-.351-.75l.808-2.203c.152-.446.48-.797.903-.996.421-.2.902-.223 1.347-.06l4.64 1.688.317.118s1.266 2.296 1.301 2.296c.024 0 .527-.28 1.02-.55.492-.27.984-.551.984-.551l4.945 1.805c.445.164.797.492.996.914.2.422.223.902.059 1.347z" fill="#1AB8FC"/><path d="M18.988 9.533l-.797 2.204a.594.594 0 01-.75.34l-6.059-2.204-.55-1.816-1.465.328v-4.23l.316.117s1.266 2.297 1.301 2.297c.024 0 .527-.282 1.02-.551.492-.27.984-.55.984-.55l4.945 1.804c.445.164.797.492.996.914.2.422.223.902.059 1.347z" fill="#0099DB"/><path d="M7.609 9.803v10.586h3.516V9.803H7.609zm2.074-5.531l-.316.867-1.29 3.539 1.29.469 1.465.527.55.2 1.606-4.407-3.305-1.195z" fill="#FCBF29"/><path d="M11.125 9.803H9.367v10.586h1.758V9.803zm1.863-4.336l-1.606 4.406-.55-.199-1.465-.527V5.139l.316-.867 3.305 1.195z" fill="#FE9923"/></g><defs><clipPath id="clip0"><path fill="#fff" transform="translate(.365 .389)" d="M0 0h20v20H0z"/></clipPath></defs></symbol><symbol id="sprite-play" viewBox="0 0 21 21"><title>play</title><g clip-path="url(#clip0)"><path d="M10.61.185c-5.524 0-10 4.477-10 10s4.476 10 10 10c5.522 0 10-4.477 10-10-.007-5.52-4.48-9.994-10-10zm0 18.572a8.571 8.571 0 118.57-8.572 8.58 8.58 0 01-8.57 8.572z"/><path d="M14.82 9.866a.714.714 0 00-.32-.32L8.786 6.689a.714.714 0 00-1.034.639v5.714a.714.714 0 001.034.64l5.714-2.858a.714.714 0 00.32-.958zm-5.64 2.02V8.485l3.403 1.701-3.402 1.701z"/></g><defs><clipPath id="clip0"><path transform="translate(.61 .185)" d="M0 0h20v20H0z"/></clipPath></defs></symbol><symbol id="sprite-right-arrow" viewBox="0 0 512 512"><title>right-arrow</title><path d="M494.469 213.589L319.176 37.864c-7.802-7.821-20.465-7.835-28.286-.035-7.82 7.801-7.836 20.465-.035 28.285l175.311 175.744c7.797 7.798 7.797 20.487-.018 28.302L290.855 445.886c-7.8 7.82-7.785 20.484.035 28.285a19.941 19.941 0 0014.126 5.84 19.942 19.942 0 0014.161-5.876l175.275-175.707c23.394-23.395 23.394-61.462.017-84.839z"/><path d="M383.019 235.999H20.001C8.954 235.999 0 244.954 0 256s8.954 20.001 20.001 20.001h363.018c11.047 0 20.001-8.954 20.001-20.001s-8.954-20.001-20.001-20.001z"/></symbol><symbol id="sprite-star" viewBox="0 0 13 12"><title>star</title><path d="M12.044 4.623a.352.352 0 00-.283-.239l-3.72-.54L6.377.472a.352.352 0 00-.63 0l-1.664 3.37-3.72.541a.352.352 0 00-.195.6L2.86 7.608l-.636 3.705a.352.352 0 00.51.37l3.328-1.75 3.327 1.75a.352.352 0 00.51-.37l-.636-3.705 2.692-2.624a.352.352 0 00.09-.36z"/></symbol><symbol id="sprite-wish" viewBox="0 0 21 18"><title>wish</title><path d="M19.192 1.755C18.247.851 16.94.4 15.274.4c-.461 0-.932.078-1.412.235-.48.156-.926.368-1.339.634-.413.266-.768.515-1.066.749-.297.233-.58.48-.848.743-.268-.262-.55-.51-.848-.743a14.325 14.325 0 00-1.066-.75 5.765 5.765 0 00-1.34-.633A4.536 4.536 0 005.945.4C4.277.4 2.97.85 2.027 1.755 1.082 2.66.609 3.913.609 5.516c0 .489.088.992.262 1.509.175.518.374.959.598 1.323.223.364.476.72.758 1.066.283.346.49.585.62.716s.232.226.307.284l6.964 6.582a.676.676 0 00.491.197.675.675 0 00.491-.197l6.953-6.56c1.704-1.669 2.556-3.309 2.556-4.92 0-1.604-.472-2.857-1.417-3.76zm-2.11 7.653L10.61 15.52 4.125 9.397c-1.392-1.362-2.087-2.656-2.087-3.88 0-.591.08-1.112.24-1.564.16-.452.364-.811.614-1.077.249-.266.552-.483.91-.65a4.1 4.1 0 011.048-.34A6.522 6.522 0 015.944 1.8c.387 0 .804.093 1.25.279.446.186.858.419 1.233.7.376.28.698.543.966.787s.49.468.67.672c.133.16.316.24.546.24.23 0 .413-.08.547-.24a8.54 8.54 0 01.67-.672c.268-.244.59-.507.965-.788.376-.28.787-.513 1.233-.7.447-.185.864-.278 1.25-.278.387 0 .752.03 1.094.087.343.059.692.172 1.05.34.357.167.66.384.909.65.25.266.454.625.614 1.077.16.452.24.973.24 1.563 0 1.225-.7 2.522-2.099 3.892z"/></symbol></svg>