<svg xmlns="http://www.w3.org/2000/svg"><symbol id="sprite-cart" viewBox="0 0 21 21"><title>cart</title><path fill-rule="evenodd" clip-rule="evenodd" d="M1.264.545L3.39.552c.327-.013.655-.002.98.032a.652.652 0 01.407.37c.178.406.588 3.084.776 3.125h11.345l2.07.005c.31-.031.623-.016.928.044a.727.727 0 01.48.712 4.054 4.054 0 01-.298.889l-.443 1.232c-.47 1.2-.828 2.417-1.316 3.632l-.28.657c-.165.534-.565 2.013-1.089 2.107l-8.747.008c-1.35.14-2.85-.382-3.01.958a1.055 1.055 0 00.77 1.144c.758.08 1.52.095 2.28.045H15.8c.764 0 1.408-.038 1.52.61a.723.723 0 01-.282.667.825.825 0 01-.458.17l-6.661-.004-3.053-.005c-.377.001-.754-.017-1.13-.055a2.48 2.48 0 01-1.127-.568 2.501 2.501 0 01-.808-2.315c.075-.423.256-.82.528-1.152.263-.294.579-.535.932-.71.15-.03.293-.083.427-.157l.013-.018.01-.027a1.198 1.198 0 00-.125-.605l-.424-2.025L4.026 4.31l-.362-1.743-.138-.522c-.16-.255-2.045-.032-2.512-.13a.714.714 0 01-.5-.55.723.723 0 01.252-.7c.156-.074.326-.114.498-.12zm6.428 4.968a17.496 17.496 0 00-1.849.045c.064.468.156.932.278 1.388l.458 2.212.431 1.786c.045.327.125.65.24.96.282.072.576.08.862.026l2.899.005 4.083-.005c.364.053.732.051 1.095-.005l.056-.039c.23-.45.408-.926.532-1.416.436-1.12.837-2.291 1.273-3.44l.53-1.376a.11.11 0 00-.122-.132h-2.432l-8.334-.01zM14.516 18.4c.281-.024.56.066.776.249a1.074 1.074 0 01-.598 1.886 1.072 1.072 0 01-1.135-.743 1.09 1.09 0 01.485-1.272c.15-.06.31-.101.472-.12zm-7.887 0c.283-.007.557.1.761.296a1.076 1.076 0 01-.71 1.849 1.072 1.072 0 01-1.076-.767 1.09 1.09 0 01.469-1.24c.176-.076.364-.122.556-.136V18.4z"/></symbol><symbol fill="none" id="sprite-circle" viewBox="0 0 122 117"><title>circle</title><path opacity=".5" clip-rule="evenodd" d="M60.298 1.873c18.397-1.076 39.304-3.505 51.529 10.32 12.659 14.316 9.828 35.613 5.579 54.264-4.248 18.647-11.255 38.308-28.522 46.444-17.131 8.072-36.696 1.075-53.407-7.84-15.698-8.375-29.32-20.997-33.242-38.385-3.913-17.35 1.706-35.631 13.562-48.864 11.075-12.36 27.957-14.97 44.5-15.939z" stroke="#FF485A"/></symbol><symbol fill="none" id="sprite-clock" viewBox="0 0 20 20"><title>clock</title><path d="M10 19a9 9 0 100-18 9 9 0 000 18z"/><path d="M10 10.87a.871.871 0 100-1.741.871.871 0 000 1.742zM7.097 7.097L9.13 9.129m5.516-3.775L10.872 9.13M10 3.322v1.162m0 11.032v1.16M15.517 10h1.16M3.323 10h1.16"/></symbol><symbol id="sprite-compare" viewBox="0 0 21 18"><title>compare</title><path fill-rule="evenodd" clip-rule="evenodd" d="M20.15 12.395l-2.77-7.067c.51-.334.852-.944.852-1.64 0-1.051-.783-1.907-1.745-1.907-.364 0-.66.322-.66.72 0 .397.296.72.66.72.236 0 .428.21.428.468s-.192.468-.428.468h-5.22V1.313c0-.398-.294-.72-.658-.72-.364 0-.659.322-.659.72v2.844H4.732c-.236 0-.428-.21-.428-.468s.192-.468.428-.468c.364 0 .659-.323.659-.72 0-.398-.295-.72-.66-.72-.962 0-1.745.856-1.745 1.908 0 .696.342 1.305.852 1.639l-2.77 7.067a.716.716 0 00-.459.686c0 2.488 1.85 4.512 4.123 4.512s4.122-2.024 4.122-4.512a.716.716 0 00-.458-.686L5.731 5.597h4.22l.658.849.659-.849h4.22l-2.666 6.798a.717.717 0 00-.458.686c0 2.488 1.85 4.512 4.122 4.512 2.274 0 4.123-2.024 4.123-4.512a.716.716 0 00-.458-.686zm-13.2-.035L4.731 6.705 2.514 12.36H6.95zM2.004 13.8c.296 1.348 1.406 2.352 2.727 2.352 1.32 0 2.43-1.004 2.727-2.351H2.005zm12.264-1.44h4.435l-2.217-5.655-2.218 5.655zm-.51 1.44c.297 1.348 1.407 2.352 2.727 2.352 1.32 0 2.431-1.004 2.728-2.351h-5.455z"/></symbol><symbol id="sprite-facebook" viewBox="0 0 12 24"><title>facebook</title><path d="M7.5 8.25v-3c0-.83.67-1.5 1.5-1.5h1.5V0h-3A4.501 4.501 0 003 4.5v3.75H0V12h3v12h4.5V12h3L12 8.25H7.5z"/></symbol><symbol fill="none" id="sprite-gift-box" viewBox="0 0 21 21"><title>gift-box</title><g clip-path="url(#clip0)"><path d="M16.597 10.53L14.7 9.838a.548.548 0 00-.2-.035H2.337a.58.58 0 00-.586.586v8.242c0 .973.785 1.758 1.757 1.758h11.72c.972 0 1.757-.785 1.757-1.758v-7.55a.581.581 0 00-.387-.551z" fill="#1AB8FC"/><path d="M16.984 11.08v7.551c0 .973-.785 1.758-1.758 1.758h-5.86V9.803H14.5c.07 0 .14.012.199.035l1.898.692a.581.581 0 01.387.55z" fill="#0099DB"/><path d="M16.773 4.209a2.372 2.372 0 00-1.605-1.7 2.335 2.335 0 00-2.274.493l-1.36 1.195-.269-1.793A2.374 2.374 0 009.824.564a2.225 2.225 0 00-.457-.129 2.33 2.33 0 00-1.852.41 2.378 2.378 0 00-.96 2.25A2.372 2.372 0 008.1 4.994l1.266.457 1.558.574h.012l2.707.996c.27.094.551.14.82.14a2.37 2.37 0 001.583-.608 2.38 2.38 0 00.726-2.344z" fill="#FE9923"/><path d="M16.047 6.553a2.37 2.37 0 01-1.583.609c-.27 0-.55-.047-.82-.14l-2.707-.997h-.012l-1.558-.574V.435c.152.024.305.07.457.13a2.374 2.374 0 011.441 1.84l.27 1.792 1.36-1.195a2.335 2.335 0 012.273-.492 2.37 2.37 0 011.605 1.699 2.38 2.38 0 01-.726 2.344z" fill="#FE8821"/><path d="M18.988 9.533l-.797 2.203a.593.593 0 01-.75.34l-6.059-2.203-.55-1.816-1.465.328-1.29.293L2.02 6.475a.596.596 0 01-.351-.75l.808-2.203c.152-.446.48-.797.903-.996.421-.2.902-.223 1.347-.06l4.64 1.688.317.118s1.266 2.296 1.301 2.296c.024 0 .527-.28 1.02-.55.492-.27.984-.551.984-.551l4.945 1.805c.445.164.797.492.996.914.2.422.223.902.059 1.347z" fill="#1AB8FC"/><path d="M18.988 9.533l-.797 2.204a.594.594 0 01-.75.34l-6.059-2.204-.55-1.816-1.465.328v-4.23l.316.117s1.266 2.297 1.301 2.297c.024 0 .527-.282 1.02-.551.492-.27.984-.55.984-.55l4.945 1.804c.445.164.797.492.996.914.2.422.223.902.059 1.347z" fill="#0099DB"/><path d="M7.609 9.803v10.586h3.516V9.803H7.609zm2.074-5.531l-.316.867-1.29 3.539 1.29.469 1.465.527.55.2 1.606-4.407-3.305-1.195z" fill="#FCBF29"/><path d="M11.125 9.803H9.367v10.586h1.758V9.803zm1.863-4.336l-1.606 4.406-.55-.199-1.465-.527V5.139l.316-.867 3.305 1.195z" fill="#FE9923"/></g><defs><clipPath id="clip0"><path fill="#fff" transform="translate(.365 .389)" d="M0 0h20v20H0z"/></clipPath></defs></symbol><symbol id="sprite-instagram" viewBox="0 0 22 22"><title>instagram</title><path d="M21.444 3.084a4.144 4.144 0 00-1.004-1.542A4.141 4.141 0 0018.9.538c-.475-.182-1.186-.401-2.49-.465C14.995.018 14.576 0 10.99 0 7.415 0 6.987.01 5.573.082c-1.304.055-2.016.274-2.49.456A4.141 4.141 0 001.54 1.542 4.144 4.144 0 00.538 3.084C.356 3.56.137 4.27.073 5.575.018 6.99 0 7.418 0 10.995c0 3.587.018 4.006.082 5.42.064 1.305.274 2.017.465 2.492a4.144 4.144 0 001.004 1.542c.428.447.957.784 1.541 1.003.474.183 1.186.402 2.49.466C6.996 21.982 7.415 22 11 22s4.004-.01 5.418-.082c1.304-.064 2.016-.274 2.49-.465a4.428 4.428 0 002.545-2.546c.182-.475.401-1.187.465-2.491.064-1.415.082-1.844.082-5.42 0-3.587-.01-4.006-.082-5.42-.073-1.306-.292-2.017-.474-2.492zm-10.453 14.8a6.888 6.888 0 01-6.887-6.889 6.888 6.888 0 1113.773 0 6.888 6.888 0 01-6.886 6.89zm7.16-12.436a1.607 1.607 0 010-3.212 1.607 1.607 0 010 3.212z"/></symbol><symbol id="sprite-maestro" viewBox="0 0 504 504"><title>maestro</title><path d="M252 364c30.4-27.2 49.6-67.2 49.6-112s-19.2-84-49.6-112c-26.4-24-62.4-39.2-100.8-39.2C68 100.8 0 168.8 0 252s68 150.4 151.2 150.4c38.4.8 74.4-14.4 100.8-38.4z" fill="#07a9e2"/><path d="M0 252c0 83.2 68 150.4 151.2 150.4 39.2 0 74.4-14.4 100.8-39.2 30.4-27.2 49.6-67.2 49.6-112S282.4 168 252 140c-26.4-24-62.4-39.2-100.8-39.2" fill="#009ddd"/><path d="M252 140c-26.4-24-62.4-39.2-100.8-39.2H144C96.8 135.2 66.4 190.4 66.4 252s30.4 116.8 76.8 150.4h7.2c39.2 0 74.4-14.4 100.8-39.2 30.4-27.2 49.6-67.2 49.6-112S282.4 168 252 140z" fill="#0284cc"/><path d="M353.6 100.8c-39.2 0-74.4 14.4-101.6 39.2-5.6 4.8-10.4 10.4-15.2 16h30.4c4 4.8 8 10.4 11.2 16h-53.6c-3.2 5.6-6.4 10.4-8.8 16h71.2c2.4 5.6 4.8 10.4 6.4 16h-83.2c-1.6 5.6-3.2 10.4-4.8 16h92.8c2.4 10.4 3.2 20.8 3.2 32 0 16.8-2.4 32.8-8 48h-83.2c1.6 5.6 4 10.4 6.4 16H288c-2.4 5.6-5.6 11.2-8.8 16h-53.6c3.2 5.6 7.2 11.2 11.2 16h30.4c-4.8 5.6-9.6 11.2-15.2 16 27.2 24 62.4 39.2 101.6 39.2 83.2 0 150.4-67.2 150.4-150.4 0-84-67.2-152-150.4-152z" fill="#ff2957"/><path d="M353.6 100.8c-39.2 0-74.4 14.4-101.6 39.2-5.6 4.8-10.4 10.4-15.2 16h30.4c4 4.8 8 10.4 11.2 16h-53.6c-3.2 5.6-6.4 10.4-8.8 16h71.2c2.4 5.6 4.8 10.4 6.4 16h-83.2c-1.6 5.6-3.2 10.4-4.8 16h92.8c2.4 10.4 3.2 20.8 3.2 32 0 16.8-2.4 32.8-8 48h-83.2c1.6 5.6 4 10.4 6.4 16H288c-2.4 5.6-5.6 11.2-8.8 16h-53.6c3.2 5.6 7.2 11.2 11.2 16h30.4c-4.8 5.6-9.6 11.2-15.2 16 27.2 24 62.4 39.2 101.6 39.2 83.2 0 150.4-67.2 150.4-150.4" fill="#ed1c2e"/><path d="M252 364c30.4-27.2 49.6-67.2 49.6-112s-19.2-84-49.6-112v224z" fill="#0466b5"/><path d="M452 284.8c0-2.4 2.4-4.8 4.8-4.8s4.8 2.4 4.8 4.8-2.4 4.8-4.8 4.8-4.8-2.4-4.8-4.8zm4.8 4c2.4 0 3.2-1.6 3.2-4s-1.6-3.2-3.2-3.2c-2.4 0-4 1.6-4 3.2s2.4 4 4 4zm0-2.4h-.8v-4h2.4l.8.8c0 .8 0 .8-.8.8l.8 1.6h-.8l-.8-1.6h-.8v2.4zm0-2.4h.8v-.8h-.8v.8z" fill="#fff"/><path d="M252 140c-5.6 4.8-10.4 10.4-15.2 16h30.4c4 4.8 8 10.4 11.2 16h-53.6c-3.2 5.6-6.4 10.4-8.8 16h71.2c2.4 5.6 4.8 10.4 6.4 16h-83.2c-1.6 5.6-3.2 10.4-4.8 16h92.8c2.4 10.4 3.2 20.8 3.2 32 0 16.8-2.4 32.8-8 48h-83.2c1.6 5.6 4 10.4 6.4 16H288c-2.4 5.6-5.6 11.2-8.8 16h-53.6c3.2 5.6 7.2 11.2 11.2 16h30.4c-4.8 5.6-9.6 11.2-15.2 16 27.2 24 62.4 39.2 101.6 39.2h7.2c46.4-33.6 76.8-88.8 76.8-150.4S407.2 136 360.8 102.4h-7.2C314.4 100.8 279.2 116 252 140z" fill="#d1094b"/><path fill="#fff" d="M132 289.6h-19.2l11.2-58.4-25.6 58.4H81.6l-3.2-58.4-11.2 58.4H50.4l14.4-76.8h29.6l1.6 48 20.8-48h30.4z"/><path d="M113.6 256l11.2-24.8-8.8 46.4c.8 4 1.6 8.8 3.2 12.8H132l14.4-76.8h-28c-3.2 12-5.6 25.6-5.6 39.2.8.8.8 1.6.8 3.2zm228 32.8c-5.6 1.6-8.8 2.4-13.6 2.4-9.6 0-14.4-4.8-14.4-13.6 0-1.6 0-3.2.8-5.6l.8-6.4.8-4.8 8.8-47.2h18.4l-2.4 14.4h9.6l-2.4 14.4h-9.6l-4.8 25.6c0 .8-.8 2.4-.8 2.4 0 3.2 2.4 4.8 6.4 4.8 2.4 0 4 0 4.8-.8l-2.4 14.4zm55.2-60.8c-1.6-.8-1.6-.8-2.4-.8s-1.6 0-1.6-.8h-2.4c-6.4 0-10.4 2.4-16 10.4l1.6-9.6h-16.8L348 289.6h19.2c6.4-38.4 9.6-44.8 18.4-44.8h2.4l2.4.8 6.4-17.6zm-129.6 19.2c0 8 4.8 13.6 14.4 16.8 8 3.2 8.8 4 8.8 7.2 0 4-3.2 5.6-11.2 5.6-5.6 0-11.2-.8-16.8-2.4l-2.4 14.4h.8l3.2.8h4.8c4.8.8 8 .8 10.4.8 20 0 29.6-6.4 29.6-20.8 0-8.8-4-13.6-13.6-17.6-8-3.2-8.8-4-8.8-6.4 0-3.2 3.2-4.8 9.6-4.8 3.2 0 8.8 0 13.6.8l2.4-14.4c-4.8-.8-12-.8-16.8-.8-20.8 0-28 9.6-28 20.8zm-74.4 42.4h-15.2v-6.4c-4.8 4.8-11.2 7.2-20 7.2-10.4 0-16.8-7.2-16.8-16.8 0-15.2 12-24 32.8-24h8c.8-2.4.8-3.2.8-4 0-4-3.2-5.6-12-5.6-5.6 0-11.2.8-15.2 1.6l-2.4.8h-1.6l2.4-13.6c9.6-2.4 15.2-3.2 22.4-3.2 16 0 24.8 6.4 24.8 18.4 0 3.2 0 5.6-1.6 12.8l-4 22.4-.8 4-.8 3.2v2.4l-.8.8zm-13.6-28h-4c-10.4 0-16 3.2-16 9.6 0 4 2.4 6.4 6.4 6.4 8 0 13.6-6.4 13.6-16zm75.2 26.4c-6.4 1.6-12.8 2.4-19.2 2.4-20.8 0-32-9.6-32-28 0-21.6 13.6-36.8 32.8-36.8 15.2 0 24.8 8.8 24.8 22.4 0 4.8-.8 8.8-2.4 15.2h-37.6v2.4c0 7.2 5.6 11.2 16 11.2 7.2 0 12.8-.8 19.2-4l-1.6 15.2zm-9.6-36.8V248c0-4.8-3.2-8-8.8-8s-10.4 4-12 11.2h20.8z" fill="#dce5e5"/><g fill="#fff"><path d="M455.2 261.6c-3.2 20.8-17.6 29.6-36.8 29.6-20.8 0-29.6-12.8-29.6-28.8 0-21.6 14.4-36.8 36.8-36.8 19.2 0 29.6 12.8 29.6 28v8zm-20-8c0-6.4-2.4-12-10.4-12-9.6 0-15.2 11.2-15.2 21.6 0 8 4 13.6 10.4 13.6 4 0 12.8-5.6 14.4-15.2.8-3.2.8-5.6.8-8z"/><path d="M389.6 269.6c.8-5.6 1.6-12 1.6-17.6v-1.6c-.8 4-1.6 8-1.6 12.8-.8 1.6-.8 4 0 6.4z"/></g></symbol><symbol id="sprite-mastercard" viewBox="0 0 504 504"><title>mastercard</title><path d="M504 252c0 83.2-67.2 151.2-151.2 151.2-83.2 0-151.2-68-151.2-151.2 0-83.2 67.2-151.2 150.4-151.2 84.8 0 152 68 152 151.2z" fill="#ffb600"/><path d="M352.8 100.8c83.2 0 151.2 68 151.2 151.2 0 83.2-67.2 151.2-151.2 151.2-83.2 0-151.2-68-151.2-151.2" fill="#f7981d"/><path d="M352.8 100.8c83.2 0 151.2 68 151.2 151.2 0 83.2-67.2 151.2-151.2 151.2" fill="#ff8500"/><path d="M149.6 100.8C67.2 101.6 0 168.8 0 252s67.2 151.2 151.2 151.2c39.2 0 74.4-15.2 101.6-39.2 5.6-4.8 10.4-10.4 15.2-16h-31.2c-4-4.8-8-10.4-11.2-15.2h53.6c3.2-4.8 6.4-10.4 8.8-16h-71.2c-2.4-4.8-4.8-10.4-6.4-16h83.2c4.8-15.2 8-31.2 8-48 0-11.2-1.6-21.6-3.2-32h-92.8c.8-5.6 2.4-10.4 4-16h83.2c-1.6-5.6-4-11.2-6.4-16H216c2.4-5.6 5.6-10.4 8.8-16h53.6c-3.2-5.6-7.2-11.2-12-16h-29.6c4.8-5.6 9.6-10.4 15.2-15.2-26.4-24.8-62.4-39.2-101.6-39.2 0-1.6 0-1.6-.8-1.6z" fill="#ff5050"/><path d="M0 252c0 83.2 67.2 151.2 151.2 151.2 39.2 0 74.4-15.2 101.6-39.2 5.6-4.8 10.4-10.4 15.2-16h-31.2c-4-4.8-8-10.4-11.2-15.2h53.6c3.2-4.8 6.4-10.4 8.8-16h-71.2c-2.4-4.8-4.8-10.4-6.4-16h83.2c4.8-15.2 8-31.2 8-48 0-11.2-1.6-21.6-3.2-32h-92.8c.8-5.6 2.4-10.4 4-16h83.2c-1.6-5.6-4-11.2-6.4-16H216c2.4-5.6 5.6-10.4 8.8-16h53.6c-3.2-5.6-7.2-11.2-12-16h-29.6c4.8-5.6 9.6-10.4 15.2-15.2-26.4-24.8-62.4-39.2-101.6-39.2h-.8" fill="#e52836"/><path d="M151.2 403.2c39.2 0 74.4-15.2 101.6-39.2 5.6-4.8 10.4-10.4 15.2-16h-31.2c-4-4.8-8-10.4-11.2-15.2h53.6c3.2-4.8 6.4-10.4 8.8-16h-71.2c-2.4-4.8-4.8-10.4-6.4-16h83.2c4.8-15.2 8-31.2 8-48 0-11.2-1.6-21.6-3.2-32h-92.8c.8-5.6 2.4-10.4 4-16h83.2c-1.6-5.6-4-11.2-6.4-16H216c2.4-5.6 5.6-10.4 8.8-16h53.6c-3.2-5.6-7.2-11.2-12-16h-29.6c4.8-5.6 9.6-10.4 15.2-15.2-26.4-24.8-62.4-39.2-101.6-39.2h-.8" fill="#cb2026"/><path d="M204.8 290.4l2.4-13.6c-.8 0-2.4.8-4 .8-5.6 0-6.4-3.2-5.6-4.8l4.8-28h8.8l2.4-15.2h-8l1.6-9.6h-16s-9.6 52.8-9.6 59.2c0 9.6 5.6 13.6 12.8 13.6 4.8 0 8.8-1.6 10.4-2.4zm5.6-25.6c0 22.4 15.2 28 28 28 12 0 16.8-2.4 16.8-2.4l3.2-15.2s-8.8 4-16.8 4c-17.6 0-14.4-12.8-14.4-12.8H260s2.4-10.4 2.4-14.4c0-10.4-5.6-23.2-23.2-23.2-16.8-1.6-28.8 16-28.8 36zm28-23.2c8.8 0 7.2 10.4 7.2 11.2H228c0-.8 1.6-11.2 10.4-11.2zM340 290.4l3.2-17.6s-8 4-13.6 4c-11.2 0-16-8.8-16-18.4 0-19.2 9.6-29.6 20.8-29.6 8 0 14.4 4.8 14.4 4.8l2.4-16.8s-9.6-4-18.4-4c-18.4 0-36.8 16-36.8 46.4 0 20 9.6 33.6 28.8 33.6 6.4 0 15.2-2.4 15.2-2.4zm-223.2-63.2c-11.2 0-19.2 3.2-19.2 3.2L95.2 244s7.2-3.2 17.6-3.2c5.6 0 10.4.8 10.4 5.6 0 3.2-.8 4-.8 4h-7.2c-13.6 0-28.8 5.6-28.8 24 0 14.4 9.6 17.6 15.2 17.6 11.2 0 16-7.2 16.8-7.2l-.8 6.4H132l6.4-44c0-19.2-16-20-21.6-20zm3.2 36c0 2.4-1.6 15.2-11.2 15.2-4.8 0-6.4-4-6.4-6.4 0-4 2.4-9.6 14.4-9.6 2.4.8 3.2.8 3.2.8zm33.6 28.8c4 0 24 .8 24-20.8 0-20-19.2-16-19.2-24 0-4 3.2-5.6 8.8-5.6 2.4 0 11.2.8 11.2.8l2.4-14.4s-5.6-1.6-15.2-1.6c-12 0-24 4.8-24 20.8 0 18.4 20 16.8 20 24 0 4.8-5.6 5.6-9.6 5.6-7.2 0-14.4-2.4-14.4-2.4l-2.4 14.4c.8 1.6 4.8 3.2 18.4 3.2zm319.2-77.6l-3.2 21.6s-6.4-8-15.2-8c-14.4 0-27.2 17.6-27.2 38.4 0 12.8 6.4 26.4 20 26.4 9.6 0 15.2-6.4 15.2-6.4l-.8 5.6h16l12-76.8-16.8-.8zm-7.2 42.4c0 8.8-4 20-12.8 20-5.6 0-8.8-4.8-8.8-12.8 0-12.8 5.6-20.8 12.8-20.8 5.6 0 8.8 4 8.8 13.6zm-436 34.4l9.6-57.6 1.6 57.6H52l20.8-57.6-8.8 57.6h16.8l12.8-76.8H67.2l-16 47.2-.8-47.2H27.2l-12.8 76.8h15.2zm248 0c4.8-26.4 5.6-48 16.8-44 1.6-10.4 4-14.4 5.6-18.4h-3.2c-7.2 0-12.8 9.6-12.8 9.6l1.6-8.8h-15.2L260 292h17.6v-.8zm99.2-64c-11.2 0-19.2 3.2-19.2 3.2l-2.4 13.6s7.2-3.2 17.6-3.2c5.6 0 10.4.8 10.4 5.6 0 3.2-.8 4-.8 4h-7.2c-13.6 0-28.8 5.6-28.8 24 0 14.4 9.6 17.6 15.2 17.6 11.2 0 16-7.2 16.8-7.2l-.8 6.4H392l6.4-44c.8-19.2-16-20-21.6-20zm4 36c0 2.4-1.6 15.2-11.2 15.2-4.8 0-6.4-4-6.4-6.4 0-4 2.4-9.6 14.4-9.6 2.4.8 2.4.8 3.2.8zm31.2 28c4.8-26.4 5.6-48 16.8-44 1.6-10.4 4-14.4 5.6-18.4h-3.2c-7.2 0-12.8 9.6-12.8 9.6l1.6-8.8h-15.2L394.4 292H412v-.8z" fill="#fff"/><path d="M180 279.2c0 9.6 5.6 13.6 12.8 13.6 5.6 0 10.4-1.6 12-2.4l2.4-13.6c-.8 0-2.4.8-4 .8-5.6 0-6.4-3.2-5.6-4.8l4.8-28h8.8l2.4-15.2h-8l1.6-9.6m11.2 44.8c0 22.4 7.2 28 20 28 12 0 16.8-2.4 16.8-2.4l3.2-15.2s-8.8 4-16.8 4c-17.6 0-14.4-12.8-14.4-12.8H260s2.4-10.4 2.4-14.4c0-10.4-5.6-23.2-23.2-23.2-16.8-1.6-20.8 16-20.8 36zm20-23.2c8.8 0 10.4 10.4 10.4 11.2H228c0-.8 1.6-11.2 10.4-11.2zM340 290.4l3.2-17.6s-8 4-13.6 4c-11.2 0-16-8.8-16-18.4 0-19.2 9.6-29.6 20.8-29.6 8 0 14.4 4.8 14.4 4.8l2.4-16.8s-9.6-4-18.4-4c-18.4 0-28.8 16-28.8 46.4 0 20 1.6 33.6 20.8 33.6 6.4 0 15.2-2.4 15.2-2.4zM95.2 244.8s7.2-3.2 17.6-3.2c5.6 0 10.4.8 10.4 5.6 0 3.2-.8 4-.8 4h-7.2c-13.6 0-28.8 5.6-28.8 24 0 14.4 9.6 17.6 15.2 17.6 11.2 0 16-7.2 16.8-7.2l-.8 6.4H132l6.4-44c0-18.4-16-19.2-22.4-19.2m12 34.4c0 2.4-9.6 15.2-19.2 15.2-4.8 0-6.4-4-6.4-6.4 0-4 2.4-9.6 14.4-9.6 2.4.8 11.2.8 11.2.8zm8 27.2s4.8 1.6 18.4 1.6c4 0 24 .8 24-20.8 0-20-19.2-16-19.2-24 0-4 3.2-5.6 8.8-5.6 2.4 0 11.2.8 11.2.8l2.4-14.4s-5.6-1.6-15.2-1.6c-12 0-16 4.8-16 20.8 0 18.4 12 16.8 12 24 0 4.8-5.6 5.6-9.6 5.6M469.6 236s-6.4-8-15.2-8c-14.4 0-19.2 17.6-19.2 38.4 0 12.8-1.6 26.4 12 26.4 9.6 0 15.2-6.4 15.2-6.4l-.8 5.6h16l12-76.8m-20.8 41.6c0 8.8-7.2 20-16 20-5.6 0-8.8-4.8-8.8-12.8 0-12.8 5.6-20.8 12.8-20.8 5.6 0 12 4 12 13.6zM29.6 291.2l9.6-57.6 1.6 57.6H52l20.8-57.6-8.8 57.6h16.8l12.8-76.8h-20l-22.4 47.2-.8-47.2h-8.8l-27.2 76.8h15.2zm231.2 0h16.8c4.8-26.4 5.6-48 16.8-44 1.6-10.4 4-14.4 5.6-18.4h-3.2c-7.2 0-12.8 9.6-12.8 9.6l1.6-8.8m69.6 15.2s7.2-3.2 17.6-3.2c5.6 0 10.4.8 10.4 5.6 0 3.2-.8 4-.8 4h-7.2c-13.6 0-28.8 5.6-28.8 24 0 14.4 9.6 17.6 15.2 17.6 11.2 0 16-7.2 16.8-7.2l-.8 6.4H392l6.4-44c0-18.4-16-19.2-22.4-19.2m12 34.4c0 2.4-9.6 15.2-19.2 15.2-4.8 0-6.4-4-6.4-6.4 0-4 2.4-9.6 14.4-9.6 3.2.8 11.2.8 11.2.8zm7.2 28H412c4.8-26.4 5.6-48 16.8-44 1.6-10.4 4-14.4 5.6-18.4h-3.2c-7.2 0-12.8 9.6-12.8 9.6l1.6-8.8" fill="#dce5e5"/></symbol><symbol id="sprite-nova-poshta" viewBox="0 0 84 30"><title>nova-poshta</title><path fill-rule="evenodd" clip-rule="evenodd" d="M36.649 5.09h1.76c.642 0 .966.317.966 1.035V8.67h3.45V6.125c0-.718.318-1.036 1.041-1.036h1.684v1.672h-.719l-.082.082v7.162h-1.925v-3.58h-3.45v3.58H37.45V6.843s0-.082-.082-.082h-.72V5.09zm13.952-.16l.044.005V6.77l-.044-.01c-1.442 0-2.566 1.196-2.566 2.709 0 1.59 1.124 2.862 2.566 2.862l.044-.01v1.837l-.044.005c-2.566 0-4.65-2.068-4.65-4.694 0-2.55 2.084-4.54 4.65-4.54z"/><path fill-rule="evenodd" clip-rule="evenodd" d="M50.645 4.935l.892.087c2.118.414 3.715 2.216 3.715 4.448 0 2.294-1.597 4.168-3.715 4.597l-.892.092v-1.836l.98-.212c.945-.434 1.625-1.45 1.625-2.641 0-1.138-.68-2.092-1.626-2.497l-.98-.202V4.935zm5.007.155h3.971v1.67h-1.245v1.832h1.245v1.59h-1.245v1.99c0 .082 0 .082.082.082h1.163v1.75h-2.205c-.642 0-.96-.318-.96-1.036V6.76h-.806V5.09z"/><path fill-rule="evenodd" clip-rule="evenodd" d="M59.623 5.09h.039c1.765 0 2.807.953 2.807 2.39 0 .872-.4 1.43-.8 1.83.723.319 1.2 1.114 1.2 1.986 0 1.673-1.282 2.709-3.125 2.709h-.121v-1.75h.198c.642 0 1.047-.4 1.047-1.036s-.406-1.036-1.047-1.036h-.198v-1.59h.039c.564 0 .883-.4.883-.954 0-.56-.319-.878-.883-.878h-.039V5.09zm6.937 0h.96v2.549a1.525 1.525 0 00-.159.636l-.641 1.831h.8v1.668h-1.278l-.564 1.436c-.16.554-.478.795-1.12.795h-1.206v-1.75h.4c.165 0 .165 0 .242-.082L66.56 5.09zm.96 0h.965l2.567 7.084c.077.081.077.081.236.081h.324v1.75h-1.125c-.641 0-.96-.241-1.124-.877l-.56-1.354H67.52v-1.668h.801l-.637-1.831c0-.241-.082-.477-.164-.636v-2.55zM36.649 16.55h6.976c.642 0 1.042.317 1.042 1.035v6.049c0 .077 0 .077.082.077h.642v1.754h-1.684c-.724 0-1.042-.318-1.042-1.036v-6.125s0-.082-.082-.082h-3.208v7.243H37.45v-7.243h-.801v-1.673zm13.793-.16l.039.005v1.836l-.039-.01c-1.447 0-2.566 1.196-2.566 2.71 0 1.59 1.119 2.862 2.566 2.862l.039-.01v1.836l-.039.005c-2.566 0-4.574-2.072-4.574-4.694 0-2.55 2.008-4.54 4.574-4.54z"/><path fill-rule="evenodd" clip-rule="evenodd" d="M50.48 16.395l.922.087c2.157.414 3.69 2.217 3.69 4.448 0 2.294-1.533 4.169-3.69 4.598l-.922.091v-1.836l1.018-.212c.96-.434 1.593-1.45 1.593-2.64 0-1.138-.633-2.093-1.593-2.497l-1.017-.203v-1.836zm5.013.155h1.766c.642 0 .96.317.96 1.035v6.049c0 .077 0 .077.082.077h2.325v-7.162h1.925v7.162h2.326c.082 0 .082 0 .082-.077v-6.049c0-.718.318-1.036.96-1.036h1.766v1.673h-.724c-.082 0-.082.082-.082.082v6.125c0 .718-.319 1.036-.96 1.036h-8.583c-.719 0-1.042-.318-1.042-1.036v-6.125s0-.082-.077-.082h-.724v-1.673zm13.711 0h6.016c.724 0 .965.317.965.954v1.513h-1.766v-.713c0-.082 0-.082-.082-.082h-1.12v7.243h-1.929v-7.243h-1.12c-.081 0-.081 0-.081.082v.713H68.32v-1.513c0-.637.241-.955.883-.955zm9.466 0h.96v2.549c-.082.159-.16.395-.16.636l-.64 1.831h.8v1.668h-1.284l-.559 1.354c-.16.636-.482.877-1.124.877h-1.201v-1.754h.4c.164 0 .164 0 .241-.077l2.567-7.085z"/><path fill-rule="evenodd" clip-rule="evenodd" d="M79.63 16.55h.96l2.571 7.084c.077.077.077.077.241.077h.319v1.754h-1.124c-.642 0-.96-.24-1.124-.877l-.56-1.354H79.63v-1.668h.8l-.641-1.831c0-.241-.077-.477-.16-.636v-2.55zM24.289 8.882c.091-.03.212.029.333.188l5.451 5.33c.319.318.319.8 0 1.036l-5.451 5.412c-.121.16-.242.198-.333.15-.092-.049-.15-.188-.15-.39V9.227c0-.197.058-.317.15-.346zM14.963 0h.386l.371.154 5.611 5.571c.241.318.16.56-.241.56h-2.325c-.4 0-.72.317-.72.717v4.135c0 .4-.323.718-.805.718h-4.086a.718.718 0 01-.724-.718V7.002c0-.4-.318-.718-.724-.718H9.222c-.4 0-.483-.24-.241-.559l5.615-5.57.367-.155zm-8.79 8.761c.101.049.164.188.164.39v11.615c0 .203-.063.323-.164.362-.097.038-.237 0-.4-.12L.238 15.435c-.319-.236-.319-.718 0-1.036l5.533-5.49c.164-.158.304-.197.4-.149zm6.98 9.143h4.087c.482 0 .806.318.806.718v4.375c0 .478.318.796.718.796h2.166c.401 0 .56.236.242.477l-5.452 5.489a.807.807 0 01-.564.24.797.797 0 01-.56-.24l-5.452-5.49c-.323-.24-.164-.476.237-.476h2.325c.405 0 .724-.318.724-.796v-4.375c0-.4.323-.718.723-.718z"/></symbol><symbol id="sprite-paypal" viewBox="0 0 504 504"><title>paypal</title><path d="M389.6 221.2h-27.2c-1.6 0-3.2 1.6-4 3.2l-11.2 70.4c0 1.6.8 2.4 2.4 2.4H364c1.6 0 2.4-.8 2.4-2.4l3.2-20c0-1.6 1.6-3.2 4-3.2h8.8c18.4 0 28.8-8.8 31.2-26.4 1.6-7.2 0-13.6-3.2-17.6-4.8-4-12-6.4-20.8-6.4m3.2 26.4c-1.6 9.6-8.8 9.6-16 9.6H372l3.2-18.4c0-.8.8-1.6 2.4-1.6h1.6c4.8 0 9.6 0 12 3.2 1.6.8 1.6 3.2 1.6 7.2" fill="#139ad6"/><path d="M193.6 221.2h-27.2c-1.6 0-3.2 1.6-4 3.2l-11.2 70.4c0 1.6.8 2.4 2.4 2.4h12.8c1.6 0 3.2-1.6 4-3.2l3.2-19.2c0-1.6 1.6-3.2 4-3.2h8.8c18.4 0 28.8-8.8 31.2-26.4 1.6-7.2 0-13.6-3.2-17.6-4.8-4-11.2-6.4-20.8-6.4m3.2 26.4c-1.6 9.6-8.8 9.6-16 9.6h-4l3.2-18.4c0-.8.8-1.6 2.4-1.6h1.6c4.8 0 9.6 0 12 3.2.8.8 1.6 3.2.8 7.2m79.2-.8h-12.8c-.8 0-2.4.8-2.4 1.6l-.8 4-.8-1.6c-3.2-4-8.8-5.6-15.2-5.6-14.4 0-27.2 11.2-29.6 26.4-1.6 8 .8 15.2 4.8 20s9.6 6.4 16.8 6.4c12 0 18.4-7.2 18.4-7.2l-.8 4c0 1.6.8 2.4 2.4 2.4h12c1.6 0 3.2-1.6 4-3.2l7.2-44.8c-.8-.8-2.4-2.4-3.2-2.4m-18.4 25.6c-1.6 7.2-7.2 12.8-15.2 12.8-4 0-7.2-1.6-8.8-3.2-1.6-2.4-2.4-5.6-2.4-9.6.8-7.2 7.2-12.8 14.4-12.8 4 0 6.4 1.6 8.8 3.2 2.4 2.4 3.2 6.4 3.2 9.6" fill="#263b80"/><path d="M471.2 246.8h-12.8c-.8 0-2.4.8-2.4 1.6l-.8 4-.8-1.6c-3.2-4-8.8-5.6-15.2-5.6-14.4 0-27.2 11.2-29.6 26.4-1.6 8 .8 15.2 4.8 20s9.6 6.4 16.8 6.4c12 0 18.4-7.2 18.4-7.2l-.8 4c0 1.6.8 2.4 2.4 2.4h12c1.6 0 3.2-1.6 4-3.2l7.2-44.8c-.8-.8-1.6-2.4-3.2-2.4m-18.4 25.6c-1.6 7.2-7.2 12.8-15.2 12.8-4 0-7.2-1.6-8.8-3.2-1.6-2.4-2.4-5.6-2.4-9.6.8-7.2 7.2-12.8 14.4-12.8 4 0 6.4 1.6 8.8 3.2 3.2 2.4 4 6.4 3.2 9.6" fill="#139ad6"/><path d="M345.6 246.8H332c-1.6 0-2.4.8-3.2 1.6l-17.6 27.2-8-25.6c-.8-1.6-1.6-2.4-4-2.4h-12.8c-1.6 0-2.4 1.6-2.4 3.2l14.4 42.4-13.6 19.2c-.8 1.6 0 4 1.6 4h12.8c1.6 0 2.4-.8 3.2-1.6l44-63.2c2.4-2.4.8-4.8-.8-4.8" fill="#263b80"/><path d="M486.4 223.6l-11.2 72c0 1.6.8 2.4 2.4 2.4h11.2c1.6 0 3.2-1.6 4-3.2l11.2-70.4c0-1.6-.8-2.4-2.4-2.4h-12.8c-.8-.8-1.6 0-2.4 1.6" fill="#139ad6"/><path d="M92 197.2c-5.6-6.4-16-9.6-30.4-9.6h-40c-2.4 0-4.8 2.4-5.6 4.8L0 297.2c0 2.4 1.6 4 3.2 4H28l6.4-39.2v1.6c.8-2.4 3.2-4.8 5.6-4.8h12c23.2 0 40.8-9.6 46.4-36v-2.4c-.8 0-.8 0 0 0 .8-10.4-.8-16.8-6.4-23.2" fill="#263b80"/><path d="M97.6 220.4v2.4c-5.6 27.2-23.2 36-46.4 36h-12c-2.4 0-4.8 2.4-5.6 4.8l-8 48.8c0 1.6.8 3.2 3.2 3.2h20.8c2.4 0 4.8-1.6 4.8-4v-.8l4-24.8v-1.6c0-2.4 2.4-4 4.8-4h3.2c20 0 36-8 40-32 1.6-9.6.8-18.4-4-24-.8-1.6-2.4-3.2-4.8-4" fill="#139ad6"/><path d="M92 218c-.8 0-1.6-.8-2.4-.8s-1.6 0-2.4-.8c-3.2-.8-6.4-.8-10.4-.8H45.6c-.8 0-1.6 0-2.4.8-1.6.8-2.4 2.4-2.4 4L34.4 262v1.6c.8-2.4 3.2-4.8 5.6-4.8h12c23.2 0 40.8-9.6 46.4-36 0-.8 0-1.6.8-2.4-1.6-.8-2.4-1.6-4-1.6-2.4-.8-2.4-.8-3.2-.8" fill="#232c65"/></symbol><symbol id="sprite-play" viewBox="0 0 21 21"><title>play</title><g clip-path="url(#clip0)"><path d="M10.61.185c-5.524 0-10 4.477-10 10s4.476 10 10 10c5.522 0 10-4.477 10-10-.007-5.52-4.48-9.994-10-10zm0 18.572a8.571 8.571 0 118.57-8.572 8.58 8.58 0 01-8.57 8.572z"/><path d="M14.82 9.866a.714.714 0 00-.32-.32L8.786 6.689a.714.714 0 00-1.034.639v5.714a.714.714 0 001.034.64l5.714-2.858a.714.714 0 00.32-.958zm-5.64 2.02V8.485l3.403 1.701-3.402 1.701z"/></g><defs><clipPath id="clip0"><path transform="translate(.61 .185)" d="M0 0h20v20H0z"/></clipPath></defs></symbol><symbol id="sprite-right-arrow" viewBox="0 0 512 512"><title>right-arrow</title><path d="M494.469 213.589L319.176 37.864c-7.802-7.821-20.465-7.835-28.286-.035-7.82 7.801-7.836 20.465-.035 28.285l175.311 175.744c7.797 7.798 7.797 20.487-.018 28.302L290.855 445.886c-7.8 7.82-7.785 20.484.035 28.285a19.941 19.941 0 0014.126 5.84 19.942 19.942 0 0014.161-5.876l175.275-175.707c23.394-23.395 23.394-61.462.017-84.839z"/><path d="M383.019 235.999H20.001C8.954 235.999 0 244.954 0 256s8.954 20.001 20.001 20.001h363.018c11.047 0 20.001-8.954 20.001-20.001s-8.954-20.001-20.001-20.001z"/></symbol><symbol id="sprite-search" viewBox="0 0 19 18"><title>search</title><path d="M18.656 16.83l-5.31-5.23a7.022 7.022 0 001.614-4.475C14.96 3.196 11.714 0 7.724 0 3.735 0 .49 3.196.49 7.125s3.246 7.125 7.235 7.125a7.267 7.267 0 004.545-1.589l5.31 5.23c.149.146.39.146.539 0l.538-.531a.37.37 0 000-.53zM7.724 12.75c-3.15 0-5.712-2.523-5.712-5.625S4.575 1.5 7.724 1.5c3.15 0 5.713 2.523 5.713 5.625s-2.563 5.625-5.713 5.625z"/></symbol><symbol id="sprite-star" viewBox="0 0 13 12"><title>star</title><path d="M12.044 4.623a.352.352 0 00-.283-.239l-3.72-.54L6.377.472a.352.352 0 00-.63 0l-1.664 3.37-3.72.541a.352.352 0 00-.195.6L2.86 7.608l-.636 3.705a.352.352 0 00.51.37l3.328-1.75 3.327 1.75a.352.352 0 00.51-.37l-.636-3.705 2.692-2.624a.352.352 0 00.09-.36z"/></symbol><symbol id="sprite-top-cart" viewBox="0 0 30 28"><title>top-cart</title><path d="M29.875 4.25c-.125-.125-.25-.25-.5-.25H5.625L5 .75c0-.25-.375-.5-.625-.5H.625C.25.25 0 .5 0 .875s.25.625.625.625h3.25l3 15.25c.375 2 2.25 3.5 4.25 3.5H25.5c.375 0 .625-.25.625-.625S25.875 19 25.5 19H11.25c-1 0-2-.5-2.5-1.375l18.25-2.5c.25 0 .5-.25.5-.5l2.5-10s0-.25-.125-.375zm-3.5 9.75l-18.25 2.375-2.25-11.25H28.5L26.375 14zm-15.75 7.5A3.095 3.095 0 007.5 24.625a3.095 3.095 0 003.125 3.125 3.095 3.095 0 003.125-3.125 3.095 3.095 0 00-3.125-3.125zm0 5c-1 0-1.875-.875-1.875-1.875s.875-1.875 1.875-1.875 1.875.875 1.875 1.875-.875 1.875-1.875 1.875zm12.5-5A3.095 3.095 0 0020 24.625a3.095 3.095 0 003.125 3.125 3.095 3.095 0 003.125-3.125 3.095 3.095 0 00-3.125-3.125zm0 5c-1 0-1.875-.875-1.875-1.875s.875-1.875 1.875-1.875S25 23.625 25 24.625s-.875 1.875-1.875 1.875z"/></symbol><symbol id="sprite-top-compare" viewBox="0 0 30 26"><title>top-compare</title><path d="M29.555 15.632l-3.422-7.33 1.477.424a.61.61 0 10.337-1.174L17.676 4.604l.003-.132a2.678 2.678 0 00-5.017-1.307L2.39.218a.611.611 0 00-.337 1.175l2.028.582L.409 9.838a.611.611 0 00-.409.576 4.9 4.9 0 008.371 3.46 4.843 4.843 0 001.462-3.46.611.611 0 00-.445-.588L5.976 2.52l6.348 1.821a2.683 2.683 0 002.065 2.74v14.86c-2.096 0-3.858-.032-4.155.03a2.463 2.463 0 00-1.956 2.395v.855c.01.345.29.621.635.626h12.174a.645.645 0 00.635-.626v-.855a2.463 2.463 0 00-1.955-2.396c-.206-.06-2.15-.029-4.156-.029V7.08a2.689 2.689 0 001.727-1.301l6.917 1.984-3.679 7.88a.61.61 0 00-.41.577 4.9 4.9 0 008.372 3.459A4.844 4.844 0 0030 16.219a.611.611 0 00-.445-.587zM4.9 3.076l3.127 6.698H1.775L4.9 3.076zm0 10.988a3.654 3.654 0 01-3.628-3.068h7.284A3.707 3.707 0 014.9 14.064zm15.6 10.3v.26h-11v-.26c0-.673.572-1.207 1.246-1.207h8.506c.674 0 1.247.534 1.247 1.208zM15 5.93a1.458 1.458 0 111.415-1.116.608.608 0 00-.034.12A1.459 1.459 0 0115 5.929zm13.194 9.65H21.94l3.127-6.697 3.127 6.697zm-3.127 4.29c-1.8.01-3.34-1.29-3.628-3.067h7.284a3.707 3.707 0 01-3.656 3.067z"/></symbol><symbol id="sprite-top-user" viewBox="0 0 20 20"><title>top-user</title><path d="M19.993 9.607a.42.42 0 00-.44-.41.425.425 0 00-.41.44 9.129 9.129 0 01-2.572 6.719 9.063 9.063 0 01-6.573 2.793.425.425 0 000 .85 9.907 9.907 0 007.185-3.052 9.974 9.974 0 002.81-7.34z"/><path d="M19.99 9.807a9.931 9.931 0 00-3.216-7.153C12.967-.885 7.005-.885 3.2 2.654A9.94 9.94 0 00.002 9.81a9.928 9.928 0 002.932 7.258.425.425 0 00.61-.008c.117-.124.261-.273.318-.327a.439.439 0 00.056-.048l.94-.938h3.055a.849.849 0 00.795-.544.823.823 0 00-.196-.906 4.33 4.33 0 01-1.28-3.08V7.559c0-.372.142-.709.408-.975.259-.26.614-.407.975-.407h2.743c.372 0 .71.14.976.407.259.258.407.614.407.975v3.658a4.342 4.342 0 01-1.292 3.094.858.858 0 00-.143.926c.138.315.435.51.776.51h3.232a.426.426 0 000-.851l-3.226.005a.04.04 0 01-.007-.02 5.174 5.174 0 001.51-3.664V7.559c0-.585-.239-1.16-.656-1.577a2.216 2.216 0 00-1.577-.656H8.615c-.585 0-1.16.24-1.577.656a2.218 2.218 0 00-.656 1.577v3.658c0 1.388.543 2.696 1.531 3.679H4.681a.426.426 0 00-.301.125l-1.057 1.057a1.835 1.835 0 00-.086.077 9.077 9.077 0 01-2.384-6.33A9.097 9.097 0 013.78 3.277C7.26.04 12.713.04 16.195 3.277a9.09 9.09 0 012.945 6.546 9.071 9.071 0 01-2.68 6.644.425.425 0 00.6.601 9.914 9.914 0 002.93-7.26z"/></symbol><symbol id="sprite-top-wish" viewBox="0 0 30 24"><title>top-wish</title><path d="M29.536 4.826C28.546 2.14 26.174.382 23.348.238H22.9c-3.568 0-6.633 2.197-7.912 5.308C13.709 2.435 10.645.238 7.077.238H6.63C3.81.382 1.446 2.141.46 4.828-.556 7.605.137 10.57 2.268 12.57l11.21 10.603a2.3 2.3 0 001.539.59c.554 0 1.104-.2 1.526-.6l1.704-1.608a2.3 2.3 0 00.682-1.588 2.201 2.201 0 00-.65-1.612.638.638 0 00-.902.902.972.972 0 01-.018 1.382l-1.692 1.596c-.362.342-.95.337-1.325 0L3.142 11.64C1.39 9.996.823 7.554 1.66 5.268c.804-2.194 2.727-3.632 5.02-3.754h.398c4.01 0 7.274 3.263 7.274 7.273a.638.638 0 001.276 0c0-4.01 3.263-7.273 7.274-7.273h.398c2.3.123 4.23 1.56 5.04 3.754.84 2.277.275 4.72-1.487 6.386l-3.573 3.573a2.23 2.23 0 00-.666 1.584c0 .593.237 1.155.666 1.584a.638.638 0 10.902-.902.962.962 0 01-.291-.682c0-.251.103-.493.291-.681l3.56-3.561c2.127-2.011 2.814-4.978 1.795-7.743z"/></symbol><symbol id="sprite-twitter" viewBox="0 0 22 18"><title>twitter</title><path d="M22 2.116a9 9 0 01-2.592.711A4.527 4.527 0 0021.392.33a9.04 9.04 0 01-2.866 1.095 4.514 4.514 0 00-7.691 4.117A12.814 12.814 0 011.532.826a4.492 4.492 0 00-.612 2.27c0 1.565.797 2.947 2.008 3.756a4.496 4.496 0 01-2.044-.564v.056a4.516 4.516 0 003.62 4.426 4.518 4.518 0 01-2.038.077 4.518 4.518 0 004.216 3.135 9.057 9.057 0 01-5.605 1.932c-.365 0-.724-.021-1.077-.063a12.776 12.776 0 006.919 2.028C15.22 17.879 19.76 11 19.76 5.037c0-.196-.005-.39-.013-.584A9.173 9.173 0 0022 2.116z"/></symbol><symbol id="sprite-visa" viewBox="0 0 504 504"><title>visa</title><path fill="#3c58bf" d="M184.8 324.4l25.6-144h40l-24.8 144z"/><path fill="#293688" d="M184.8 324.4l32.8-144h32.8l-24.8 144z"/><path d="M370.4 182c-8-3.2-20.8-6.4-36.8-6.4-40 0-68.8 20-68.8 48.8 0 21.6 20 32.8 36 40s20.8 12 20.8 18.4c0 9.6-12.8 14.4-24 14.4-16 0-24.8-2.4-38.4-8l-5.6-2.4-5.6 32.8c9.6 4 27.2 8 45.6 8 42.4 0 70.4-20 70.4-50.4 0-16.8-10.4-29.6-34.4-40-14.4-7.2-23.2-11.2-23.2-18.4 0-6.4 7.2-12.8 23.2-12.8 13.6 0 23.2 2.4 30.4 5.6l4 1.6 6.4-31.2z" fill="#3c58bf"/><path d="M370.4 182c-8-3.2-20.8-6.4-36.8-6.4-40 0-61.6 20-61.6 48.8 0 21.6 12.8 32.8 28.8 40s20.8 12 20.8 18.4c0 9.6-12.8 14.4-24 14.4-16 0-24.8-2.4-38.4-8l-5.6-2.4-5.6 32.8c9.6 4 27.2 8 45.6 8 42.4 0 70.4-20 70.4-50.4 0-16.8-10.4-29.6-34.4-40-14.4-7.2-23.2-11.2-23.2-18.4 0-6.4 7.2-12.8 23.2-12.8 13.6 0 23.2 2.4 30.4 5.6l4 1.6 6.4-31.2z" fill="#293688"/><path d="M439.2 180.4c-9.6 0-16.8.8-20.8 10.4l-60 133.6h43.2l8-24h51.2l4.8 24H504l-33.6-144h-31.2zm-18.4 96c2.4-7.2 16-42.4 16-42.4s3.2-8.8 5.6-14.4l2.4 13.6s8 36 9.6 44h-33.6v-.8z" fill="#3c58bf"/><path d="M448.8 180.4c-9.6 0-16.8.8-20.8 10.4l-69.6 133.6h43.2l8-24h51.2l4.8 24H504l-33.6-144h-21.6zm-28 96c3.2-8 16-42.4 16-42.4s3.2-8.8 5.6-14.4l2.4 13.6s8 36 9.6 44h-33.6v-.8z" fill="#293688"/><path d="M111.2 281.2l-4-20.8c-7.2-24-30.4-50.4-56-63.2l36 128h43.2l64.8-144H152l-40.8 100z" fill="#3c58bf"/><path d="M111.2 281.2l-4-20.8c-7.2-24-30.4-50.4-56-63.2l36 128h43.2l64.8-144H160l-48.8 100z" fill="#293688"/><path d="M0 180.4l7.2 1.6c51.2 12 86.4 42.4 100 78.4l-14.4-68c-2.4-9.6-9.6-12-18.4-12H0z" fill="#ffbc00"/><path d="M0 180.4c51.2 12 93.6 43.2 107.2 79.2l-13.6-56.8c-2.4-9.6-10.4-15.2-19.2-15.2L0 180.4z" fill="#f7981d"/><path d="M0 180.4c51.2 12 93.6 43.2 107.2 79.2l-9.6-31.2c-2.4-9.6-5.6-19.2-16.8-23.2L0 180.4z" fill="#ed7c00"/><path d="M151.2 276.4L124 249.2l-12.8 30.4-3.2-20c-7.2-24-30.4-50.4-56-63.2l36 128h43.2l20-48zm74.4 48l-34.4-35.2-6.4 35.2zm92-49.6c3.2 3.2 4.8 5.6 4 8.8 0 9.6-12.8 14.4-24 14.4-16 0-24.8-2.4-38.4-8l-5.6-2.4-5.6 32.8c9.6 4 27.2 8 45.6 8 25.6 0 46.4-7.2 58.4-20l-34.4-33.6zm46.4 49.6h37.6l8-24h51.2l4.8 24H504L490.4 266l-48-46.4 2.4 12.8s8 36 9.6 44h-33.6c3.2-8 16-42.4 16-42.4s3.2-8.8 5.6-14.4" fill="#051244"/></symbol><symbol id="sprite-wezom-logo" viewBox="0 0 114 41"><title>wezom-logo</title><g clip-path="url(#clip0)" fill-rule="evenodd" clip-rule="evenodd"><path d="M111.763 2.453a7.437 7.437 0 00-10.488 0l-24.89 25.336a7.86 7.86 0 000 10.933 7.41 7.41 0 005.33 2.268 7.396 7.396 0 005.332-2.268l24.716-25.3a7.895 7.895 0 000-10.97z"/><path d="M51.704 2.453A7.445 7.445 0 0157.034.2a7.43 7.43 0 015.332 2.253l24.716 25.336a7.86 7.86 0 010 10.933 7.412 7.412 0 01-5.331 2.268 7.396 7.396 0 01-5.332-2.268l-24.715-25.3a7.86 7.86 0 010-10.97z"/><path d="M62.401 2.453A7.41 7.41 0 0057.07.185a7.396 7.396 0 00-5.331 2.268L27.023 27.789a7.86 7.86 0 000 10.933 7.445 7.445 0 005.331 2.253 7.43 7.43 0 005.331-2.253l24.716-25.336a7.86 7.86 0 000-10.933z"/><path d="M2.202 2.278A7.445 7.445 0 017.534.025a7.43 7.43 0 015.33 2.253L37.58 27.614a7.86 7.86 0 010 10.933 7.447 7.447 0 01-5.33 2.253 7.432 7.432 0 01-5.332-2.253L2.202 13.211a7.86 7.86 0 010-10.933z"/></g><defs><clipPath id="clip0"><path d="M0 0h114v41H0z"/></clipPath></defs></symbol><symbol id="sprite-wish" viewBox="0 0 21 18"><title>wish</title><path d="M19.192 1.755C18.247.851 16.94.4 15.274.4c-.461 0-.932.078-1.412.235-.48.156-.926.368-1.339.634-.413.266-.768.515-1.066.749-.297.233-.58.48-.848.743-.268-.262-.55-.51-.848-.743a14.325 14.325 0 00-1.066-.75 5.765 5.765 0 00-1.34-.633A4.536 4.536 0 005.945.4C4.277.4 2.97.85 2.027 1.755 1.082 2.66.609 3.913.609 5.516c0 .489.088.992.262 1.509.175.518.374.959.598 1.323.223.364.476.72.758 1.066.283.346.49.585.62.716s.232.226.307.284l6.964 6.582a.676.676 0 00.491.197.675.675 0 00.491-.197l6.953-6.56c1.704-1.669 2.556-3.309 2.556-4.92 0-1.604-.472-2.857-1.417-3.76zm-2.11 7.653L10.61 15.52 4.125 9.397c-1.392-1.362-2.087-2.656-2.087-3.88 0-.591.08-1.112.24-1.564.16-.452.364-.811.614-1.077.249-.266.552-.483.91-.65a4.1 4.1 0 011.048-.34A6.522 6.522 0 015.944 1.8c.387 0 .804.093 1.25.279.446.186.858.419 1.233.7.376.28.698.543.966.787s.49.468.67.672c.133.16.316.24.546.24.23 0 .413-.08.547-.24a8.54 8.54 0 01.67-.672c.268-.244.59-.507.965-.788.376-.28.787-.513 1.233-.7.447-.185.864-.278 1.25-.278.387 0 .752.03 1.094.087.343.059.692.172 1.05.34.357.167.66.384.909.65.25.266.454.625.614 1.077.16.452.24.973.24 1.563 0 1.225-.7 2.522-2.099 3.892z"/></symbol><symbol id="sprite-youtube" viewBox="0 0 26 18"><title>youtube</title><path d="M24.895 1.722C24.19.468 23.425.237 21.866.15 20.309.044 16.395 0 13.003 0 9.605 0 5.69.044 4.134.148 2.579.238 1.812.466 1.1 1.723.374 2.974 0 5.133 0 8.932v.014c0 3.783.374 5.957 1.1 7.197.712 1.254 1.477 1.482 3.032 1.587 1.557.091 5.473.145 8.871.145 3.392 0 7.306-.054 8.865-.143 1.558-.106 2.323-.333 3.029-1.588C25.63 14.904 26 12.73 26 8.947v-.013c0-3.8-.37-5.959-1.105-7.211zM9.75 13.813v-9.75l8.125 4.875-8.125 4.876z"/></symbol></svg>