<svg xmlns="http://www.w3.org/2000/svg"><symbol fill="none" id="sprite-aktuator-2" viewBox="0 0 34 34"><title>aktuator-2</title><g clip-path="url(#clip0)" fill-rule="evenodd" clip-rule="evenodd"><path d="M14.44 15.725a.568.568 0 01.103.797l-7.25 9.399-.026.026a.037.037 0 000 .053l1.178 1.178a.037.037 0 00.053 0l.013-.013 8.849-7.776a.568.568 0 11.75.854l-8.824 7.753a1.173 1.173 0 01-1.645-.014l-1.178-1.178a1.173 1.173 0 01-.029-1.63l7.21-9.346a.568.568 0 01.796-.103z" fill="#5C6D7D"/><path d="M1.472 29.685l2.967 2.967 4.357-3.459-3.865-3.865-3.46 4.357zM4.454 24.1a.605.605 0 01.857 0l4.711 4.712a.605.605 0 010 .857L4.83 33.792a.605.605 0 01-.856 0L.332 30.151a.605.605 0 010-.857l4.122-5.193zm7.887-5.4l.27.339-.887.708-.283-.354-.006-.008c-.907-1.22-1.535-2.482-1.788-3.611-.249-1.11-.158-2.223.58-2.962.895-.894 2.382-.89 3.82-.434 1.484.47 3.127 1.473 4.57 2.915 1.442 1.443 2.445 3.086 2.915 4.57.455 1.437.46 2.925-.435 3.819-.717.717-1.79.823-2.864.601-1.091-.225-2.31-.807-3.499-1.656l.66-.924c1.101.787 2.176 1.284 3.068 1.468.908.187 1.507.033 1.832-.292.424-.425.576-1.342.155-2.674-.407-1.285-1.303-2.776-2.636-4.108-1.333-1.333-2.823-2.23-4.109-2.636-1.331-.422-2.249-.27-2.673.155-.335.335-.488.96-.276 1.91.209.928.747 2.043 1.586 3.174z" fill="#5C6D7D"/><path d="M20.237 23.684a.568.568 0 00.798.091l3.15-2.508c1.387-1.093 2.126-2.517 1.91-4.279-.209-1.705-1.303-3.63-3.317-5.807l-.015-.016-.016-.015c-2.178-2.014-4.078-3.084-5.772-3.278-1.745-.2-3.159.537-4.298 1.85l-.007.01-2.517 3.16a.568.568 0 00.888.708l2.502-3.142c.955-1.097 2.02-1.605 3.303-1.458 1.333.154 3.008 1.025 5.113 2.969 1.945 2.106 2.844 3.808 3.009 5.158.159 1.295-.35 2.353-1.486 3.248l-.001.001-3.154 2.51a.568.568 0 00-.09.799z" fill="#5C6D7D"/><path d="M16.814 8.702a.568.568 0 00.802-.054l.732-.84c.565-.603 1.399-.928 2.45-.773 1.07.157 2.393.82 3.84 2.268 1.478 1.478 2.141 2.773 2.3 3.81.154 1.008-.158 1.821-.75 2.42l-.787.683a.568.568 0 00.744.858l.818-.709.015-.014c.851-.852 1.294-2.03 1.083-3.41-.208-1.358-1.04-2.862-2.62-4.442-1.558-1.558-3.092-2.384-4.478-2.588-1.4-.206-2.618.233-3.453 1.13l-.005.007-.745.853a.568.568 0 00.054.801zm-3.939 9.551a5.336 5.336 0 01-.263-.505c-.205-.451-.301-.845-.307-1.15-.006-.304.075-.476.171-.572.16-.16.563-.27 1.323.012.719.268 1.574.832 2.38 1.638.807.807 1.371 1.663 1.639 2.38.283.761.173 1.164.013 1.324-.112.112-.332.205-.736.16-.4-.044-.904-.22-1.459-.54l-.567.984c.643.371 1.3.618 1.901.685.598.066 1.22-.041 1.664-.486.657-.657.57-1.659.248-2.523-.338-.907-1.008-1.896-1.899-2.787s-1.88-1.561-2.787-1.899c-.864-.322-1.866-.408-2.523.248-.379.379-.514.889-.504 1.397.01.507.162 1.056.409 1.6.092.2.197.404.316.607l.98-.573z" fill="#5C6D7D"/><path d="M5.424 28.721a.812.812 0 00-1.146 0 .812.812 0 000 1.146.812.812 0 001.146 0 .812.812 0 000-1.146zm-1.95-.803a1.949 1.949 0 012.753 0 1.947 1.947 0 01-2.753 2.752 1.948 1.948 0 010-2.752z" fill="#E67861"/><path d="M26.704 12.088a.568.568 0 00.802-.024l1.843-1.958a.568.568 0 00-.827-.778l-1.843 1.957a.568.568 0 00.025.803zm-4.887-4.981c.21.233.569.252.802.042l5.42-4.883.01-.01a.032.032 0 01.045 0l3.439 3.417a.032.032 0 010 .046l-.02.02-.89 1.089a.568.568 0 00.88.718l.856-1.048a1.168 1.168 0 00-.023-1.628l-3.439-3.418a1.168 1.168 0 00-1.64-.012l-5.399 4.865a.568.568 0 00-.041.802z" fill="#5C6D7D"/><path d="M29.051 5.975L27.606 7.42l3.64 3.641 1.446-1.445-3.64-3.641zm.616-.991L33.683 9a.87.87 0 010 1.231l-1.82 1.82a.87.87 0 01-1.232 0l-4.016-4.015a.87.87 0 010-1.232l1.82-1.82a.87.87 0 011.232 0z" fill="#E67861"/></g><defs><clipPath id="clip0"><path fill="#fff" d="M0 0h34v34H0z"/></clipPath></defs></symbol><symbol fill="none" id="sprite-aktuator" viewBox="0 0 34 34"><title>aktuator</title><g clip-path="url(#clip0)" fill-rule="evenodd" clip-rule="evenodd"><path d="M15.13 27.076l-.12 1.13-7.168-.755a1.173 1.173 0 01-1.14-1.174v-1.666c0-.637.507-1.155 1.14-1.173l7.169-.754.119 1.13-7.224.76h-.03a.037.037 0 00-.037.037v1.666c0 .022.016.038.037.038h.03l7.224.76z" fill="#5C6D7D"/><path d="M1.136 23.42v4.197l5.526.635v-5.467l-5.526.636zm6.056-1.839c.335 0 .606.27.606.606v6.663c0 .335-.27.606-.606.606L.606 28.7A.605.605 0 010 28.093v-5.149c0-.335.27-.606.606-.606l6.586-.757zm18.295-3.559c-4.077 0-7.395 3.319-7.395 7.396s3.318 7.395 7.395 7.395 7.396-3.318 7.396-7.395-3.319-7.396-7.396-7.396zm0-1.136c-4.704 0-8.531 3.828-8.531 8.532 0 4.704 3.827 8.531 8.531 8.531 4.705 0 8.532-3.827 8.532-8.531 0-4.704-3.827-8.532-8.532-8.532z" fill="#5C6D7D"/><path d="M26.255 33.381a.568.568 0 01-.568.568h-2.332c-4.966 0-9.1-3.463-9.1-8.531 0-5.069 4.134-8.532 9.1-8.532h2.191a.568.568 0 010 1.136h-2.191c-4.444 0-7.964 3.055-7.964 7.396 0 4.34 3.52 7.395 7.964 7.395h2.332c.313 0 .568.255.568.568z" fill="#5C6D7D"/><path d="M25.57 21.041a4.383 4.383 0 00-4.377 4.377 4.383 4.383 0 004.376 4.377 4.383 4.383 0 004.377-4.377 4.383 4.383 0 00-4.377-4.377zm0-1.136a5.519 5.519 0 00-5.513 5.513 5.519 5.519 0 005.512 5.513 5.519 5.519 0 005.513-5.513 5.519 5.519 0 00-5.513-5.513z" fill="#5C6D7D"/><path d="M26.38 25.418a.812.812 0 00-.81-.81.812.812 0 00-.81.81.811.811 0 001.62 0zm-.81-1.946c1.073 0 1.945.872 1.945 1.946a1.948 1.948 0 01-1.946 1.946 1.948 1.948 0 01-1.946-1.946c0-1.074.873-1.946 1.946-1.946zM4.612 25.494a.812.812 0 00-.81-.81.812.812 0 00-.81.81.811.811 0 001.62 0zm-.81-1.947a1.948 1.948 0 010 3.892 1.948 1.948 0 01-1.947-1.945c0-1.074.873-1.947 1.946-1.947z" fill="#E67861"/><path d="M18.89 10.19l.118 1.129 7.17-.755a1.173 1.173 0 001.138-1.173V7.725c0-.637-.506-1.155-1.139-1.173l-7.169-.755-.119 1.13 7.224.76h.03c.02 0 .037.017.037.038v1.666a.037.037 0 01-.037.038h-.03l-7.224.76z" fill="#5C6D7D"/><path d="M32.883 6.534v4.196l-5.526.636V5.899l5.526.635zm-6.056-1.84a.605.605 0 00-.606.607v6.663c0 .335.27.606.606.606l6.586-.757c.335 0 .606-.27.606-.606v-5.15a.605.605 0 00-.606-.605l-6.586-.757zM8.532 1.136c4.077 0 7.395 3.319 7.395 7.396 0 4.076-3.318 7.395-7.395 7.395s-7.396-3.319-7.396-7.395c0-4.077 3.319-7.396 7.396-7.396zm0-1.136c4.704 0 8.531 3.827 8.531 8.532 0 4.704-3.827 8.531-8.531 8.531C3.827 17.063 0 13.236 0 8.532 0 3.827 3.827 0 8.532 0z" fill="#5C6D7D"/><path d="M7.764 16.495c0 .314.255.568.568.568h2.332c4.966 0 9.1-3.463 9.1-8.531 0-5.069-4.134-8.532-9.1-8.532h-2.19a.568.568 0 100 1.136h2.191c4.444 0 7.964 3.055 7.964 7.396 0 4.34-3.52 7.395-7.963 7.395H8.332a.568.568 0 00-.568.568z" fill="#5C6D7D"/><path d="M8.45 4.155a4.383 4.383 0 014.377 4.377 4.383 4.383 0 01-4.377 4.377 4.383 4.383 0 01-4.377-4.377A4.383 4.383 0 018.45 4.155zm0-1.136a5.519 5.519 0 015.512 5.513 5.519 5.519 0 01-5.512 5.512 5.519 5.519 0 01-5.513-5.512A5.519 5.519 0 018.45 3.019z" fill="#5C6D7D"/><path d="M7.64 8.532a.81.81 0 11.81.81.812.812 0 01-.81-.81zm.81-1.947a1.948 1.948 0 00-1.946 1.947c0 1.073.872 1.946 1.946 1.946a1.948 1.948 0 001.946-1.946A1.948 1.948 0 008.45 6.585zm20.957 2.022a.811.811 0 11.81.81.812.812 0 01-.81-.81zm.81-1.946a1.948 1.948 0 00-1.945 1.946c0 1.074.872 1.946 1.946 1.946a1.948 1.948 0 001.946-1.946 1.948 1.948 0 00-1.946-1.946z" fill="#E67861"/></g><defs><clipPath id="clip0"><path fill="#fff" d="M0 0h34v34H0z"/></clipPath></defs></symbol><symbol id="sprite-arrow-left" viewBox="0 0 16 29"><title>arrow-left</title><path fill-rule="evenodd" clip-rule="evenodd" d="M13.364.722a1 1 0 011.414 1.414L2.414 14.5l12.364 12.364a1 1 0 01-1.414 1.414L.293 15.208a1 1 0 010-1.415L13.363.722z"/></symbol><symbol id="sprite-arrow-right" viewBox="0 0 16 29"><title>arrow-right</title><path fill-rule="evenodd" clip-rule="evenodd" d="M1.778.722A1 1 0 00.364 2.136L12.728 14.5.364 26.864a1 1 0 101.414 1.414l13.071-13.07a1 1 0 000-1.415L1.78.722z"/></symbol><symbol fill="none" id="sprite-body-tourbine" viewBox="0 0 34 34"><title>body-tourbine</title><path fill-rule="evenodd" clip-rule="evenodd" d="M12.166 13.403c4.077 0 7.396 3.32 7.396 7.396 0 4.077-3.319 7.396-7.396 7.396s-7.395-3.319-7.395-7.396 3.318-7.396 7.395-7.396zm0-1.135c4.705 0 8.532 3.827 8.532 8.531 0 4.704-3.827 8.532-8.532 8.532-4.704 0-8.531-3.828-8.531-8.532 0-4.704 3.827-8.531 8.531-8.531z" fill="#5C6D7D"/><path fill-rule="evenodd" clip-rule="evenodd" d="M10.662 16.432a4.383 4.383 0 014.377 4.377 4.383 4.383 0 01-4.377 4.377 4.383 4.383 0 01-4.377-4.377 4.383 4.383 0 014.377-4.377zm0-1.136a5.519 5.519 0 015.513 5.513 5.519 5.519 0 01-5.513 5.513 5.519 5.519 0 01-5.513-5.513 5.519 5.519 0 015.513-5.513z" fill="#E67861"/><path fill-rule="evenodd" clip-rule="evenodd" d="M12.54 8.855a.568.568 0 00-.126.793l3.466 4.766 2.002 1.156c3.849 2.222 5.37 6.628 3.2 10.387-2.17 3.759-6.747 4.645-10.595 2.423l-2.02-1.166a.568.568 0 10-.568.984l2.02 1.166c4.3 2.482 9.612 1.55 12.146-2.84 2.534-4.388.685-9.455-3.615-11.938l-1.793-1.035-3.324-4.57a.568.568 0 00-.794-.126z" fill="#5C6D7D"/><path fill-rule="evenodd" clip-rule="evenodd" d="M13.559 2.24a.19.19 0 00-.136.054L9.94 5.71a.19.19 0 00-.051.178l1.341 5.719a.568.568 0 11-1.106.259L8.783 6.148c-.106-.45.031-.924.362-1.248l3.483-3.417c.253-.249.596-.385.95-.38l7.922.138c.504.01.958.302 1.174.757l3.588 7.549-.927 1.133c3.28 3.393 5.074 6.879 4.84 11.01-.387 6.832-5.452 10.88-11.1 11.493-5.647.612-11.92-2.198-14.827-9.032a.568.568 0 011.045-.444c2.697 6.341 8.474 8.908 13.66 8.346 5.186-.561 9.738-4.236 10.088-10.428.217-3.835-1.488-7.126-4.87-10.508L19.06 6.005a.568.568 0 11.803-.803L24.53 9.87l.397-.486-3.279-6.899a.19.19 0 00-.167-.108l-7.922-.138z" fill="#5C6D7D"/><path fill-rule="evenodd" clip-rule="evenodd" d="M13.896 6.584a.799.799 0 01-.484-1.018.8.8 0 011.018-.484.8.8 0 01.484 1.019.799.799 0 01-1.018.483zm-1.554-1.4a1.935 1.935 0 001.172 2.47 1.935 1.935 0 002.47-1.172 1.935 1.935 0 00-1.172-2.47 1.935 1.935 0 00-2.47 1.173z" fill="#E67861"/></symbol><symbol id="sprite-cart" viewBox="0 0 21 21"><title>cart</title><path fill-rule="evenodd" clip-rule="evenodd" d="M1.264.545L3.39.552c.327-.013.655-.002.98.032a.652.652 0 01.407.37c.178.406.588 3.084.776 3.125h11.345l2.07.005c.31-.031.623-.016.928.044a.727.727 0 01.48.712 4.054 4.054 0 01-.298.889l-.443 1.232c-.47 1.2-.828 2.417-1.316 3.632l-.28.657c-.165.534-.565 2.013-1.089 2.107l-8.747.008c-1.35.14-2.85-.382-3.01.958a1.055 1.055 0 00.77 1.144c.758.08 1.52.095 2.28.045H15.8c.764 0 1.408-.038 1.52.61a.723.723 0 01-.282.667.825.825 0 01-.458.17l-6.661-.004-3.053-.005c-.377.001-.754-.017-1.13-.055a2.48 2.48 0 01-1.127-.568 2.501 2.501 0 01-.808-2.315c.075-.423.256-.82.528-1.152.263-.294.579-.535.932-.71.15-.03.293-.083.427-.157l.013-.018.01-.027a1.198 1.198 0 00-.125-.605l-.424-2.025L4.026 4.31l-.362-1.743-.138-.522c-.16-.255-2.045-.032-2.512-.13a.714.714 0 01-.5-.55.723.723 0 01.252-.7c.156-.074.326-.114.498-.12zm6.428 4.968a17.496 17.496 0 00-1.849.045c.064.468.156.932.278 1.388l.458 2.212.431 1.786c.045.327.125.65.24.96.282.072.576.08.862.026l2.899.005 4.083-.005c.364.053.732.051 1.095-.005l.056-.039c.23-.45.408-.926.532-1.416.436-1.12.837-2.291 1.273-3.44l.53-1.376a.11.11 0 00-.122-.132h-2.432l-8.334-.01zM14.516 18.4c.281-.024.56.066.776.249a1.074 1.074 0 01-.598 1.886 1.072 1.072 0 01-1.135-.743 1.09 1.09 0 01.485-1.272c.15-.06.31-.101.472-.12zm-7.887 0c.283-.007.557.1.761.296a1.076 1.076 0 01-.71 1.849 1.072 1.072 0 01-1.076-.767 1.09 1.09 0 01.469-1.24c.176-.076.364-.122.556-.136V18.4z"/></symbol><symbol fill="none" id="sprite-cartridge" viewBox="0 0 34 34"><title>cartridge</title><g clip-path="url(#clip0)"><path fill-rule="evenodd" clip-rule="evenodd" d="M20.489 8.69a1.325 1.325 0 011.963-.022l5.51 5.937c.046.05.146.16.204.324.098.279.1.662.073.963a3.14 3.14 0 01-.084.491 1.6 1.6 0 01-.2.476 1.198 1.198 0 01-.171.2l-.018.017a.472.472 0 00-.01.01l-.003.003v.001L16.764 30.122l-.011.016-.016.023-.021.03c-.03.043-.087.124-.17.2-.228.209-.56.314-.804.368a2.586 2.586 0 01-.81.058 1.016 1.016 0 01-.524-.235l-6.662-5.45a1.325 1.325 0 01-.152-1.905L20.489 8.69zm1.13.751a.19.19 0 00-.28.003L8.444 23.981a.19.19 0 00.022.272l6.65 5.44a1.663 1.663 0 00.598-.108.484.484 0 00.062-.03l.008-.012.008-.01.01-.016.024-.034c.018-.025.041-.058.07-.093l10.988-13.032c.026-.03.05-.057.07-.076l.026-.027.005-.005.015-.015a.559.559 0 00.014-.014.692.692 0 00.042-.124 2.235 2.235 0 00.06-.632 1.107 1.107 0 00-.012-.115l-5.485-5.91zm5.442 13.685l1.075-.364.839 2.475 2.612.402-.172 1.123-3.294-.507-1.06-3.129zm-1.701 2.348l1.075-.365.652 1.921 3.234.623-.215 1.116-3.883-.748-.863-2.547zm-1.812 2.25l1.064-.397.733 1.966h3.733v1.136h-4.521l-1.009-2.705zm2.12-26.634a.568.568 0 01.049.8L1.637 29.077a.568.568 0 01-.85-.753l24.08-27.185a.568.568 0 01.801-.049z" fill="#5C6D7D"/><path fill-rule="evenodd" clip-rule="evenodd" d="M20.058 18.603a2.33 2.33 0 00-3.197-.778 2.33 2.33 0 00-.777 3.197 2.33 2.33 0 003.197.778 2.33 2.33 0 00.777-3.197zm-3.787-1.748a3.466 3.466 0 014.758 1.157 3.466 3.466 0 01-1.158 4.758 3.466 3.466 0 01-4.758-1.157 3.466 3.466 0 011.158-4.758z" fill="#E67861"/><path fill-rule="evenodd" clip-rule="evenodd" d="M26.832 19.237c.743-.869 2.163-.452 2.32.68l.266 1.927-1.125.156-.266-1.928a.19.19 0 00-.332-.097l-8.14 9.52a.19.19 0 00.166.312l2.628-.304.13 1.128-2.627.304c-1.197.139-1.942-1.262-1.16-2.177l8.14-9.52zM4.323 5.901L7.14 7.234l.486-1.027L4.81 4.875l-.007-.004a.902.902 0 01-.024-.014l-.01-.006a1.06 1.06 0 00-1.414.206L1.566 7.18l-.003.004a1.06 1.06 0 00.121 1.465l2.227 2.32.82-.785-2.242-2.337 1.7-2.019.005.003c.029.017.075.045.13.07z" fill="#5C6D7D"/><path fill-rule="evenodd" clip-rule="evenodd" d="M28.824 21.017l2.526 2.164.598 4.014-4.188 5.215h-4.5l-1.649-2.864 7.213-8.53zm.13 1.606l-5.96 7.047.922 1.604h3.3l3.535-4.402-.462-3.104-1.336-1.145z" fill="#5C6D7D"/><path d="M30.177 32.683l-.872-.728 2.718-3.256.871.728-2.717 3.256zM.72 7.391l-.871-.728 2.717-3.255.872.728L.72 7.39z" fill="#E67861"/><path fill-rule="evenodd" clip-rule="evenodd" d="M15.423 3.364l3.07 3.883L6.74 20.907l-.798.798-3.52-.695-1.24-4.531 1.761-.328-.077-3.614 2.033-.154.076-2.615 2.242-.157.65-3.137H10l.552-2.358 4.87-.752zm-4.257 3.11h2.873l-.227 4.473 3.21-3.73-2.08-2.63-3.459.535-.317 1.352zm1.53 5.769l-.087-.004.235-4.629H8.792l-.4 1.93 2.577-.142.376 4.415 1.351-1.57zm-2.303 2.677l-.093.008-.37-4.335-2.209.12-1.64.116-.043 1.47 1.946-.141.975 4.429 1.434-1.667zm-2.36 2.743l-.947-4.301-1.591.115h-.002l-1.468.111.049 2.32 1.82-.428.758 3.788 1.38-1.605zm-2.327 2.672l-.696-3.48-1.372.322-1.034.193.728 2.662 2.236.441.138-.138z" fill="#5C6D7D"/></g><defs><clipPath id="clip0"><path fill="#fff" d="M0 0h34v34H0z"/></clipPath></defs></symbol><symbol fill="none" id="sprite-circle" viewBox="0 0 122 117"><title>circle</title><path opacity=".5" clip-rule="evenodd" d="M60.298 1.873c18.397-1.076 39.304-3.505 51.529 10.32 12.659 14.316 9.828 35.613 5.579 54.264-4.248 18.647-11.255 38.308-28.522 46.444-17.131 8.072-36.696 1.075-53.407-7.84-15.698-8.375-29.32-20.997-33.242-38.385-3.913-17.35 1.706-35.631 13.562-48.864 11.075-12.36 27.957-14.97 44.5-15.939z" stroke="#FF485A"/></symbol><symbol fill="none" id="sprite-clock" viewBox="0 0 20 20"><title>clock</title><path d="M10 19a9 9 0 100-18 9 9 0 000 18z"/><path d="M10 10.87a.871.871 0 100-1.741.871.871 0 000 1.742zM7.097 7.097L9.13 9.129m5.516-3.775L10.872 9.13M10 3.322v1.162m0 11.032v1.16M15.517 10h1.16M3.323 10h1.16"/></symbol><symbol id="sprite-close" viewBox="0 0 16 15"><title>close</title><path fill-rule="evenodd" clip-rule="evenodd" d="M13.32.202c.392-.391.793-.159 1.183.232.39.39.623.79.232 1.182L8.917 7.434l5.85 5.849c.39.391.269.902-.122 1.293-.39.39-.902.512-1.293.121l-5.849-5.85-5.85 5.85c-.39.391-.902.269-1.292-.121s-.513-.902-.122-1.293l5.85-5.85L.27 1.617C-.12 1.225.113.824.503.434s.791-.623 1.182-.232l5.818 5.817L13.321.202z"/></symbol><symbol id="sprite-compare" viewBox="0 0 21 18"><title>compare</title><path fill-rule="evenodd" clip-rule="evenodd" d="M20.15 12.395l-2.77-7.067c.51-.334.852-.944.852-1.64 0-1.051-.783-1.907-1.745-1.907-.364 0-.66.322-.66.72 0 .397.296.72.66.72.236 0 .428.21.428.468s-.192.468-.428.468h-5.22V1.313c0-.398-.294-.72-.658-.72-.364 0-.659.322-.659.72v2.844H4.732c-.236 0-.428-.21-.428-.468s.192-.468.428-.468c.364 0 .659-.323.659-.72 0-.398-.295-.72-.66-.72-.962 0-1.745.856-1.745 1.908 0 .696.342 1.305.852 1.639l-2.77 7.067a.716.716 0 00-.459.686c0 2.488 1.85 4.512 4.123 4.512s4.122-2.024 4.122-4.512a.716.716 0 00-.458-.686L5.731 5.597h4.22l.658.849.659-.849h4.22l-2.666 6.798a.717.717 0 00-.458.686c0 2.488 1.85 4.512 4.122 4.512 2.274 0 4.123-2.024 4.123-4.512a.716.716 0 00-.458-.686zm-13.2-.035L4.731 6.705 2.514 12.36H6.95zM2.004 13.8c.296 1.348 1.406 2.352 2.727 2.352 1.32 0 2.43-1.004 2.727-2.351H2.005zm12.264-1.44h4.435l-2.217-5.655-2.218 5.655zm-.51 1.44c.297 1.348 1.407 2.352 2.727 2.352 1.32 0 2.431-1.004 2.728-2.351h-5.455z"/></symbol><symbol id="sprite-enter" viewBox="0 0 280.823 280.823"><title>enter</title><path d="M250.734 40.137l-90.265-.02v20.059h90.265c5.534 0 10.029 4.515 10.029 10.049v80.216c0 5.534-4.496 10.029-10.029 10.029H38.394l45.877-45.877-14.182-14.182L0 170.499l70.206 70.206 14.182-14.182-45.994-45.994h212.341c16.592 0 30.088-13.497 30.088-30.088V70.225c0-16.592-13.497-30.088-30.089-30.088z"/></symbol><symbol id="sprite-facebook" viewBox="0 0 12 24"><title>facebook</title><path d="M7.5 8.25v-3c0-.83.67-1.5 1.5-1.5h1.5V0h-3A4.501 4.501 0 003 4.5v3.75H0V12h3v12h4.5V12h3L12 8.25H7.5z"/></symbol><symbol id="sprite-filter" viewBox="0 0 511 512"><title>filter</title><path d="M492.477 0H20.5C9.453 0 .5 8.953.5 20c0 55.695 23.875 108.867 65.504 145.871l87.59 77.852a71.265 71.265 0 0123.898 53.222v195.032c0 15.937 17.813 25.492 31.09 16.636l117.996-78.66a20.005 20.005 0 008.906-16.64V296.945a71.265 71.265 0 0123.899-53.222l87.586-77.852C488.598 128.867 512.473 75.695 512.473 20c0-11.047-8.953-20-19.996-20zm-72.082 135.973l-87.586 77.855c-23.72 21.086-37.325 51.379-37.325 83.113V402.61l-77.996 51.996v-157.66a111.301 111.301 0 00-37.324-83.117l-87.586-77.851c-28.07-24.957-45.988-59.153-50.785-95.98H471.18c-4.797 36.827-22.711 71.023-50.785 95.976zm0 0"/></symbol><symbol fill="none" id="sprite-geometry" viewBox="0 0 34 34"><title>geometry</title><g clip-path="url(#clip0)"><path d="M19.9 1.696l1.918 3.562-1.513-.42-1.404-2.606a2.115 2.115 0 00-3.727 0l-1.4 2.607-1.518.42 1.918-3.563a3.25 3.25 0 015.727 0zm0 30.576l1.918-3.562-1.513.42-1.404 2.606a2.115 2.115 0 01-3.727 0l-1.4-2.607-1.518-.42 1.918 3.563a3.25 3.25 0 005.727 0z" fill="#5C6D7D"/><path d="M17.045 8.69a1.824 1.824 0 100-3.649 1.824 1.824 0 000 3.648zm0-2.433a.608.608 0 110 1.216.608.608 0 010-1.216z" fill="#5C6D7D"/><path d="M17.045 25.235a1.825 1.825 0 100 3.65 1.825 1.825 0 000-3.65zm.608 1.824a.608.608 0 11-1.217 0 .608.608 0 011.217 0z" fill="#E67861"/><path fill-rule="evenodd" clip-rule="evenodd" d="M17.045 25.84a1.219 1.219 0 100 2.438 1.219 1.219 0 000-2.437zm1.214 1.22a1.214 1.214 0 11-2.429 0 1.214 1.214 0 012.429 0zm-2.228-1.518a1.825 1.825 0 112.028 3.035 1.825 1.825 0 01-2.028-3.035zm1.52 1.855a.608.608 0 10-1.012-.676.608.608 0 001.012.676zm-.513-3.847a6.437 6.437 0 100-12.873 6.437 6.437 0 000 12.873zm0 1.136a7.572 7.572 0 100-15.145 7.572 7.572 0 000 15.145z" fill="#E67861"/><path d="M29.871 8.198l-1.163 3.875-.773-1.366.85-2.837a2.115 2.115 0 00-2.636-2.635l-2.833.853-1.37-.776 3.876-1.163a3.251 3.251 0 014.049 4.05zM8.25 29.82l3.874-1.164-1.365-.773-2.837.85a2.116 2.116 0 01-2.635-2.635l.853-2.834-.776-1.37-1.163 3.876a3.251 3.251 0 004.05 4.05z" fill="#5C6D7D"/><path d="M23.036 11.177a1.824 1.824 0 102.58-2.58 1.824 1.824 0 00-2.58 2.58zm1.72-1.72a.609.609 0 11-.86.86.609.609 0 01.86-.86z" fill="#E67861"/><path fill-rule="evenodd" clip-rule="evenodd" d="M23.465 10.748a1.219 1.219 0 101.723-1.723 1.219 1.219 0 00-1.723 1.723zm1.72-1.72a1.213 1.213 0 11-1.716 1.716 1.213 1.213 0 011.716-1.716zm-1.214 2.648a1.824 1.824 0 11.711-3.579 1.824 1.824 0 01-.711 3.58zm.952-1.908a.608.608 0 10-1.193.238.608.608 0 001.193-.238z" fill="#E67861"/><path d="M11.283 22.93a1.825 1.825 0 10-2.58 2.581 1.825 1.825 0 002.58-2.581zm-.86 1.72a.609.609 0 11-.86-.862.609.609 0 01.86.862z" fill="#5C6D7D"/><path d="M6.847 27.944l-.803-.803 2.999-2.998.803.803-2.999 2.998zm18.976 1.876l-3.875-1.164 1.366-.773 2.837.85a2.115 2.115 0 002.635-2.635l-.853-2.834.776-1.37 1.163 3.876a3.251 3.251 0 01-4.05 4.05zM4.202 8.198l1.163 3.875.773-1.366-.85-2.837a2.115 2.115 0 012.635-2.635l2.834.853 1.37-.776L8.251 4.15a3.25 3.25 0 00-4.05 4.05z" fill="#5C6D7D"/><path d="M22.844 22.984a1.825 1.825 0 102.582 2.581 1.825 1.825 0 00-2.582-2.58zm1.72 1.72a.609.609 0 11-.86-.86.609.609 0 01.86.86z" fill="#5C6D7D"/><path d="M11.091 11.232a1.825 1.825 0 10-2.58-2.58 1.825 1.825 0 002.58 2.58zm-1.72-.86a.609.609 0 11.861-.861.609.609 0 01-.86.86z" fill="#E67861"/><path fill-rule="evenodd" clip-rule="evenodd" d="M10.663 10.803A1.22 1.22 0 108.939 9.08a1.22 1.22 0 001.724 1.724zm-1.72-.003a1.214 1.214 0 111.717-1.717A1.214 1.214 0 018.943 10.8zm2.648-.503a1.825 1.825 0 11-3.58-.712 1.825 1.825 0 013.58.712zm-2.386-.237a.609.609 0 101.194-.238.609.609 0 00-1.194.238z" fill="#E67861"/><path d="M24.282 25.001l.803-.803 2.998 2.998-.803.803-2.998-2.998zm8.043-5.153l-3.562 1.917.42-1.513 2.606-1.404a2.115 2.115 0 000-3.727l-2.607-1.4-.42-1.518 3.563 1.918a3.25 3.25 0 010 5.727zm-30.576 0l3.562 1.917-.42-1.513-2.606-1.404a2.115 2.115 0 010-3.727l2.607-1.4.42-1.518-3.563 1.918a3.25 3.25 0 000 5.727z" fill="#5C6D7D"/><path d="M25.387 17.12a1.825 1.825 0 103.649 0 1.825 1.825 0 00-3.65 0zm2.432 0a.608.608 0 11-1.216 0 .608.608 0 011.216 0zm-19.054 0a1.825 1.825 0 10-3.65 0 1.825 1.825 0 003.65 0zm-1.824.609a.608.608 0 110-1.215.608.608 0 010 1.215z" fill="#5C6D7D"/><path d="M2.082 17.53v-1.136h4.24v1.136h-4.24zm25.747 0v-1.136h4.24v1.136h-4.24z" fill="#5C6D7D"/><path fill-rule="evenodd" clip-rule="evenodd" d="M17.038 4.581c-6.838 0-12.381 5.543-12.381 12.381s5.543 12.38 12.38 12.38c6.839 0 12.382-5.542 12.382-12.38 0-6.838-5.543-12.38-12.381-12.38zM3.52 16.962c0-7.465 6.052-13.517 13.517-13.517s13.517 6.052 13.517 13.517-6.052 13.517-13.517 13.517S3.52 24.427 3.52 16.962z" fill="#5C6D7D"/><path d="M16.508 1.969h1.136v4.24h-1.136V1.97z" fill="#5C6D7D"/></g><defs><clipPath id="clip0"><path fill="#fff" d="M0 0h34v34H0z"/></clipPath></defs></symbol><symbol fill="none" id="sprite-gift-box" viewBox="0 0 21 21"><title>gift-box</title><g clip-path="url(#clip0)"><path d="M16.597 10.53L14.7 9.838a.548.548 0 00-.2-.035H2.337a.58.58 0 00-.586.586v8.242c0 .973.785 1.758 1.757 1.758h11.72c.972 0 1.757-.785 1.757-1.758v-7.55a.581.581 0 00-.387-.551z" fill="#1AB8FC"/><path d="M16.984 11.08v7.551c0 .973-.785 1.758-1.758 1.758h-5.86V9.803H14.5c.07 0 .14.012.199.035l1.898.692a.581.581 0 01.387.55z" fill="#0099DB"/><path d="M16.773 4.209a2.372 2.372 0 00-1.605-1.7 2.335 2.335 0 00-2.274.493l-1.36 1.195-.269-1.793A2.374 2.374 0 009.824.564a2.225 2.225 0 00-.457-.129 2.33 2.33 0 00-1.852.41 2.378 2.378 0 00-.96 2.25A2.372 2.372 0 008.1 4.994l1.266.457 1.558.574h.012l2.707.996c.27.094.551.14.82.14a2.37 2.37 0 001.583-.608 2.38 2.38 0 00.726-2.344z" fill="#FE9923"/><path d="M16.047 6.553a2.37 2.37 0 01-1.583.609c-.27 0-.55-.047-.82-.14l-2.707-.997h-.012l-1.558-.574V.435c.152.024.305.07.457.13a2.374 2.374 0 011.441 1.84l.27 1.792 1.36-1.195a2.335 2.335 0 012.273-.492 2.37 2.37 0 011.605 1.699 2.38 2.38 0 01-.726 2.344z" fill="#FE8821"/><path d="M18.988 9.533l-.797 2.203a.593.593 0 01-.75.34l-6.059-2.203-.55-1.816-1.465.328-1.29.293L2.02 6.475a.596.596 0 01-.351-.75l.808-2.203c.152-.446.48-.797.903-.996.421-.2.902-.223 1.347-.06l4.64 1.688.317.118s1.266 2.296 1.301 2.296c.024 0 .527-.28 1.02-.55.492-.27.984-.551.984-.551l4.945 1.805c.445.164.797.492.996.914.2.422.223.902.059 1.347z" fill="#1AB8FC"/><path d="M18.988 9.533l-.797 2.204a.594.594 0 01-.75.34l-6.059-2.204-.55-1.816-1.465.328v-4.23l.316.117s1.266 2.297 1.301 2.297c.024 0 .527-.282 1.02-.551.492-.27.984-.55.984-.55l4.945 1.804c.445.164.797.492.996.914.2.422.223.902.059 1.347z" fill="#0099DB"/><path d="M7.609 9.803v10.586h3.516V9.803H7.609zm2.074-5.531l-.316.867-1.29 3.539 1.29.469 1.465.527.55.2 1.606-4.407-3.305-1.195z" fill="#FCBF29"/><path d="M11.125 9.803H9.367v10.586h1.758V9.803zm1.863-4.336l-1.606 4.406-.55-.199-1.465-.527V5.139l.316-.867 3.305 1.195z" fill="#FE9923"/></g><defs><clipPath id="clip0"><path fill="#fff" transform="translate(.365 .389)" d="M0 0h20v20H0z"/></clipPath></defs></symbol><symbol id="sprite-instagram" viewBox="0 0 22 22"><title>instagram</title><path d="M21.444 3.084a4.144 4.144 0 00-1.004-1.542A4.141 4.141 0 0018.9.538c-.475-.182-1.186-.401-2.49-.465C14.995.018 14.576 0 10.99 0 7.415 0 6.987.01 5.573.082c-1.304.055-2.016.274-2.49.456A4.141 4.141 0 001.54 1.542 4.144 4.144 0 00.538 3.084C.356 3.56.137 4.27.073 5.575.018 6.99 0 7.418 0 10.995c0 3.587.018 4.006.082 5.42.064 1.305.274 2.017.465 2.492a4.144 4.144 0 001.004 1.542c.428.447.957.784 1.541 1.003.474.183 1.186.402 2.49.466C6.996 21.982 7.415 22 11 22s4.004-.01 5.418-.082c1.304-.064 2.016-.274 2.49-.465a4.428 4.428 0 002.545-2.546c.182-.475.401-1.187.465-2.491.064-1.415.082-1.844.082-5.42 0-3.587-.01-4.006-.082-5.42-.073-1.306-.292-2.017-.474-2.492zm-10.453 14.8a6.888 6.888 0 01-6.887-6.889 6.888 6.888 0 1113.773 0 6.888 6.888 0 01-6.886 6.89zm7.16-12.436a1.607 1.607 0 010-3.212 1.607 1.607 0 010 3.212z"/></symbol><symbol id="sprite-maestro" viewBox="0 0 504 504"><title>maestro</title><path d="M252 364c30.4-27.2 49.6-67.2 49.6-112s-19.2-84-49.6-112c-26.4-24-62.4-39.2-100.8-39.2C68 100.8 0 168.8 0 252s68 150.4 151.2 150.4c38.4.8 74.4-14.4 100.8-38.4z" fill="#07a9e2"/><path d="M0 252c0 83.2 68 150.4 151.2 150.4 39.2 0 74.4-14.4 100.8-39.2 30.4-27.2 49.6-67.2 49.6-112S282.4 168 252 140c-26.4-24-62.4-39.2-100.8-39.2" fill="#009ddd"/><path d="M252 140c-26.4-24-62.4-39.2-100.8-39.2H144C96.8 135.2 66.4 190.4 66.4 252s30.4 116.8 76.8 150.4h7.2c39.2 0 74.4-14.4 100.8-39.2 30.4-27.2 49.6-67.2 49.6-112S282.4 168 252 140z" fill="#0284cc"/><path d="M353.6 100.8c-39.2 0-74.4 14.4-101.6 39.2-5.6 4.8-10.4 10.4-15.2 16h30.4c4 4.8 8 10.4 11.2 16h-53.6c-3.2 5.6-6.4 10.4-8.8 16h71.2c2.4 5.6 4.8 10.4 6.4 16h-83.2c-1.6 5.6-3.2 10.4-4.8 16h92.8c2.4 10.4 3.2 20.8 3.2 32 0 16.8-2.4 32.8-8 48h-83.2c1.6 5.6 4 10.4 6.4 16H288c-2.4 5.6-5.6 11.2-8.8 16h-53.6c3.2 5.6 7.2 11.2 11.2 16h30.4c-4.8 5.6-9.6 11.2-15.2 16 27.2 24 62.4 39.2 101.6 39.2 83.2 0 150.4-67.2 150.4-150.4 0-84-67.2-152-150.4-152z" fill="#ff2957"/><path d="M353.6 100.8c-39.2 0-74.4 14.4-101.6 39.2-5.6 4.8-10.4 10.4-15.2 16h30.4c4 4.8 8 10.4 11.2 16h-53.6c-3.2 5.6-6.4 10.4-8.8 16h71.2c2.4 5.6 4.8 10.4 6.4 16h-83.2c-1.6 5.6-3.2 10.4-4.8 16h92.8c2.4 10.4 3.2 20.8 3.2 32 0 16.8-2.4 32.8-8 48h-83.2c1.6 5.6 4 10.4 6.4 16H288c-2.4 5.6-5.6 11.2-8.8 16h-53.6c3.2 5.6 7.2 11.2 11.2 16h30.4c-4.8 5.6-9.6 11.2-15.2 16 27.2 24 62.4 39.2 101.6 39.2 83.2 0 150.4-67.2 150.4-150.4" fill="#ed1c2e"/><path d="M252 364c30.4-27.2 49.6-67.2 49.6-112s-19.2-84-49.6-112v224z" fill="#0466b5"/><path d="M452 284.8c0-2.4 2.4-4.8 4.8-4.8s4.8 2.4 4.8 4.8-2.4 4.8-4.8 4.8-4.8-2.4-4.8-4.8zm4.8 4c2.4 0 3.2-1.6 3.2-4s-1.6-3.2-3.2-3.2c-2.4 0-4 1.6-4 3.2s2.4 4 4 4zm0-2.4h-.8v-4h2.4l.8.8c0 .8 0 .8-.8.8l.8 1.6h-.8l-.8-1.6h-.8v2.4zm0-2.4h.8v-.8h-.8v.8z" fill="#fff"/><path d="M252 140c-5.6 4.8-10.4 10.4-15.2 16h30.4c4 4.8 8 10.4 11.2 16h-53.6c-3.2 5.6-6.4 10.4-8.8 16h71.2c2.4 5.6 4.8 10.4 6.4 16h-83.2c-1.6 5.6-3.2 10.4-4.8 16h92.8c2.4 10.4 3.2 20.8 3.2 32 0 16.8-2.4 32.8-8 48h-83.2c1.6 5.6 4 10.4 6.4 16H288c-2.4 5.6-5.6 11.2-8.8 16h-53.6c3.2 5.6 7.2 11.2 11.2 16h30.4c-4.8 5.6-9.6 11.2-15.2 16 27.2 24 62.4 39.2 101.6 39.2h7.2c46.4-33.6 76.8-88.8 76.8-150.4S407.2 136 360.8 102.4h-7.2C314.4 100.8 279.2 116 252 140z" fill="#d1094b"/><path fill="#fff" d="M132 289.6h-19.2l11.2-58.4-25.6 58.4H81.6l-3.2-58.4-11.2 58.4H50.4l14.4-76.8h29.6l1.6 48 20.8-48h30.4z"/><path d="M113.6 256l11.2-24.8-8.8 46.4c.8 4 1.6 8.8 3.2 12.8H132l14.4-76.8h-28c-3.2 12-5.6 25.6-5.6 39.2.8.8.8 1.6.8 3.2zm228 32.8c-5.6 1.6-8.8 2.4-13.6 2.4-9.6 0-14.4-4.8-14.4-13.6 0-1.6 0-3.2.8-5.6l.8-6.4.8-4.8 8.8-47.2h18.4l-2.4 14.4h9.6l-2.4 14.4h-9.6l-4.8 25.6c0 .8-.8 2.4-.8 2.4 0 3.2 2.4 4.8 6.4 4.8 2.4 0 4 0 4.8-.8l-2.4 14.4zm55.2-60.8c-1.6-.8-1.6-.8-2.4-.8s-1.6 0-1.6-.8h-2.4c-6.4 0-10.4 2.4-16 10.4l1.6-9.6h-16.8L348 289.6h19.2c6.4-38.4 9.6-44.8 18.4-44.8h2.4l2.4.8 6.4-17.6zm-129.6 19.2c0 8 4.8 13.6 14.4 16.8 8 3.2 8.8 4 8.8 7.2 0 4-3.2 5.6-11.2 5.6-5.6 0-11.2-.8-16.8-2.4l-2.4 14.4h.8l3.2.8h4.8c4.8.8 8 .8 10.4.8 20 0 29.6-6.4 29.6-20.8 0-8.8-4-13.6-13.6-17.6-8-3.2-8.8-4-8.8-6.4 0-3.2 3.2-4.8 9.6-4.8 3.2 0 8.8 0 13.6.8l2.4-14.4c-4.8-.8-12-.8-16.8-.8-20.8 0-28 9.6-28 20.8zm-74.4 42.4h-15.2v-6.4c-4.8 4.8-11.2 7.2-20 7.2-10.4 0-16.8-7.2-16.8-16.8 0-15.2 12-24 32.8-24h8c.8-2.4.8-3.2.8-4 0-4-3.2-5.6-12-5.6-5.6 0-11.2.8-15.2 1.6l-2.4.8h-1.6l2.4-13.6c9.6-2.4 15.2-3.2 22.4-3.2 16 0 24.8 6.4 24.8 18.4 0 3.2 0 5.6-1.6 12.8l-4 22.4-.8 4-.8 3.2v2.4l-.8.8zm-13.6-28h-4c-10.4 0-16 3.2-16 9.6 0 4 2.4 6.4 6.4 6.4 8 0 13.6-6.4 13.6-16zm75.2 26.4c-6.4 1.6-12.8 2.4-19.2 2.4-20.8 0-32-9.6-32-28 0-21.6 13.6-36.8 32.8-36.8 15.2 0 24.8 8.8 24.8 22.4 0 4.8-.8 8.8-2.4 15.2h-37.6v2.4c0 7.2 5.6 11.2 16 11.2 7.2 0 12.8-.8 19.2-4l-1.6 15.2zm-9.6-36.8V248c0-4.8-3.2-8-8.8-8s-10.4 4-12 11.2h20.8z" fill="#dce5e5"/><g fill="#fff"><path d="M455.2 261.6c-3.2 20.8-17.6 29.6-36.8 29.6-20.8 0-29.6-12.8-29.6-28.8 0-21.6 14.4-36.8 36.8-36.8 19.2 0 29.6 12.8 29.6 28v8zm-20-8c0-6.4-2.4-12-10.4-12-9.6 0-15.2 11.2-15.2 21.6 0 8 4 13.6 10.4 13.6 4 0 12.8-5.6 14.4-15.2.8-3.2.8-5.6.8-8z"/><path d="M389.6 269.6c.8-5.6 1.6-12 1.6-17.6v-1.6c-.8 4-1.6 8-1.6 12.8-.8 1.6-.8 4 0 6.4z"/></g></symbol><symbol id="sprite-mastercard" viewBox="0 0 504 504"><title>mastercard</title><path d="M504 252c0 83.2-67.2 151.2-151.2 151.2-83.2 0-151.2-68-151.2-151.2 0-83.2 67.2-151.2 150.4-151.2 84.8 0 152 68 152 151.2z" fill="#ffb600"/><path d="M352.8 100.8c83.2 0 151.2 68 151.2 151.2 0 83.2-67.2 151.2-151.2 151.2-83.2 0-151.2-68-151.2-151.2" fill="#f7981d"/><path d="M352.8 100.8c83.2 0 151.2 68 151.2 151.2 0 83.2-67.2 151.2-151.2 151.2" fill="#ff8500"/><path d="M149.6 100.8C67.2 101.6 0 168.8 0 252s67.2 151.2 151.2 151.2c39.2 0 74.4-15.2 101.6-39.2 5.6-4.8 10.4-10.4 15.2-16h-31.2c-4-4.8-8-10.4-11.2-15.2h53.6c3.2-4.8 6.4-10.4 8.8-16h-71.2c-2.4-4.8-4.8-10.4-6.4-16h83.2c4.8-15.2 8-31.2 8-48 0-11.2-1.6-21.6-3.2-32h-92.8c.8-5.6 2.4-10.4 4-16h83.2c-1.6-5.6-4-11.2-6.4-16H216c2.4-5.6 5.6-10.4 8.8-16h53.6c-3.2-5.6-7.2-11.2-12-16h-29.6c4.8-5.6 9.6-10.4 15.2-15.2-26.4-24.8-62.4-39.2-101.6-39.2 0-1.6 0-1.6-.8-1.6z" fill="#ff5050"/><path d="M0 252c0 83.2 67.2 151.2 151.2 151.2 39.2 0 74.4-15.2 101.6-39.2 5.6-4.8 10.4-10.4 15.2-16h-31.2c-4-4.8-8-10.4-11.2-15.2h53.6c3.2-4.8 6.4-10.4 8.8-16h-71.2c-2.4-4.8-4.8-10.4-6.4-16h83.2c4.8-15.2 8-31.2 8-48 0-11.2-1.6-21.6-3.2-32h-92.8c.8-5.6 2.4-10.4 4-16h83.2c-1.6-5.6-4-11.2-6.4-16H216c2.4-5.6 5.6-10.4 8.8-16h53.6c-3.2-5.6-7.2-11.2-12-16h-29.6c4.8-5.6 9.6-10.4 15.2-15.2-26.4-24.8-62.4-39.2-101.6-39.2h-.8" fill="#e52836"/><path d="M151.2 403.2c39.2 0 74.4-15.2 101.6-39.2 5.6-4.8 10.4-10.4 15.2-16h-31.2c-4-4.8-8-10.4-11.2-15.2h53.6c3.2-4.8 6.4-10.4 8.8-16h-71.2c-2.4-4.8-4.8-10.4-6.4-16h83.2c4.8-15.2 8-31.2 8-48 0-11.2-1.6-21.6-3.2-32h-92.8c.8-5.6 2.4-10.4 4-16h83.2c-1.6-5.6-4-11.2-6.4-16H216c2.4-5.6 5.6-10.4 8.8-16h53.6c-3.2-5.6-7.2-11.2-12-16h-29.6c4.8-5.6 9.6-10.4 15.2-15.2-26.4-24.8-62.4-39.2-101.6-39.2h-.8" fill="#cb2026"/><path d="M204.8 290.4l2.4-13.6c-.8 0-2.4.8-4 .8-5.6 0-6.4-3.2-5.6-4.8l4.8-28h8.8l2.4-15.2h-8l1.6-9.6h-16s-9.6 52.8-9.6 59.2c0 9.6 5.6 13.6 12.8 13.6 4.8 0 8.8-1.6 10.4-2.4zm5.6-25.6c0 22.4 15.2 28 28 28 12 0 16.8-2.4 16.8-2.4l3.2-15.2s-8.8 4-16.8 4c-17.6 0-14.4-12.8-14.4-12.8H260s2.4-10.4 2.4-14.4c0-10.4-5.6-23.2-23.2-23.2-16.8-1.6-28.8 16-28.8 36zm28-23.2c8.8 0 7.2 10.4 7.2 11.2H228c0-.8 1.6-11.2 10.4-11.2zM340 290.4l3.2-17.6s-8 4-13.6 4c-11.2 0-16-8.8-16-18.4 0-19.2 9.6-29.6 20.8-29.6 8 0 14.4 4.8 14.4 4.8l2.4-16.8s-9.6-4-18.4-4c-18.4 0-36.8 16-36.8 46.4 0 20 9.6 33.6 28.8 33.6 6.4 0 15.2-2.4 15.2-2.4zm-223.2-63.2c-11.2 0-19.2 3.2-19.2 3.2L95.2 244s7.2-3.2 17.6-3.2c5.6 0 10.4.8 10.4 5.6 0 3.2-.8 4-.8 4h-7.2c-13.6 0-28.8 5.6-28.8 24 0 14.4 9.6 17.6 15.2 17.6 11.2 0 16-7.2 16.8-7.2l-.8 6.4H132l6.4-44c0-19.2-16-20-21.6-20zm3.2 36c0 2.4-1.6 15.2-11.2 15.2-4.8 0-6.4-4-6.4-6.4 0-4 2.4-9.6 14.4-9.6 2.4.8 3.2.8 3.2.8zm33.6 28.8c4 0 24 .8 24-20.8 0-20-19.2-16-19.2-24 0-4 3.2-5.6 8.8-5.6 2.4 0 11.2.8 11.2.8l2.4-14.4s-5.6-1.6-15.2-1.6c-12 0-24 4.8-24 20.8 0 18.4 20 16.8 20 24 0 4.8-5.6 5.6-9.6 5.6-7.2 0-14.4-2.4-14.4-2.4l-2.4 14.4c.8 1.6 4.8 3.2 18.4 3.2zm319.2-77.6l-3.2 21.6s-6.4-8-15.2-8c-14.4 0-27.2 17.6-27.2 38.4 0 12.8 6.4 26.4 20 26.4 9.6 0 15.2-6.4 15.2-6.4l-.8 5.6h16l12-76.8-16.8-.8zm-7.2 42.4c0 8.8-4 20-12.8 20-5.6 0-8.8-4.8-8.8-12.8 0-12.8 5.6-20.8 12.8-20.8 5.6 0 8.8 4 8.8 13.6zm-436 34.4l9.6-57.6 1.6 57.6H52l20.8-57.6-8.8 57.6h16.8l12.8-76.8H67.2l-16 47.2-.8-47.2H27.2l-12.8 76.8h15.2zm248 0c4.8-26.4 5.6-48 16.8-44 1.6-10.4 4-14.4 5.6-18.4h-3.2c-7.2 0-12.8 9.6-12.8 9.6l1.6-8.8h-15.2L260 292h17.6v-.8zm99.2-64c-11.2 0-19.2 3.2-19.2 3.2l-2.4 13.6s7.2-3.2 17.6-3.2c5.6 0 10.4.8 10.4 5.6 0 3.2-.8 4-.8 4h-7.2c-13.6 0-28.8 5.6-28.8 24 0 14.4 9.6 17.6 15.2 17.6 11.2 0 16-7.2 16.8-7.2l-.8 6.4H392l6.4-44c.8-19.2-16-20-21.6-20zm4 36c0 2.4-1.6 15.2-11.2 15.2-4.8 0-6.4-4-6.4-6.4 0-4 2.4-9.6 14.4-9.6 2.4.8 2.4.8 3.2.8zm31.2 28c4.8-26.4 5.6-48 16.8-44 1.6-10.4 4-14.4 5.6-18.4h-3.2c-7.2 0-12.8 9.6-12.8 9.6l1.6-8.8h-15.2L394.4 292H412v-.8z" fill="#fff"/><path d="M180 279.2c0 9.6 5.6 13.6 12.8 13.6 5.6 0 10.4-1.6 12-2.4l2.4-13.6c-.8 0-2.4.8-4 .8-5.6 0-6.4-3.2-5.6-4.8l4.8-28h8.8l2.4-15.2h-8l1.6-9.6m11.2 44.8c0 22.4 7.2 28 20 28 12 0 16.8-2.4 16.8-2.4l3.2-15.2s-8.8 4-16.8 4c-17.6 0-14.4-12.8-14.4-12.8H260s2.4-10.4 2.4-14.4c0-10.4-5.6-23.2-23.2-23.2-16.8-1.6-20.8 16-20.8 36zm20-23.2c8.8 0 10.4 10.4 10.4 11.2H228c0-.8 1.6-11.2 10.4-11.2zM340 290.4l3.2-17.6s-8 4-13.6 4c-11.2 0-16-8.8-16-18.4 0-19.2 9.6-29.6 20.8-29.6 8 0 14.4 4.8 14.4 4.8l2.4-16.8s-9.6-4-18.4-4c-18.4 0-28.8 16-28.8 46.4 0 20 1.6 33.6 20.8 33.6 6.4 0 15.2-2.4 15.2-2.4zM95.2 244.8s7.2-3.2 17.6-3.2c5.6 0 10.4.8 10.4 5.6 0 3.2-.8 4-.8 4h-7.2c-13.6 0-28.8 5.6-28.8 24 0 14.4 9.6 17.6 15.2 17.6 11.2 0 16-7.2 16.8-7.2l-.8 6.4H132l6.4-44c0-18.4-16-19.2-22.4-19.2m12 34.4c0 2.4-9.6 15.2-19.2 15.2-4.8 0-6.4-4-6.4-6.4 0-4 2.4-9.6 14.4-9.6 2.4.8 11.2.8 11.2.8zm8 27.2s4.8 1.6 18.4 1.6c4 0 24 .8 24-20.8 0-20-19.2-16-19.2-24 0-4 3.2-5.6 8.8-5.6 2.4 0 11.2.8 11.2.8l2.4-14.4s-5.6-1.6-15.2-1.6c-12 0-16 4.8-16 20.8 0 18.4 12 16.8 12 24 0 4.8-5.6 5.6-9.6 5.6M469.6 236s-6.4-8-15.2-8c-14.4 0-19.2 17.6-19.2 38.4 0 12.8-1.6 26.4 12 26.4 9.6 0 15.2-6.4 15.2-6.4l-.8 5.6h16l12-76.8m-20.8 41.6c0 8.8-7.2 20-16 20-5.6 0-8.8-4.8-8.8-12.8 0-12.8 5.6-20.8 12.8-20.8 5.6 0 12 4 12 13.6zM29.6 291.2l9.6-57.6 1.6 57.6H52l20.8-57.6-8.8 57.6h16.8l12.8-76.8h-20l-22.4 47.2-.8-47.2h-8.8l-27.2 76.8h15.2zm231.2 0h16.8c4.8-26.4 5.6-48 16.8-44 1.6-10.4 4-14.4 5.6-18.4h-3.2c-7.2 0-12.8 9.6-12.8 9.6l1.6-8.8m69.6 15.2s7.2-3.2 17.6-3.2c5.6 0 10.4.8 10.4 5.6 0 3.2-.8 4-.8 4h-7.2c-13.6 0-28.8 5.6-28.8 24 0 14.4 9.6 17.6 15.2 17.6 11.2 0 16-7.2 16.8-7.2l-.8 6.4H392l6.4-44c0-18.4-16-19.2-22.4-19.2m12 34.4c0 2.4-9.6 15.2-19.2 15.2-4.8 0-6.4-4-6.4-6.4 0-4 2.4-9.6 14.4-9.6 3.2.8 11.2.8 11.2.8zm7.2 28H412c4.8-26.4 5.6-48 16.8-44 1.6-10.4 4-14.4 5.6-18.4h-3.2c-7.2 0-12.8 9.6-12.8 9.6l1.6-8.8" fill="#dce5e5"/></symbol><symbol id="sprite-minus" viewBox="0 0 21 3"><title>minus</title><path d="M20.51 1.562c0-.552-.119-1-.672-1h-18.5c-.553 0-.828.448-.828 1s.275 1 .828 1h18.5c.553 0 .672-.448.672-1z"/></symbol><symbol id="sprite-nova-poshta" viewBox="0 0 84 30"><title>nova-poshta</title><path fill-rule="evenodd" clip-rule="evenodd" d="M36.649 5.09h1.76c.642 0 .966.317.966 1.035V8.67h3.45V6.125c0-.718.318-1.036 1.041-1.036h1.684v1.672h-.719l-.082.082v7.162h-1.925v-3.58h-3.45v3.58H37.45V6.843s0-.082-.082-.082h-.72V5.09zm13.952-.16l.044.005V6.77l-.044-.01c-1.442 0-2.566 1.196-2.566 2.709 0 1.59 1.124 2.862 2.566 2.862l.044-.01v1.837l-.044.005c-2.566 0-4.65-2.068-4.65-4.694 0-2.55 2.084-4.54 4.65-4.54z"/><path fill-rule="evenodd" clip-rule="evenodd" d="M50.645 4.935l.892.087c2.118.414 3.715 2.216 3.715 4.448 0 2.294-1.597 4.168-3.715 4.597l-.892.092v-1.836l.98-.212c.945-.434 1.625-1.45 1.625-2.641 0-1.138-.68-2.092-1.626-2.497l-.98-.202V4.935zm5.007.155h3.971v1.67h-1.245v1.832h1.245v1.59h-1.245v1.99c0 .082 0 .082.082.082h1.163v1.75h-2.205c-.642 0-.96-.318-.96-1.036V6.76h-.806V5.09z"/><path fill-rule="evenodd" clip-rule="evenodd" d="M59.623 5.09h.039c1.765 0 2.807.953 2.807 2.39 0 .872-.4 1.43-.8 1.83.723.319 1.2 1.114 1.2 1.986 0 1.673-1.282 2.709-3.125 2.709h-.121v-1.75h.198c.642 0 1.047-.4 1.047-1.036s-.406-1.036-1.047-1.036h-.198v-1.59h.039c.564 0 .883-.4.883-.954 0-.56-.319-.878-.883-.878h-.039V5.09zm6.937 0h.96v2.549a1.525 1.525 0 00-.159.636l-.641 1.831h.8v1.668h-1.278l-.564 1.436c-.16.554-.478.795-1.12.795h-1.206v-1.75h.4c.165 0 .165 0 .242-.082L66.56 5.09zm.96 0h.965l2.567 7.084c.077.081.077.081.236.081h.324v1.75h-1.125c-.641 0-.96-.241-1.124-.877l-.56-1.354H67.52v-1.668h.801l-.637-1.831c0-.241-.082-.477-.164-.636v-2.55zM36.649 16.55h6.976c.642 0 1.042.317 1.042 1.035v6.049c0 .077 0 .077.082.077h.642v1.754h-1.684c-.724 0-1.042-.318-1.042-1.036v-6.125s0-.082-.082-.082h-3.208v7.243H37.45v-7.243h-.801v-1.673zm13.793-.16l.039.005v1.836l-.039-.01c-1.447 0-2.566 1.196-2.566 2.71 0 1.59 1.119 2.862 2.566 2.862l.039-.01v1.836l-.039.005c-2.566 0-4.574-2.072-4.574-4.694 0-2.55 2.008-4.54 4.574-4.54z"/><path fill-rule="evenodd" clip-rule="evenodd" d="M50.48 16.395l.922.087c2.157.414 3.69 2.217 3.69 4.448 0 2.294-1.533 4.169-3.69 4.598l-.922.091v-1.836l1.018-.212c.96-.434 1.593-1.45 1.593-2.64 0-1.138-.633-2.093-1.593-2.497l-1.017-.203v-1.836zm5.013.155h1.766c.642 0 .96.317.96 1.035v6.049c0 .077 0 .077.082.077h2.325v-7.162h1.925v7.162h2.326c.082 0 .082 0 .082-.077v-6.049c0-.718.318-1.036.96-1.036h1.766v1.673h-.724c-.082 0-.082.082-.082.082v6.125c0 .718-.319 1.036-.96 1.036h-8.583c-.719 0-1.042-.318-1.042-1.036v-6.125s0-.082-.077-.082h-.724v-1.673zm13.711 0h6.016c.724 0 .965.317.965.954v1.513h-1.766v-.713c0-.082 0-.082-.082-.082h-1.12v7.243h-1.929v-7.243h-1.12c-.081 0-.081 0-.081.082v.713H68.32v-1.513c0-.637.241-.955.883-.955zm9.466 0h.96v2.549c-.082.159-.16.395-.16.636l-.64 1.831h.8v1.668h-1.284l-.559 1.354c-.16.636-.482.877-1.124.877h-1.201v-1.754h.4c.164 0 .164 0 .241-.077l2.567-7.085z"/><path fill-rule="evenodd" clip-rule="evenodd" d="M79.63 16.55h.96l2.571 7.084c.077.077.077.077.241.077h.319v1.754h-1.124c-.642 0-.96-.24-1.124-.877l-.56-1.354H79.63v-1.668h.8l-.641-1.831c0-.241-.077-.477-.16-.636v-2.55zM24.289 8.882c.091-.03.212.029.333.188l5.451 5.33c.319.318.319.8 0 1.036l-5.451 5.412c-.121.16-.242.198-.333.15-.092-.049-.15-.188-.15-.39V9.227c0-.197.058-.317.15-.346zM14.963 0h.386l.371.154 5.611 5.571c.241.318.16.56-.241.56h-2.325c-.4 0-.72.317-.72.717v4.135c0 .4-.323.718-.805.718h-4.086a.718.718 0 01-.724-.718V7.002c0-.4-.318-.718-.724-.718H9.222c-.4 0-.483-.24-.241-.559l5.615-5.57.367-.155zm-8.79 8.761c.101.049.164.188.164.39v11.615c0 .203-.063.323-.164.362-.097.038-.237 0-.4-.12L.238 15.435c-.319-.236-.319-.718 0-1.036l5.533-5.49c.164-.158.304-.197.4-.149zm6.98 9.143h4.087c.482 0 .806.318.806.718v4.375c0 .478.318.796.718.796h2.166c.401 0 .56.236.242.477l-5.452 5.489a.807.807 0 01-.564.24.797.797 0 01-.56-.24l-5.452-5.49c-.323-.24-.164-.476.237-.476h2.325c.405 0 .724-.318.724-.796v-4.375c0-.4.323-.718.723-.718z"/></symbol><symbol id="sprite-paypal" viewBox="0 0 504 504"><title>paypal</title><path d="M389.6 221.2h-27.2c-1.6 0-3.2 1.6-4 3.2l-11.2 70.4c0 1.6.8 2.4 2.4 2.4H364c1.6 0 2.4-.8 2.4-2.4l3.2-20c0-1.6 1.6-3.2 4-3.2h8.8c18.4 0 28.8-8.8 31.2-26.4 1.6-7.2 0-13.6-3.2-17.6-4.8-4-12-6.4-20.8-6.4m3.2 26.4c-1.6 9.6-8.8 9.6-16 9.6H372l3.2-18.4c0-.8.8-1.6 2.4-1.6h1.6c4.8 0 9.6 0 12 3.2 1.6.8 1.6 3.2 1.6 7.2" fill="#139ad6"/><path d="M193.6 221.2h-27.2c-1.6 0-3.2 1.6-4 3.2l-11.2 70.4c0 1.6.8 2.4 2.4 2.4h12.8c1.6 0 3.2-1.6 4-3.2l3.2-19.2c0-1.6 1.6-3.2 4-3.2h8.8c18.4 0 28.8-8.8 31.2-26.4 1.6-7.2 0-13.6-3.2-17.6-4.8-4-11.2-6.4-20.8-6.4m3.2 26.4c-1.6 9.6-8.8 9.6-16 9.6h-4l3.2-18.4c0-.8.8-1.6 2.4-1.6h1.6c4.8 0 9.6 0 12 3.2.8.8 1.6 3.2.8 7.2m79.2-.8h-12.8c-.8 0-2.4.8-2.4 1.6l-.8 4-.8-1.6c-3.2-4-8.8-5.6-15.2-5.6-14.4 0-27.2 11.2-29.6 26.4-1.6 8 .8 15.2 4.8 20s9.6 6.4 16.8 6.4c12 0 18.4-7.2 18.4-7.2l-.8 4c0 1.6.8 2.4 2.4 2.4h12c1.6 0 3.2-1.6 4-3.2l7.2-44.8c-.8-.8-2.4-2.4-3.2-2.4m-18.4 25.6c-1.6 7.2-7.2 12.8-15.2 12.8-4 0-7.2-1.6-8.8-3.2-1.6-2.4-2.4-5.6-2.4-9.6.8-7.2 7.2-12.8 14.4-12.8 4 0 6.4 1.6 8.8 3.2 2.4 2.4 3.2 6.4 3.2 9.6" fill="#263b80"/><path d="M471.2 246.8h-12.8c-.8 0-2.4.8-2.4 1.6l-.8 4-.8-1.6c-3.2-4-8.8-5.6-15.2-5.6-14.4 0-27.2 11.2-29.6 26.4-1.6 8 .8 15.2 4.8 20s9.6 6.4 16.8 6.4c12 0 18.4-7.2 18.4-7.2l-.8 4c0 1.6.8 2.4 2.4 2.4h12c1.6 0 3.2-1.6 4-3.2l7.2-44.8c-.8-.8-1.6-2.4-3.2-2.4m-18.4 25.6c-1.6 7.2-7.2 12.8-15.2 12.8-4 0-7.2-1.6-8.8-3.2-1.6-2.4-2.4-5.6-2.4-9.6.8-7.2 7.2-12.8 14.4-12.8 4 0 6.4 1.6 8.8 3.2 3.2 2.4 4 6.4 3.2 9.6" fill="#139ad6"/><path d="M345.6 246.8H332c-1.6 0-2.4.8-3.2 1.6l-17.6 27.2-8-25.6c-.8-1.6-1.6-2.4-4-2.4h-12.8c-1.6 0-2.4 1.6-2.4 3.2l14.4 42.4-13.6 19.2c-.8 1.6 0 4 1.6 4h12.8c1.6 0 2.4-.8 3.2-1.6l44-63.2c2.4-2.4.8-4.8-.8-4.8" fill="#263b80"/><path d="M486.4 223.6l-11.2 72c0 1.6.8 2.4 2.4 2.4h11.2c1.6 0 3.2-1.6 4-3.2l11.2-70.4c0-1.6-.8-2.4-2.4-2.4h-12.8c-.8-.8-1.6 0-2.4 1.6" fill="#139ad6"/><path d="M92 197.2c-5.6-6.4-16-9.6-30.4-9.6h-40c-2.4 0-4.8 2.4-5.6 4.8L0 297.2c0 2.4 1.6 4 3.2 4H28l6.4-39.2v1.6c.8-2.4 3.2-4.8 5.6-4.8h12c23.2 0 40.8-9.6 46.4-36v-2.4c-.8 0-.8 0 0 0 .8-10.4-.8-16.8-6.4-23.2" fill="#263b80"/><path d="M97.6 220.4v2.4c-5.6 27.2-23.2 36-46.4 36h-12c-2.4 0-4.8 2.4-5.6 4.8l-8 48.8c0 1.6.8 3.2 3.2 3.2h20.8c2.4 0 4.8-1.6 4.8-4v-.8l4-24.8v-1.6c0-2.4 2.4-4 4.8-4h3.2c20 0 36-8 40-32 1.6-9.6.8-18.4-4-24-.8-1.6-2.4-3.2-4.8-4" fill="#139ad6"/><path d="M92 218c-.8 0-1.6-.8-2.4-.8s-1.6 0-2.4-.8c-3.2-.8-6.4-.8-10.4-.8H45.6c-.8 0-1.6 0-2.4.8-1.6.8-2.4 2.4-2.4 4L34.4 262v1.6c.8-2.4 3.2-4.8 5.6-4.8h12c23.2 0 40.8-9.6 46.4-36 0-.8 0-1.6.8-2.4-1.6-.8-2.4-1.6-4-1.6-2.4-.8-2.4-.8-3.2-.8" fill="#232c65"/></symbol><symbol id="sprite-play" viewBox="0 0 21 21"><title>play</title><g clip-path="url(#clip0)"><path d="M10.61.185c-5.524 0-10 4.477-10 10s4.476 10 10 10c5.522 0 10-4.477 10-10-.007-5.52-4.48-9.994-10-10zm0 18.572a8.571 8.571 0 118.57-8.572 8.58 8.58 0 01-8.57 8.572z"/><path d="M14.82 9.866a.714.714 0 00-.32-.32L8.786 6.689a.714.714 0 00-1.034.639v5.714a.714.714 0 001.034.64l5.714-2.858a.714.714 0 00.32-.958zm-5.64 2.02V8.485l3.403 1.701-3.402 1.701z"/></g><defs><clipPath id="clip0"><path transform="translate(.61 .185)" d="M0 0h20v20H0z"/></clipPath></defs></symbol><symbol id="sprite-plus" viewBox="0 0 21 21"><title>plus</title><path fill-rule="evenodd" clip-rule="evenodd" d="M19.962 9.562c.553 0 .672.448.672 1s-.12 1-.672 1h-8.228v8.272c0 .553-.448.828-1 .828s-1-.275-1-.828v-8.272H1.462c-.553 0-.828-.448-.828-1s.275-1 .828-1h8.272V1.334c0-.553.448-.672 1-.672s1 .12 1 .672v8.228h8.228z"/></symbol><symbol fill="none" id="sprite-power" viewBox="0 0 34 34"><title>power</title><path d="M32.867 0v1.7H17a15.196 15.196 0 00-6.892 1.647L6.233 2.184a3.251 3.251 0 00-4.05 4.05l1.164 3.875A15.196 15.196 0 001.7 17c0 .17.007.336.013.503a.485.485 0 00-.013.064v15.3H0V34h11.333v-1.133h-1.7v-2.462a15.253 15.253 0 0014.26.248l3.874 1.163a3.251 3.251 0 004.05-4.05l-1.164-3.875A15.195 15.195 0 0032.3 17a15.362 15.362 0 00-1.328-6.233h1.895v1.7H34V0h-1.133zM3.27 5.906A2.115 2.115 0 015.905 3.27l2.837.85c-.087.057-.17.114-.254.17l-.08.054a15.236 15.236 0 00-4.061 4.062l-.054.08c-.057.084-.117.17-.17.253L3.27 5.906zm5.23 26.96H2.833v-1.133H8.5v1.134zM2.833 30.6v-7.83c.14.344.294.682.458 1.014l.025.047c.15.302.312.6.485.893.02.033.038.067.056.1.171.287.352.567.541.841.048.069.097.135.145.203.151.213.308.422.472.627.057.07.107.139.163.207.19.231.388.453.59.675.086.093.175.183.263.275a15.446 15.446 0 001.682 1.496c.241.185.486.365.737.536.016.011.03.023.047.034l.003.882H2.833zm27.897-2.506a2.116 2.116 0 01-2.635 2.636l-2.837-.85c.087-.057.17-.114.254-.17l.08-.054a15.236 15.236 0 004.061-4.062l.054-.08c.057-.084.117-.17.17-.253l.853 2.833zM31.167 17a14.076 14.076 0 01-2.096 7.405c-.064.104-.131.206-.198.309a13.711 13.711 0 01-.731 1.02c-.081.103-.162.207-.246.308-.119.144-.24.285-.366.423-.056.062-.113.122-.17.183-.229.246-.466.483-.712.712a16.048 16.048 0 01-.606.536c-.101.084-.205.165-.309.246a13.711 13.711 0 01-1.02.732c-.102.066-.204.133-.308.197a14.126 14.126 0 01-15.538-.482c-.1-.07-.2-.139-.297-.211-.118-.088-.232-.18-.347-.27a14.86 14.86 0 01-.516-.429c-.09-.078-.18-.155-.268-.236a14.656 14.656 0 01-.553-.537c-.096-.098-.19-.197-.284-.297-.087-.095-.17-.191-.257-.288a13.81 13.81 0 01-.695-.852c-.032-.043-.061-.087-.092-.13-.125-.17-.248-.346-.366-.523-.039-.057-.075-.118-.114-.176a11.975 11.975 0 01-.322-.527l-.085-.147c-.121-.214-.238-.43-.348-.651l-.016-.035a14.122 14.122 0 01-1.46-5.735A13.425 13.425 0 012.834 17 14.075 14.075 0 014.93 9.595c.064-.104.131-.206.198-.309a13.626 13.626 0 01.731-1.02c.081-.103.162-.207.246-.308.119-.144.24-.285.366-.423.056-.062.113-.122.17-.183.229-.246.466-.483.712-.712a14.935 14.935 0 01.606-.536c.101-.084.205-.165.309-.246a13.626 13.626 0 011.02-.732c.102-.066.204-.133.308-.197A14.075 14.075 0 0117 2.833h11.333v6.8h-5.1v.035C19.17 6.212 13.075 6.704 9.62 10.767 6.162 14.83 6.654 20.925 10.717 24.38A9.658 9.658 0 0024.33 10.767h5.384A13.999 13.999 0 0131.167 17zM25.5 17A8.5 8.5 0 1117 8.5a8.51 8.51 0 018.5 8.5zm7.367-7.367h-3.4v-6.8h3.4v6.8z" fill="#5C6D7D"/><path d="M24.334 16.352c-.007-.08-.017-.159-.026-.238-.016-.13-.037-.26-.056-.388a7.142 7.142 0 00-.097-.46c-.026-.108-.051-.216-.082-.324l-.006-.017a7.29 7.29 0 00-.208-.6l-.03-.083a7.41 7.41 0 00-.278-.6c-.008-.017-.015-.034-.024-.05a7.916 7.916 0 00-.346-.59c-.006-.009-.011-.019-.018-.028a7.536 7.536 0 00-.393-.543c-.014-.015-.023-.03-.035-.044a7.567 7.567 0 00-.404-.457c-.028-.029-.053-.06-.08-.088a7.207 7.207 0 00-.374-.348c-.056-.05-.107-.102-.165-.15-.1-.083-.205-.158-.31-.236-.09-.068-.177-.14-.27-.203-.083-.057-.17-.104-.254-.157-.113-.07-.22-.143-.335-.206l-.026-.013c-.045-.025-.094-.045-.14-.068a7.247 7.247 0 00-.493-.238 3.775 3.775 0 00-.218-.083c-.147-.056-.294-.113-.444-.162-.086-.027-.174-.047-.261-.071a6.367 6.367 0 00-.427-.11c-.097-.021-.197-.034-.295-.051-.136-.023-.272-.047-.409-.062-.113-.013-.23-.018-.346-.026a6.75 6.75 0 00-.365-.018c-.04 0-.078-.006-.119-.006-.107 0-.213.011-.32.016-.084.004-.17.006-.255.013a7.173 7.173 0 00-.556.067c-.041.006-.083.011-.125.019a7.544 7.544 0 00-.631.14c-.014.003-.027.004-.04.008l-.02.006a7.293 7.293 0 00-.65.213l-.057.02a7.38 7.38 0 00-.624.275c-.017.01-.035.017-.052.026-.199.1-.391.211-.579.329-.021.014-.043.025-.064.04a7.207 7.207 0 00-.513.363c-.031.024-.063.045-.093.07-.149.117-.29.243-.429.372-.044.04-.09.079-.132.12a7.443 7.443 0 00-.336.356c-.056.063-.113.123-.17.188a5.86 5.86 0 00-.249.324c-.065.087-.134.17-.196.262-.069.1-.128.206-.192.31-.063.104-.122.187-.176.283l-.01.022a7.36 7.36 0 00-.353.751c-.03.071-.052.142-.079.214a7.233 7.233 0 00-.378 1.474c-.011.076-.025.15-.034.227a7.373 7.373 0 00-.054.858c0 .216.013.432.033.648.007.08.017.159.026.238a7.19 7.19 0 00.154.847c.025.109.05.217.081.325l.006.017c.06.204.132.404.209.6.01.028.018.057.029.082.084.207.178.408.28.604l.02.045c.109.205.225.403.35.596l.015.023c.124.19.257.372.396.549l.028.036c.13.161.268.315.41.464.025.027.049.057.075.082.12.124.25.24.38.355.053.047.103.097.157.143.103.086.213.163.32.244.087.065.17.134.261.195.09.061.175.108.263.162.108.068.214.14.327.201.007.005.015.007.022.011.243.132.494.25.75.353.071.029.143.052.214.078a7.244 7.244 0 001.475.378c.075.012.15.026.226.035.285.035.572.054.86.056.216 0 .432-.014.648-.033.08-.007.159-.017.238-.026.13-.016.26-.037.388-.056.155-.028.308-.06.46-.097.107-.026.215-.05.322-.082l.017-.006c.204-.06.404-.13.6-.208.028-.01.057-.019.084-.03.204-.083.404-.176.599-.277l.05-.024c.202-.106.398-.221.587-.345.011-.006.022-.012.033-.02.185-.12.363-.251.536-.388l.05-.038c.155-.125.303-.259.448-.396.032-.03.066-.057.098-.09.117-.113.226-.238.336-.36.054-.057.11-.114.16-.177.08-.095.15-.195.227-.294.077-.099.148-.188.215-.287.05-.073.092-.15.139-.227.075-.12.155-.238.227-.363l.01-.023c.132-.243.25-.493.352-.75.03-.07.052-.142.079-.214.076-.197.14-.399.196-.604a7.59 7.59 0 00.182-.871c.011-.075.025-.148.034-.224.034-.284.051-.57.052-.857 0-.216-.014-.432-.033-.648zm-3.91-2.001c.025-.033.046-.068.07-.101.04-.057.08-.109.113-.167.024-.039.044-.08.066-.122.03-.056.062-.107.088-.163.02-.043.036-.089.054-.133.023-.057.047-.11.067-.17.015-.045.025-.092.038-.138.016-.056.035-.113.048-.174.01-.047.015-.095.022-.142.01-.06.022-.118.028-.178.004-.05.004-.097.006-.146.003-.06.008-.12.007-.18 0-.049-.007-.098-.01-.148-.004-.049-.005-.103-.011-.154.017.014.032.03.048.045a6.203 6.203 0 01.599.592c.353.398.654.839.896 1.312l.037.075c.11.224.206.454.288.69.007.015.015.03.018.046l-.001.007-.568.751a1.708 1.708 0 01-1.36.68h-2.363c-.01-.027-.023-.052-.033-.08l-.012-.026c-.008-.02-.015-.04-.025-.06l1.672-1.671c.077-.078.15-.16.217-.245zm-3.551-3.578c.162-.004.323 0 .485.012.08.004.163.004.243.012.227.021.452.055.675.102.06.013.118.031.177.046.17.04.34.086.506.142.076.025.15.056.227.082.146.056.291.116.434.182.044.02.088.042.132.064l.134.937a1.706 1.706 0 01-.48 1.442l-1.672 1.671c-.02-.01-.04-.016-.06-.025l-.027-.01c-.027-.012-.052-.024-.08-.034v-2.663a2.833 2.833 0 00-.047-.492c-.008-.046-.018-.09-.028-.135a2.818 2.818 0 00-.108-.364c-.014-.037-.024-.073-.039-.109a2.851 2.851 0 00-.22-.421c-.017-.028-.039-.053-.056-.081a2.781 2.781 0 00-.24-.302c-.015-.017-.026-.036-.042-.053.027 0 .056-.003.086-.003zm-4.596 2.17v.002c.165-.191.342-.373.53-.543.029-.026.056-.056.087-.08.43-.376.91-.692 1.424-.94l.027-.012c.265-.126.54-.233.82-.32l.329.165c.577.286.941.875.94 1.519v2.663c-.028.01-.053.022-.08.033l-.027.012-.06.024-1.671-1.67a2.827 2.827 0 00-.397-.324l-.066-.045a2.828 2.828 0 00-.43-.227l-.078-.03a2.869 2.869 0 00-.478-.146l-.027-.004a2.854 2.854 0 00-.492-.048c-.014 0-.028-.005-.042-.005h-.028c-.073 0-.146.007-.219.014-.034 0-.07 0-.104.007l.042-.044zm-1.384 4.475v.004c-.033.037-.069.074-.1.113a6.248 6.248 0 01-.026-.535c0-.227.013-.454.039-.68.006-.057.018-.113.025-.167.024-.17.05-.34.088-.503.015-.069.035-.134.052-.202a6.365 6.365 0 01.213-.67c.05-.13.105-.26.163-.387l.068-.14.937-.134a1.703 1.703 0 011.442.48l1.671 1.671c-.009.02-.015.04-.024.057l-.013.03c-.01.026-.023.051-.032.078h-2.363c-.11 0-.219.006-.327.019-.038.004-.075.014-.114.02-.07.011-.14.02-.208.037-.043.01-.084.025-.127.038-.061.017-.124.033-.184.056-.043.016-.085.037-.128.057-.056.024-.113.045-.17.073-.043.021-.084.048-.127.071-.051.03-.104.057-.154.089-.05.031-.08.056-.122.088-.04.03-.095.066-.14.103-.045.038-.074.068-.114.102a2.03 2.03 0 00-.127.12c-.04.041-.065.073-.098.111zm2.683 2.232v.004c-.02.026-.038.056-.057.082-.044.061-.09.121-.128.185-.021.034-.038.07-.057.104a2.204 2.204 0 00-.097.181c-.019.04-.033.08-.05.12-.024.06-.05.12-.071.181-.014.042-.024.086-.036.13-.017.06-.037.12-.05.182-.01.046-.014.091-.022.137-.01.061-.021.122-.027.183-.005.048-.005.096-.007.144 0 .061-.008.121-.007.181 0 .05.007.1.01.15.004.049.005.102.011.153l-.044-.04a6.291 6.291 0 01-.601-.596 6.327 6.327 0 01-.895-1.313c-.013-.023-.024-.048-.036-.073a6.224 6.224 0 01-.29-.69l-.017-.046.568-.762a1.71 1.71 0 011.36-.68h2.363l.032.078.013.03c.008.018.015.039.024.056l-1.67 1.671a2.88 2.88 0 00-.219.248zm3.855 3.561l-.002.004a5.94 5.94 0 01-.627.012 6.158 6.158 0 01-.843-.084c-.05-.008-.1-.013-.15-.023a6.212 6.212 0 01-.737-.191c-.05-.016-.098-.037-.148-.057a6.392 6.392 0 01-.676-.286l-.133-.94a1.707 1.707 0 01.48-1.442l1.672-1.67.06.025.027.01c.026.011.052.024.08.033v2.365c0 .109.006.218.018.327.005.039.015.075.02.113.012.07.021.14.038.208.01.044.025.086.038.129.017.061.033.122.056.183.016.043.037.085.057.129.024.056.046.113.073.17.022.043.048.084.071.127.03.051.057.104.089.154.032.05.057.082.088.123.032.04.067.094.103.14.036.044.069.075.103.113.035.037.077.086.119.126.041.04.076.067.113.1.037.034.074.069.113.1-.034 0-.069 0-.102.002zm.091-5.99a.622.622 0 01-.069.102.573.573 0 01-.13.131.623.623 0 01-.104.07.566.566 0 01-.438 0 .623.623 0 01-.104-.07.55.55 0 01-.121-.118.577.577 0 01-.079-.113.567.567 0 010-.439.584.584 0 01.079-.119v.001a.55.55 0 01.121-.118.617.617 0 01.104-.07.566.566 0 01.438 0c.037.02.071.043.103.07.05.036.095.08.131.13a.61.61 0 01.07.104.567.567 0 010 .438zm4.196 3.84l-.001.004a6.203 6.203 0 01-.592.599c-.398.35-.837.649-1.31.89l-.075.036c-.223.11-.453.206-.689.288l-.046.017-.758-.568a1.708 1.708 0 01-.68-1.36v-2.363c.027-.01.052-.023.079-.033l.027-.012c.02-.008.04-.015.06-.025l1.671 1.672c.122.12.255.228.397.324l.062.043a2.819 2.819 0 00.508.259c.153.06.311.109.473.142a2.795 2.795 0 00.546.057h.033c.113 0 .227-.007.34-.02-.014.018-.03.034-.045.05zm1.475-3.374c-.006.056-.018.113-.026.17-.023.17-.05.335-.087.5-.015.069-.035.136-.052.204a6.17 6.17 0 01-.13.44c-.026.076-.056.152-.084.226-.05.13-.104.258-.162.385-.022.048-.046.094-.068.141l-.937.134a1.71 1.71 0 01-1.443-.48l-1.67-1.672.024-.06.012-.027c.01-.026.023-.052.032-.08h2.365c.109 0 .218-.006.327-.018.039-.005.075-.015.113-.02.07-.012.14-.021.208-.038.044-.01.086-.025.129-.038.061-.017.122-.033.183-.056.043-.016.085-.037.129-.057.056-.024.113-.046.17-.073.043-.022.084-.048.127-.072.051-.028.104-.056.154-.088.05-.032.082-.056.123-.088.04-.032.094-.067.14-.103.044-.036.075-.068.113-.103.037-.035.086-.076.126-.118.04-.042.065-.075.098-.114v.006c.032-.038.067-.074.098-.113a6.1 6.1 0 01.027.532c0 .227-.014.454-.039.68z" fill="#E67861"/><path d="M5.667 4.533H4.533v1.134h1.134V4.533zm23.8 23.801h-1.134v1.133h1.134v-1.133zM3.967 17H5.1C5.107 10.43 10.43 5.107 17 5.1V3.967C9.805 3.975 3.975 9.805 3.967 17zM18.133 4H17v1.133h1.133V4z" fill="#5C6D7D"/></symbol><symbol fill="none" id="sprite-prokladki" viewBox="0 0 35 34"><title>prokladki</title><path fill-rule="evenodd" clip-rule="evenodd" d="M18.672 19.414v11.178A3.408 3.408 0 0115.264 34H7.92a3.408 3.408 0 01-3.407-3.408V19.444c0-.433.082-.863.243-1.265L9.207 7.034a4.922 4.922 0 014.57-3.096h3.485c3.429 0 5.807 3.418 4.614 6.633l-3.133 8.448c-.047.127-.071.26-.071.395zm-1.136 0c0-.27.048-.537.142-.79l3.133-8.448c.918-2.473-.912-5.103-3.55-5.103h-3.483a3.786 3.786 0 00-3.516 2.382L5.809 18.601a2.271 2.271 0 00-.162.843v11.148a2.272 2.272 0 002.272 2.272h7.345a2.272 2.272 0 002.272-2.272V19.414zM35 21.278v9.314A3.408 3.408 0 0131.592 34h-4.619a3.408 3.408 0 01-3.407-3.408v-9.314a3.408 3.408 0 013.407-3.407h4.62A3.408 3.408 0 0135 21.278zm-1.136 0a2.272 2.272 0 00-2.272-2.271h-4.619a2.272 2.272 0 00-2.271 2.271v9.314a2.272 2.272 0 002.271 2.272h4.62a2.272 2.272 0 002.271-2.272v-9.314z" fill="#5C6D7D"/><path d="M7.198 5.04l4.044-.071-1.065 1.152-2.961.054a2.115 2.115 0 00-1.707 3.313l1.675 2.439-.322 1.541-2.288-3.337a3.25 3.25 0 012.624-5.09zm15.28 12.397l-3.992.656.888-1.294 2.922-.482a2.114 2.114 0 001.21-3.525l-2.01-2.171.095-1.572 2.747 2.972a3.25 3.25 0 01-1.86 5.416zM20.422 2.435l1.092 3.895-1.384-.74-.802-2.85a2.114 2.114 0 00-3.636-.814l-1.937 2.237-1.572.079 2.65-3.058a3.25 3.25 0 015.589 1.251zM2.696 22.801L5.5 21.187 5.08 22.7l-1.85 1.102a2.115 2.115 0 00.001 3.727l1.85 1.174.42 1.517-2.806-1.691a3.25 3.25 0 010-5.727zm18.224 0l-2.805-1.614.419 1.512 1.85 1.102a2.115 2.115 0 010 3.727l-1.85 1.174-.42 1.517 2.806-1.691a3.25 3.25 0 000-5.727z" fill="#5C6D7D"/><path fill-rule="evenodd" clip-rule="evenodd" d="M16.125 19.349v10.335a1.893 1.893 0 01-1.893 1.893H9.055a1.893 1.893 0 01-1.893-1.893V19.359c0-.423.079-.842.232-1.236l3.951-10.149a2.65 2.65 0 012.47-1.689h3.345a2.65 2.65 0 012.478 3.59l-3.44 9.071a1.136 1.136 0 00-.073.403zm-1.136 0c0-.275.05-.548.148-.805l3.439-9.072a1.514 1.514 0 00-1.416-2.051h-3.345c-.624 0-1.185.383-1.411.965l-3.951 10.15a2.272 2.272 0 00-.155.823v10.325c0 .418.339.757.757.757h5.177a.757.757 0 00.757-.757V19.349z" fill="#E67861"/><path d="M7.465 8.784V7.648H6.329v1.136h1.136zm13.91 4.569v1.136h1.136v-1.136h-1.136zM4.133 26.2v-1.136H2.997V26.2h1.136zm15.35 0v-1.136h1.135V26.2h-1.135zM17.915 3.105V1.969h-1.136v1.136h1.136zm9.058 28.396v-1.136h-1.136v1.136h1.136z" fill="#5C6D7D"/><path fill-rule="evenodd" clip-rule="evenodd" d="M31.593 26.958v-2.045a1.893 1.893 0 00-1.894-1.893h-.833a1.893 1.893 0 00-1.893 1.893v2.045c0 1.045.848 1.893 1.893 1.893h.833a1.893 1.893 0 001.893-1.893zm1.135-2.045a3.029 3.029 0 00-3.029-3.029h-.833a3.029 3.029 0 00-3.029 3.03v2.044a3.029 3.029 0 003.03 3.029h.832a3.029 3.029 0 003.03-3.03v-2.044z" fill="#E67861"/><path d="M26.973 21.506V20.37h-1.136v1.136h1.136zm5.68 9.995v-1.136h-1.136v1.136h1.136zm0-9.995V20.37h-1.136v1.136h1.136z" fill="#5C6D7D"/></symbol><symbol id="sprite-right-arrow" viewBox="0 0 512 512"><title>right-arrow</title><path d="M494.469 213.589L319.176 37.864c-7.802-7.821-20.465-7.835-28.286-.035-7.82 7.801-7.836 20.465-.035 28.285l175.311 175.744c7.797 7.798 7.797 20.487-.018 28.302L290.855 445.886c-7.8 7.82-7.785 20.484.035 28.285a19.941 19.941 0 0014.126 5.84 19.942 19.942 0 0014.161-5.876l175.275-175.707c23.394-23.395 23.394-61.462.017-84.839z"/><path d="M383.019 235.999H20.001C8.954 235.999 0 244.954 0 256s8.954 20.001 20.001 20.001h363.018c11.047 0 20.001-8.954 20.001-20.001s-8.954-20.001-20.001-20.001z"/></symbol><symbol id="sprite-search" viewBox="0 0 19 18"><title>search</title><path d="M18.656 16.83l-5.31-5.23a7.022 7.022 0 001.614-4.475C14.96 3.196 11.714 0 7.724 0 3.735 0 .49 3.196.49 7.125s3.246 7.125 7.235 7.125a7.267 7.267 0 004.545-1.589l5.31 5.23c.149.146.39.146.539 0l.538-.531a.37.37 0 000-.53zM7.724 12.75c-3.15 0-5.712-2.523-5.712-5.625S4.575 1.5 7.724 1.5c3.15 0 5.713 2.523 5.713 5.625s-2.563 5.625-5.713 5.625z"/></symbol><symbol fill="none" id="sprite-servoprivod" viewBox="0 0 34 34"><title>servoprivod</title><g clip-path="url(#clip0)"><path d="M21.248 18.207v-1.134h-1.135v1.134h1.135zM9.937 12.193l-1.398-.831-.568.982 1.399.832.567-.983zM8.926 13.97l-1.399-.831-.567.982 1.399.832.567-.983zm-.983 1.816l-1.399-.831-.567.982 1.398.832.568-.983zm-1.286 1.815l-1.4-.831-.567.983 1.4.831.567-.983zm-1.06 1.816L4.2 18.585l-.568.983 1.399.832.567-.983zm22.762-6.505v-1.135h-1.135v1.135h1.135z" fill="#5C6D7D"/><path fill-rule="evenodd" clip-rule="evenodd" d="M27.899 22.339l-5.709 9.719c-.937 1.596-3.013 2.142-4.637 1.221L8.7 28.254a3.306 3.306 0 01-1.243-4.557l5.712-9.724 5.96-9.716c.955-1.557 3.002-2.076 4.604-1.167l8.57 4.863a3.306 3.306 0 011.258 4.53l-5.662 9.856zm-6.689 9.163l5.706-9.715 5.66-9.85a2.204 2.204 0 00-.84-3.02l-8.569-4.864a2.286 2.286 0 00-3.07.778l-5.954 9.707-5.706 9.715a2.204 2.204 0 00.829 3.038l8.853 5.025c1.082.614 2.466.25 3.091-.814z" fill="#5C6D7D"/><path fill-rule="evenodd" clip-rule="evenodd" d="M16.369 31.97a.571.571 0 01-.773.204L4.815 26.056a2.755 2.755 0 01-1.012-3.837l12.366-20.29C16.963.626 18.673.19 20.01.949l5.595 3.176c.27.153.363.493.207.76a.571.571 0 01-.773.203l-5.595-3.175a1.714 1.714 0 00-2.304.587L4.773 22.79c-.487.8-.213 1.836.608 2.302l10.78 6.119a.552.552 0 01.208.76z" fill="#5C6D7D"/><path fill-rule="evenodd" clip-rule="evenodd" d="M10.802 26.088L13.06 27.4l-.57.981-2.258-1.312a2.08 2.08 0 01-.757-2.839l2.29-3.965.987-1.533.954.615-.973 1.51-2.275 3.94a.946.946 0 00.344 1.29z" fill="#5C6D7D"/><path fill-rule="evenodd" clip-rule="evenodd" d="M28.32 17.585l-4.312 7.414-.981-.57 4.312-7.415.98.57zM23.252 6.378l-.851-.45a.946.946 0 00-1.259.36l-3.716 6.38-.98-.571 3.716-6.38a2.08 2.08 0 012.769-.792l.851.45-.53 1.003z" fill="#E67861"/><path fill-rule="evenodd" clip-rule="evenodd" d="M21.533 26.867l-2.067 3.58-5.031-2.182 2.693-4.665 4.405 3.267zm-4.267-4.577a.599.599 0 00-.818.22l-3.298 5.71a.599.599 0 00.22.82l6.02 2.61a.599.599 0 00.819-.22l2.548-4.413a.599.599 0 00-.22-.819l-5.27-3.908zM5.802 6.16L8.95 1.077a.599.599 0 01.825-.192l5.779 2.81a.599.599 0 01.192.826l-3.79 6.355a.599.599 0 01-.825.192L5.994 6.986a.599.599 0 01-.192-.826zm5.502 3.596l3.173-5.323-4.82-2.343-2.639 4.26 4.285 3.406z" fill="#5C6D7D"/><path fill-rule="evenodd" clip-rule="evenodd" d="M21.128 20.24l-6.467-2.881 2.726-4.742 5.8 4.302-2.059 3.322zm3.233-3.06a.734.734 0 00-.27-1.003l-6.457-4.79a.734.734 0 00-1.004.27l-3.175 5.523a.734.734 0 00.27 1.004l7.19 3.204c.352.203.8.083 1.004-.269l2.442-3.939zm4.029-2.31l-6.466-2.882 2.725-4.742 5.801 4.302-2.06 3.322zm3.233-3.06a.734.734 0 00-.269-1.004l-6.458-4.79a.734.734 0 00-1.003.27l-3.175 5.523a.734.734 0 00.269 1.004l7.19 3.204a.734.734 0 001.004-.269l2.442-3.939zM19.188 27.968a.798.798 0 01-1.088.292.798.798 0 01-.291-1.088.798.798 0 011.088-.292c.38.22.51.709.291 1.088zm-1.655 1.275a1.933 1.933 0 002.638-.707 1.933 1.933 0 00-.707-2.638 1.933 1.933 0 00-2.638.707 1.933 1.933 0 00.707 2.638z" fill="#E67861"/></g><defs><clipPath id="clip0"><path fill="#fff" d="M0 0h34v34H0z"/></clipPath></defs></symbol><symbol id="sprite-sort" viewBox="0 0 460.088 460.088"><title>sort</title><path d="M25.555 139.872h257.526V88.761H25.555C11.442 88.761 0 100.203 0 114.316s11.442 25.556 25.555 25.556zm0 102.557h257.526v-51.111H25.555C11.442 191.318 0 202.76 0 216.874s11.442 25.555 25.555 25.555zm0 51.445v.001C11.442 293.875 0 305.316 0 319.43s11.442 25.555 25.555 25.555h178.91a63.12 63.12 0 01-3.088-19.523c0-11.277 2.957-22.094 8.48-31.588H25.555z"/><path d="M450.623 302.611c-12.62-12.621-33.083-12.621-45.704 0l-26.535 26.535V52.926c0-17.849-14.469-32.317-32.318-32.317s-32.318 14.469-32.318 32.317v276.22l-26.535-26.535c-12.621-12.62-33.083-12.621-45.704 0-12.621 12.621-12.621 33.083 0 45.704l81.7 81.699c12.596 12.6 33.084 12.643 45.714 0l81.7-81.699c12.62-12.621 12.621-33.083 0-45.704z"/></symbol><symbol id="sprite-star" viewBox="0 0 13 12"><title>star</title><path d="M12.044 4.623a.352.352 0 00-.283-.239l-3.72-.54L6.377.472a.352.352 0 00-.63 0l-1.664 3.37-3.72.541a.352.352 0 00-.195.6L2.86 7.608l-.636 3.705a.352.352 0 00.51.37l3.328-1.75 3.327 1.75a.352.352 0 00.51-.37l-.636-3.705 2.692-2.624a.352.352 0 00.09-.36z"/></symbol><symbol id="sprite-top-cart" viewBox="0 0 30 28"><title>top-cart</title><path d="M29.875 4.25c-.125-.125-.25-.25-.5-.25H5.625L5 .75c0-.25-.375-.5-.625-.5H.625C.25.25 0 .5 0 .875s.25.625.625.625h3.25l3 15.25c.375 2 2.25 3.5 4.25 3.5H25.5c.375 0 .625-.25.625-.625S25.875 19 25.5 19H11.25c-1 0-2-.5-2.5-1.375l18.25-2.5c.25 0 .5-.25.5-.5l2.5-10s0-.25-.125-.375zm-3.5 9.75l-18.25 2.375-2.25-11.25H28.5L26.375 14zm-15.75 7.5A3.095 3.095 0 007.5 24.625a3.095 3.095 0 003.125 3.125 3.095 3.095 0 003.125-3.125 3.095 3.095 0 00-3.125-3.125zm0 5c-1 0-1.875-.875-1.875-1.875s.875-1.875 1.875-1.875 1.875.875 1.875 1.875-.875 1.875-1.875 1.875zm12.5-5A3.095 3.095 0 0020 24.625a3.095 3.095 0 003.125 3.125 3.095 3.095 0 003.125-3.125 3.095 3.095 0 00-3.125-3.125zm0 5c-1 0-1.875-.875-1.875-1.875s.875-1.875 1.875-1.875S25 23.625 25 24.625s-.875 1.875-1.875 1.875z"/></symbol><symbol id="sprite-top-compare" viewBox="0 0 30 26"><title>top-compare</title><path d="M29.555 15.632l-3.422-7.33 1.477.424a.61.61 0 10.337-1.174L17.676 4.604l.003-.132a2.678 2.678 0 00-5.017-1.307L2.39.218a.611.611 0 00-.337 1.175l2.028.582L.409 9.838a.611.611 0 00-.409.576 4.9 4.9 0 008.371 3.46 4.843 4.843 0 001.462-3.46.611.611 0 00-.445-.588L5.976 2.52l6.348 1.821a2.683 2.683 0 002.065 2.74v14.86c-2.096 0-3.858-.032-4.155.03a2.463 2.463 0 00-1.956 2.395v.855c.01.345.29.621.635.626h12.174a.645.645 0 00.635-.626v-.855a2.463 2.463 0 00-1.955-2.396c-.206-.06-2.15-.029-4.156-.029V7.08a2.689 2.689 0 001.727-1.301l6.917 1.984-3.679 7.88a.61.61 0 00-.41.577 4.9 4.9 0 008.372 3.459A4.844 4.844 0 0030 16.219a.611.611 0 00-.445-.587zM4.9 3.076l3.127 6.698H1.775L4.9 3.076zm0 10.988a3.654 3.654 0 01-3.628-3.068h7.284A3.707 3.707 0 014.9 14.064zm15.6 10.3v.26h-11v-.26c0-.673.572-1.207 1.246-1.207h8.506c.674 0 1.247.534 1.247 1.208zM15 5.93a1.458 1.458 0 111.415-1.116.608.608 0 00-.034.12A1.459 1.459 0 0115 5.929zm13.194 9.65H21.94l3.127-6.697 3.127 6.697zm-3.127 4.29c-1.8.01-3.34-1.29-3.628-3.067h7.284a3.707 3.707 0 01-3.656 3.067z"/></symbol><symbol id="sprite-top-user" viewBox="0 0 20 20"><title>top-user</title><path d="M19.993 9.607a.42.42 0 00-.44-.41.425.425 0 00-.41.44 9.129 9.129 0 01-2.572 6.719 9.063 9.063 0 01-6.573 2.793.425.425 0 000 .85 9.907 9.907 0 007.185-3.052 9.974 9.974 0 002.81-7.34z"/><path d="M19.99 9.807a9.931 9.931 0 00-3.216-7.153C12.967-.885 7.005-.885 3.2 2.654A9.94 9.94 0 00.002 9.81a9.928 9.928 0 002.932 7.258.425.425 0 00.61-.008c.117-.124.261-.273.318-.327a.439.439 0 00.056-.048l.94-.938h3.055a.849.849 0 00.795-.544.823.823 0 00-.196-.906 4.33 4.33 0 01-1.28-3.08V7.559c0-.372.142-.709.408-.975.259-.26.614-.407.975-.407h2.743c.372 0 .71.14.976.407.259.258.407.614.407.975v3.658a4.342 4.342 0 01-1.292 3.094.858.858 0 00-.143.926c.138.315.435.51.776.51h3.232a.426.426 0 000-.851l-3.226.005a.04.04 0 01-.007-.02 5.174 5.174 0 001.51-3.664V7.559c0-.585-.239-1.16-.656-1.577a2.216 2.216 0 00-1.577-.656H8.615c-.585 0-1.16.24-1.577.656a2.218 2.218 0 00-.656 1.577v3.658c0 1.388.543 2.696 1.531 3.679H4.681a.426.426 0 00-.301.125l-1.057 1.057a1.835 1.835 0 00-.086.077 9.077 9.077 0 01-2.384-6.33A9.097 9.097 0 013.78 3.277C7.26.04 12.713.04 16.195 3.277a9.09 9.09 0 012.945 6.546 9.071 9.071 0 01-2.68 6.644.425.425 0 00.6.601 9.914 9.914 0 002.93-7.26z"/></symbol><symbol id="sprite-top-wish" viewBox="0 0 30 24"><title>top-wish</title><path d="M29.536 4.826C28.546 2.14 26.174.382 23.348.238H22.9c-3.568 0-6.633 2.197-7.912 5.308C13.709 2.435 10.645.238 7.077.238H6.63C3.81.382 1.446 2.141.46 4.828-.556 7.605.137 10.57 2.268 12.57l11.21 10.603a2.3 2.3 0 001.539.59c.554 0 1.104-.2 1.526-.6l1.704-1.608a2.3 2.3 0 00.682-1.588 2.201 2.201 0 00-.65-1.612.638.638 0 00-.902.902.972.972 0 01-.018 1.382l-1.692 1.596c-.362.342-.95.337-1.325 0L3.142 11.64C1.39 9.996.823 7.554 1.66 5.268c.804-2.194 2.727-3.632 5.02-3.754h.398c4.01 0 7.274 3.263 7.274 7.273a.638.638 0 001.276 0c0-4.01 3.263-7.273 7.274-7.273h.398c2.3.123 4.23 1.56 5.04 3.754.84 2.277.275 4.72-1.487 6.386l-3.573 3.573a2.23 2.23 0 00-.666 1.584c0 .593.237 1.155.666 1.584a.638.638 0 10.902-.902.962.962 0 01-.291-.682c0-.251.103-.493.291-.681l3.56-3.561c2.127-2.011 2.814-4.978 1.795-7.743z"/></symbol><symbol id="sprite-twitter" viewBox="0 0 22 18"><title>twitter</title><path d="M22 2.116a9 9 0 01-2.592.711A4.527 4.527 0 0021.392.33a9.04 9.04 0 01-2.866 1.095 4.514 4.514 0 00-7.691 4.117A12.814 12.814 0 011.532.826a4.492 4.492 0 00-.612 2.27c0 1.565.797 2.947 2.008 3.756a4.496 4.496 0 01-2.044-.564v.056a4.516 4.516 0 003.62 4.426 4.518 4.518 0 01-2.038.077 4.518 4.518 0 004.216 3.135 9.057 9.057 0 01-5.605 1.932c-.365 0-.724-.021-1.077-.063a12.776 12.776 0 006.919 2.028C15.22 17.879 19.76 11 19.76 5.037c0-.196-.005-.39-.013-.584A9.173 9.173 0 0022 2.116z"/></symbol><symbol id="sprite-visa" viewBox="0 0 504 504"><title>visa</title><path fill="#3c58bf" d="M184.8 324.4l25.6-144h40l-24.8 144z"/><path fill="#293688" d="M184.8 324.4l32.8-144h32.8l-24.8 144z"/><path d="M370.4 182c-8-3.2-20.8-6.4-36.8-6.4-40 0-68.8 20-68.8 48.8 0 21.6 20 32.8 36 40s20.8 12 20.8 18.4c0 9.6-12.8 14.4-24 14.4-16 0-24.8-2.4-38.4-8l-5.6-2.4-5.6 32.8c9.6 4 27.2 8 45.6 8 42.4 0 70.4-20 70.4-50.4 0-16.8-10.4-29.6-34.4-40-14.4-7.2-23.2-11.2-23.2-18.4 0-6.4 7.2-12.8 23.2-12.8 13.6 0 23.2 2.4 30.4 5.6l4 1.6 6.4-31.2z" fill="#3c58bf"/><path d="M370.4 182c-8-3.2-20.8-6.4-36.8-6.4-40 0-61.6 20-61.6 48.8 0 21.6 12.8 32.8 28.8 40s20.8 12 20.8 18.4c0 9.6-12.8 14.4-24 14.4-16 0-24.8-2.4-38.4-8l-5.6-2.4-5.6 32.8c9.6 4 27.2 8 45.6 8 42.4 0 70.4-20 70.4-50.4 0-16.8-10.4-29.6-34.4-40-14.4-7.2-23.2-11.2-23.2-18.4 0-6.4 7.2-12.8 23.2-12.8 13.6 0 23.2 2.4 30.4 5.6l4 1.6 6.4-31.2z" fill="#293688"/><path d="M439.2 180.4c-9.6 0-16.8.8-20.8 10.4l-60 133.6h43.2l8-24h51.2l4.8 24H504l-33.6-144h-31.2zm-18.4 96c2.4-7.2 16-42.4 16-42.4s3.2-8.8 5.6-14.4l2.4 13.6s8 36 9.6 44h-33.6v-.8z" fill="#3c58bf"/><path d="M448.8 180.4c-9.6 0-16.8.8-20.8 10.4l-69.6 133.6h43.2l8-24h51.2l4.8 24H504l-33.6-144h-21.6zm-28 96c3.2-8 16-42.4 16-42.4s3.2-8.8 5.6-14.4l2.4 13.6s8 36 9.6 44h-33.6v-.8z" fill="#293688"/><path d="M111.2 281.2l-4-20.8c-7.2-24-30.4-50.4-56-63.2l36 128h43.2l64.8-144H152l-40.8 100z" fill="#3c58bf"/><path d="M111.2 281.2l-4-20.8c-7.2-24-30.4-50.4-56-63.2l36 128h43.2l64.8-144H160l-48.8 100z" fill="#293688"/><path d="M0 180.4l7.2 1.6c51.2 12 86.4 42.4 100 78.4l-14.4-68c-2.4-9.6-9.6-12-18.4-12H0z" fill="#ffbc00"/><path d="M0 180.4c51.2 12 93.6 43.2 107.2 79.2l-13.6-56.8c-2.4-9.6-10.4-15.2-19.2-15.2L0 180.4z" fill="#f7981d"/><path d="M0 180.4c51.2 12 93.6 43.2 107.2 79.2l-9.6-31.2c-2.4-9.6-5.6-19.2-16.8-23.2L0 180.4z" fill="#ed7c00"/><path d="M151.2 276.4L124 249.2l-12.8 30.4-3.2-20c-7.2-24-30.4-50.4-56-63.2l36 128h43.2l20-48zm74.4 48l-34.4-35.2-6.4 35.2zm92-49.6c3.2 3.2 4.8 5.6 4 8.8 0 9.6-12.8 14.4-24 14.4-16 0-24.8-2.4-38.4-8l-5.6-2.4-5.6 32.8c9.6 4 27.2 8 45.6 8 25.6 0 46.4-7.2 58.4-20l-34.4-33.6zm46.4 49.6h37.6l8-24h51.2l4.8 24H504L490.4 266l-48-46.4 2.4 12.8s8 36 9.6 44h-33.6c3.2-8 16-42.4 16-42.4s3.2-8.8 5.6-14.4" fill="#051244"/></symbol><symbol id="sprite-wezom-logo" viewBox="0 0 114 41"><title>wezom-logo</title><g clip-path="url(#clip0)" fill-rule="evenodd" clip-rule="evenodd"><path d="M111.763 2.453a7.437 7.437 0 00-10.488 0l-24.89 25.336a7.86 7.86 0 000 10.933 7.41 7.41 0 005.33 2.268 7.396 7.396 0 005.332-2.268l24.716-25.3a7.895 7.895 0 000-10.97z"/><path d="M51.704 2.453A7.445 7.445 0 0157.034.2a7.43 7.43 0 015.332 2.253l24.716 25.336a7.86 7.86 0 010 10.933 7.412 7.412 0 01-5.331 2.268 7.396 7.396 0 01-5.332-2.268l-24.715-25.3a7.86 7.86 0 010-10.97z"/><path d="M62.401 2.453A7.41 7.41 0 0057.07.185a7.396 7.396 0 00-5.331 2.268L27.023 27.789a7.86 7.86 0 000 10.933 7.445 7.445 0 005.331 2.253 7.43 7.43 0 005.331-2.253l24.716-25.336a7.86 7.86 0 000-10.933z"/><path d="M2.202 2.278A7.445 7.445 0 017.534.025a7.43 7.43 0 015.33 2.253L37.58 27.614a7.86 7.86 0 010 10.933 7.447 7.447 0 01-5.33 2.253 7.432 7.432 0 01-5.332-2.253L2.202 13.211a7.86 7.86 0 010-10.933z"/></g><defs><clipPath id="clip0"><path d="M0 0h114v41H0z"/></clipPath></defs></symbol><symbol id="sprite-wish" viewBox="0 0 21 18"><title>wish</title><path d="M19.192 1.755C18.247.851 16.94.4 15.274.4c-.461 0-.932.078-1.412.235-.48.156-.926.368-1.339.634-.413.266-.768.515-1.066.749-.297.233-.58.48-.848.743-.268-.262-.55-.51-.848-.743a14.325 14.325 0 00-1.066-.75 5.765 5.765 0 00-1.34-.633A4.536 4.536 0 005.945.4C4.277.4 2.97.85 2.027 1.755 1.082 2.66.609 3.913.609 5.516c0 .489.088.992.262 1.509.175.518.374.959.598 1.323.223.364.476.72.758 1.066.283.346.49.585.62.716s.232.226.307.284l6.964 6.582a.676.676 0 00.491.197.675.675 0 00.491-.197l6.953-6.56c1.704-1.669 2.556-3.309 2.556-4.92 0-1.604-.472-2.857-1.417-3.76zm-2.11 7.653L10.61 15.52 4.125 9.397c-1.392-1.362-2.087-2.656-2.087-3.88 0-.591.08-1.112.24-1.564.16-.452.364-.811.614-1.077.249-.266.552-.483.91-.65a4.1 4.1 0 011.048-.34A6.522 6.522 0 015.944 1.8c.387 0 .804.093 1.25.279.446.186.858.419 1.233.7.376.28.698.543.966.787s.49.468.67.672c.133.16.316.24.546.24.23 0 .413-.08.547-.24a8.54 8.54 0 01.67-.672c.268-.244.59-.507.965-.788.376-.28.787-.513 1.233-.7.447-.185.864-.278 1.25-.278.387 0 .752.03 1.094.087.343.059.692.172 1.05.34.357.167.66.384.909.65.25.266.454.625.614 1.077.16.452.24.973.24 1.563 0 1.225-.7 2.522-2.099 3.892z"/></symbol><symbol id="sprite-youtube" viewBox="0 0 26 18"><title>youtube</title><path d="M24.895 1.722C24.19.468 23.425.237 21.866.15 20.309.044 16.395 0 13.003 0 9.605 0 5.69.044 4.134.148 2.579.238 1.812.466 1.1 1.723.374 2.974 0 5.133 0 8.932v.014c0 3.783.374 5.957 1.1 7.197.712 1.254 1.477 1.482 3.032 1.587 1.557.091 5.473.145 8.871.145 3.392 0 7.306-.054 8.865-.143 1.558-.106 2.323-.333 3.029-1.588C25.63 14.904 26 12.73 26 8.947v-.013c0-3.8-.37-5.959-1.105-7.211zM9.75 13.813v-9.75l8.125 4.875-8.125 4.876z"/></symbol><symbol fill="none" id="sprite-zapchasti-2" viewBox="0 0 34 34"><title>zapchasti-2</title><g clip-path="url(#clip0)"><path fill-rule="evenodd" clip-rule="evenodd" d="M9.118 1.032l6.585 6.586a3.407 3.407 0 010 4.819l-3.266 3.266a3.408 3.408 0 01-4.819 0L1.032 9.117a3.408 3.408 0 010-4.82l3.266-3.265a3.408 3.408 0 014.82 0zm-.804.803a2.272 2.272 0 00-3.212 0L1.835 5.1a2.272 2.272 0 000 3.213L8.421 14.9a2.272 2.272 0 003.213 0l3.266-3.267a2.272 2.272 0 000-3.212L8.314 1.835z" fill="#5C6D7D"/><path fill-rule="evenodd" clip-rule="evenodd" d="M10.997 15.64l-.715.883 1.629 1.32a1.168 1.168 0 001.627-.024l4.221-4.241v-.001a1.167 1.167 0 00.026-1.624l-1.262-1.591-.89.706 1.3 1.638.023.023a.032.032 0 010 .045l-4.221 4.242a.032.032 0 01-.045 0l-.021-.02-1.672-1.355z" fill="#5C6D7D"/><path fill-rule="evenodd" clip-rule="evenodd" d="M5.137 2.94a2.082 2.082 0 012.945 0L12.74 7.6a2.082 2.082 0 010 2.944l-2.195 2.195a2.082 2.082 0 01-2.945 0L2.94 8.081a2.082 2.082 0 010-2.945l2.196-2.195zm2.142.804a.947.947 0 00-1.34 0L3.746 5.939a.947.947 0 000 1.339l4.658 4.658c.37.37.969.37 1.339 0l2.195-2.195a.947.947 0 000-1.339L7.279 3.744z" fill="#E67861"/><path d="M10.67 14.314l-.803-.803-.803.803.803.804.803-.804zm4.395-4.394l-.803-.803-.804.803.804.803.803-.803zm-1.524 1.711l-.803-.803-1.606 1.607.803.803 1.606-1.607z" fill="#5C6D7D"/><path fill-rule="evenodd" clip-rule="evenodd" d="M26.255 30.952l-.715.883 1.627 1.318a1.168 1.168 0 001.627-.024v-.001l4.22-4.241h.001a1.167 1.167 0 00.026-1.625l-1.273-1.604-.89.706 1.31 1.651.024.023a.032.032 0 010 .046l-4.221 4.241a.032.032 0 01-.046 0l-.02-.02-1.67-1.353z" fill="#5C6D7D"/><path fill-rule="evenodd" clip-rule="evenodd" d="M24.488 16.478l6.586 6.586a3.407 3.407 0 010 4.819l-3.266 3.266a3.408 3.408 0 01-4.82 0l-6.585-6.586a3.408 3.408 0 010-4.819l3.266-3.266a3.407 3.407 0 014.819 0zm-.803.803a2.272 2.272 0 00-3.213 0l-3.266 3.266a2.272 2.272 0 000 3.213l6.586 6.586a2.272 2.272 0 003.212 0l3.267-3.266a2.272 2.272 0 000-3.213l-6.586-6.586z" fill="#5C6D7D"/><path fill-rule="evenodd" clip-rule="evenodd" d="M26.094 22.903l-1.446-1.445a1.893 1.893 0 00-2.677 0l-.589.589a1.893 1.893 0 000 2.677l1.446 1.446c.74.739 1.938.739 2.677 0l.59-.59a1.893 1.893 0 000-2.677zm-.642-2.248a3.029 3.029 0 00-4.284 0l-.589.588a3.029 3.029 0 000 4.284l1.446 1.446a3.029 3.029 0 004.283 0l.59-.59a3.029 3.029 0 000-4.283l-1.446-1.446z" fill="#E67861"/><path d="M26.04 29.382l-.802-.803-.804.803.803.803.804-.803zm-7.067-7.068l-.803-.803-.804.803.804.804.803-.804zm11.083 3.053l-.803-.803-.803.803.803.803.803-.803zm-7.067-7.068l-.804-.803-.803.803.803.803.804-.803z" fill="#5C6D7D"/><path fill-rule="evenodd" clip-rule="evenodd" d="M4.877 25.423l4.693 4.45a.793.793 0 001.121-1.12l-4.45-4.694.824-.782 4.45 4.694a1.929 1.929 0 01-2.726 2.727l-4.694-4.451.782-.824z" fill="#5C6D7D"/><path d="M12.84 29.39v-1.136h-1.135v1.136h1.136z" fill="#5C6D7D"/><path d="M11.716 28.266V27.13H10.58v1.136h1.136zm-1.553 3.802v-1.136H9.027v1.136h1.136z" fill="#5C6D7D"/><path d="M9.039 30.944v-1.136H7.903v1.136h1.136z" fill="#5C6D7D"/><path fill-rule="evenodd" clip-rule="evenodd" d="M13.19 33.264l-2.444-2.445a.568.568 0 11.804-.803l2.444 2.444a.568.568 0 11-.803.803z" fill="#5C6D7D"/><path d="M9.746 26.288l.818-.788-3.155-3.27-.818.789 3.155 3.27zm-3.55 3.372l.78-.824-3.298-3.124-.78.824 3.298 3.125z" fill="#5C6D7D"/><path fill-rule="evenodd" clip-rule="evenodd" d="M5.257 21.053c-.656.205-1.43.676-2.14 1.386-.71.71-1.182 1.485-1.387 2.141-.214.686-.1 1.084.074 1.26.175.175.574.287 1.26.073.656-.204 1.43-.675 2.14-1.385.71-.71 1.181-1.485 1.386-2.141.214-.686.101-1.084-.074-1.26-.175-.175-.574-.287-1.259-.073zM4.92 19.97c.836-.26 1.777-.268 2.4.355.624.624.617 1.565.356 2.401-.27.865-.854 1.793-1.667 2.606-.813.813-1.741 1.397-2.606 1.667-.836.26-1.778.268-2.4-.355-.624-.624-.617-1.565-.356-2.401.27-.865.854-1.793 1.667-2.606.813-.813 1.74-1.397 2.606-1.667zM23.808 5.886l4.693 4.45a.793.793 0 001.121-1.12l-4.45-4.694.824-.781 4.45 4.693a1.929 1.929 0 01-2.726 2.727l-4.694-4.45.782-.825z" fill="#5C6D7D"/><path d="M31.771 9.854V8.718h-1.136v1.136h1.136z" fill="#5C6D7D"/><path d="M30.647 8.73V7.592H29.51V8.73h1.136zm-1.553 3.8v-1.135h-1.136v1.136h1.136z" fill="#5C6D7D"/><path d="M27.97 11.406V10.27h-1.136v1.136h1.136z" fill="#5C6D7D"/><path fill-rule="evenodd" clip-rule="evenodd" d="M32.728 14.333l-3.05-3.05a.568.568 0 11.803-.804l3.05 3.05a.568.568 0 11-.803.804z" fill="#5C6D7D"/><path d="M28.677 6.752l.818-.789-3.155-3.269-.818.789 3.155 3.27zm-3.55 3.372l.78-.824-3.298-3.124-.781.824 3.299 3.124z" fill="#5C6D7D"/><path fill-rule="evenodd" clip-rule="evenodd" d="M24.188 1.517c-.656.205-1.431.676-2.14 1.386-.71.71-1.182 1.484-1.387 2.14-.214.686-.1 1.085.074 1.26.175.175.574.288 1.26.074.656-.205 1.43-.676 2.14-1.386.71-.71 1.181-1.484 1.386-2.14.214-.686.101-1.085-.074-1.26-.175-.175-.574-.288-1.259-.074zM23.85.433c.836-.261 1.777-.269 2.4.355.624.623.616 1.565.355 2.4-.27.865-.853 1.793-1.666 2.606-.814.813-1.741 1.397-2.606 1.667-.836.261-1.778.268-2.4-.355-.624-.623-.617-1.565-.356-2.4.27-.866.854-1.793 1.667-2.606.813-.813 1.74-1.398 2.606-1.667z" fill="#5C6D7D"/></g><defs><clipPath id="clip0"><path fill="#fff" d="M0 0h34v34H0z"/></clipPath></defs></symbol><symbol fill="none" id="sprite-zapchasti" viewBox="0 0 34 34"><title>zapchasti</title><g clip-path="url(#clip0)"><path fill-rule="evenodd" clip-rule="evenodd" d="M31.787 28.705l-.791 1.292a4.922 4.922 0 01-6.768 1.625l-1.292-.79a4.922 4.922 0 01-1.625-6.769l.79-1.291a4.922 4.922 0 016.769-1.626l1.291.791a4.922 4.922 0 011.626 6.768zm-.968-.593a3.786 3.786 0 00-1.251-5.206l-1.291-.792a3.786 3.786 0 00-5.207 1.251l-.79 1.291a3.786 3.786 0 001.25 5.207l1.291.791a3.786 3.786 0 005.206-1.25l.792-1.292z" fill="#E67861"/><path fill-rule="evenodd" clip-rule="evenodd" d="M28.288 27.894l.277-.452a1.893 1.893 0 00-.625-2.603l-.71-.435a1.893 1.893 0 00-2.604.625l-.277.452a1.893 1.893 0 00.626 2.603l.71.435a1.893 1.893 0 002.603-.625zm1.246.141a3.029 3.029 0 00-1-4.165l-.711-.435a3.029 3.029 0 00-4.165 1l-.277.453a3.029 3.029 0 001 4.165l.71.435a3.029 3.029 0 004.166-1l.277-.453z" fill="#5C6D7D"/><path d="M23.768 32.229l.593-.969-.969-.593-.593.968.969.594zm6.092-9.944l.593-.969-.969-.593-.593.969.969.593z" fill="#E67861"/><path d="M32.482 22.15l.003 4.535-1.07-1.147-.066-3.453a2.115 2.115 0 00-.285-1.187c-.59-1.008-1.82-1.309-2.828-.72l-3.206 1.537-1.513-.434 4.147-2.082a3.251 3.251 0 011.82-.438c1.793.102 3.1 1.597 2.998 3.39zm-7.013 11.448l4.04-2.057-1.508-.432-3.105 1.51a2.11 2.11 0 01-1.187.285c-1.166-.067-1.993-1.027-1.926-2.193l-.087-3.554-1.074-1.151.028 4.64a3.24 3.24 0 00.438 1.82c.904 1.552 2.83 2.037 4.38 1.132z" fill="#E67861"/><path fill-rule="evenodd" clip-rule="evenodd" d="M12.735 10.053l-.791 1.291a4.922 4.922 0 01-6.769 1.626l-1.29-.791a4.922 4.922 0 01-1.627-6.768l.791-1.292a4.922 4.922 0 016.769-1.625l1.291.79a4.922 4.922 0 011.626 6.769zm-.969-.593a3.786 3.786 0 00-1.25-5.207l-1.292-.79a3.786 3.786 0 00-5.206 1.25l-.791 1.291a3.786 3.786 0 001.25 5.207L5.77 12a3.786 3.786 0 005.206-1.25l.791-1.291z" fill="#5C6D7D"/><path fill-rule="evenodd" clip-rule="evenodd" d="M9.236 9.241l.277-.452a1.893 1.893 0 00-.625-2.603l-.71-.435a1.893 1.893 0 00-2.604.625l-.277.452a1.893 1.893 0 00.626 2.603l.71.436a1.893 1.893 0 002.603-.626zm1.245.142a3.029 3.029 0 00-1-4.166l-.71-.435a3.029 3.029 0 00-4.165 1l-.277.453a3.029 3.029 0 001 4.165l.71.435a3.029 3.029 0 004.166-1l.277-.452z" fill="#E67861"/><path d="M4.715 13.576l.594-.968-.969-.594-.593.97.968.592zm6.092-9.943l.594-.969-.969-.593-.593.968.968.594z" fill="#5C6D7D"/><path d="M13.43 3.498l.003 4.535-1.07-1.148-.066-3.452a2.115 2.115 0 00-.285-1.188c-.59-1.008-1.82-1.308-2.828-.72L5.978 3.064l-1.513-.435L8.61.546a3.251 3.251 0 011.82-.437c1.794.1 3.1 1.596 2.999 3.389zM6.417 14.946l4.04-2.057-1.508-.433-3.105 1.51c-.36.21-.772.31-1.187.285-1.166-.066-1.993-1.026-1.926-2.192l-.087-3.554L1.57 7.354l.028 4.64a3.25 3.25 0 00.437 1.82c.905 1.552 2.83 2.036 4.382 1.132zm9.344 9.719a8.685 8.685 0 00-.025-.238 7.199 7.199 0 00-.154-.847c-.026-.109-.051-.217-.082-.325l-.006-.017a7.277 7.277 0 00-.208-.6l-.03-.083a7.395 7.395 0 00-.278-.6l-.023-.05a7.897 7.897 0 00-.347-.59c-.006-.009-.01-.019-.017-.028a7.537 7.537 0 00-.393-.543c-.014-.015-.024-.03-.036-.044a7.575 7.575 0 00-.404-.457c-.027-.029-.052-.06-.08-.088a7.207 7.207 0 00-.373-.348c-.057-.05-.108-.102-.165-.15-.1-.083-.206-.158-.31-.236-.09-.068-.178-.14-.271-.203-.082-.057-.17-.105-.253-.157-.114-.07-.22-.143-.335-.206l-.026-.013c-.046-.025-.095-.045-.14-.069a7.34 7.34 0 00-.493-.237 4.11 4.11 0 00-.219-.083c-.147-.056-.293-.113-.444-.162-.085-.027-.174-.047-.261-.071a6.339 6.339 0 00-.426-.11c-.098-.021-.197-.034-.296-.051-.136-.023-.271-.047-.409-.062-.113-.013-.23-.018-.346-.026a6.794 6.794 0 00-.364-.018c-.04 0-.079-.006-.12-.006-.107 0-.212.011-.319.016-.085.004-.17.006-.255.013a7.156 7.156 0 00-.557.067c-.041.006-.083.011-.124.019a7.552 7.552 0 00-.632.14c-.013.003-.027.004-.04.008l-.02.006a7.285 7.285 0 00-.65.213l-.057.02a7.36 7.36 0 00-.623.275l-.052.026c-.2.1-.392.211-.58.329l-.064.04a7.217 7.217 0 00-.513.363c-.03.024-.063.045-.093.07a7.2 7.2 0 00-.428.372c-.045.04-.09.079-.132.12a7.362 7.362 0 00-.336.356c-.057.063-.114.123-.17.188-.088.104-.17.215-.25.324-.065.087-.134.17-.196.262-.068.1-.128.206-.191.31-.064.104-.123.187-.177.283l-.01.022a7.23 7.23 0 00-.353.751c-.029.071-.052.142-.079.214a7.23 7.23 0 00-.378 1.474c-.01.076-.025.15-.034.227a7.374 7.374 0 00-.053.858c0 .216.013.432.032.648.007.08.017.159.026.238.016.13.037.26.057.388.027.155.06.308.097.46.026.107.05.216.082.323l.005.017c.061.205.132.405.209.602.01.027.019.056.03.081.083.206.177.408.279.604l.021.045c.108.205.224.403.35.596l.014.023a7.9 7.9 0 00.397.549l.028.036c.129.161.267.315.41.464.025.027.048.057.074.082.121.124.25.24.38.355.054.047.103.097.158.142.102.087.212.164.32.245.087.065.17.134.26.195.091.061.176.108.263.162.109.068.215.14.327.201l.022.011c.243.132.494.25.75.353.072.029.143.052.215.078a7.24 7.24 0 001.474.378c.075.012.15.026.227.034.285.036.572.055.86.056.215 0 .431-.013.647-.032.08-.007.16-.017.239-.026.13-.016.259-.037.387-.056.155-.028.308-.06.46-.097.107-.027.216-.05.323-.082l.017-.006c.204-.06.403-.13.6-.208.027-.01.056-.019.083-.03a7.29 7.29 0 00.6-.277l.05-.024a7.33 7.33 0 00.587-.345l.032-.02c.185-.12.363-.251.537-.388.015-.013.033-.025.049-.038.156-.125.303-.259.448-.396.032-.03.066-.057.098-.09.117-.113.227-.238.337-.36.053-.058.109-.114.16-.177.079-.095.15-.196.227-.294.076-.099.147-.188.215-.287.049-.073.091-.15.138-.227.076-.12.156-.238.227-.363l.01-.023c.132-.243.25-.493.353-.75.028-.07.052-.142.078-.214.076-.197.141-.399.196-.604a7.683 7.683 0 00.182-.87c.012-.076.026-.15.034-.225.034-.284.051-.57.052-.857a7.03 7.03 0 00-.033-.648zm-3.91-2.001c.025-.033.046-.068.07-.101.04-.057.08-.109.113-.167.024-.039.044-.08.066-.122.03-.056.062-.107.088-.163.02-.043.037-.089.054-.133.023-.057.048-.11.067-.17.015-.045.025-.092.039-.138.016-.056.034-.113.047-.174.01-.047.015-.095.023-.142.01-.06.021-.118.027-.178.005-.05.005-.097.007-.146.003-.06.007-.12.006-.18 0-.049-.007-.098-.01-.148-.004-.049-.004-.103-.011-.154.017.014.032.03.049.045a6.204 6.204 0 01.598.592c.353.398.654.839.897 1.312l.036.076c.11.223.207.453.289.689.006.015.015.03.017.045v.008l-.57.751a1.708 1.708 0 01-1.36.68h-2.362c-.01-.027-.022-.052-.033-.08l-.011-.026-.025-.06 1.67-1.671c.078-.078.15-.16.219-.245zM8.3 19.086c.161-.004.323 0 .484.012.08.004.163.004.244.012.226.021.452.055.674.102.06.013.118.031.178.046.17.04.34.086.505.142.077.025.151.056.227.082.147.056.292.116.434.182.045.02.088.042.133.064l.133.937a1.707 1.707 0 01-.48 1.442l-1.671 1.671c-.02-.01-.04-.016-.06-.025l-.028-.01c-.026-.012-.052-.024-.079-.034v-2.663a2.836 2.836 0 00-.076-.627 2.82 2.82 0 00-.108-.364c-.013-.037-.024-.073-.039-.109a2.86 2.86 0 00-.219-.421c-.018-.028-.04-.053-.057-.081a2.788 2.788 0 00-.24-.302c-.015-.017-.026-.036-.041-.053.026 0 .056-.003.085-.003zm-4.597 2.17v.002a6.29 6.29 0 01.53-.543c.03-.026.057-.056.088-.08.43-.376.909-.692 1.424-.94l.026-.012c.266-.126.54-.233.82-.32l.33.165c.576.286.94.875.939 1.519v2.663c-.028.01-.053.022-.08.033l-.027.012-.06.024-1.671-1.67a2.83 2.83 0 00-.397-.324l-.066-.046a2.817 2.817 0 00-.43-.226l-.077-.03a2.878 2.878 0 00-.48-.146l-.026-.004a2.855 2.855 0 00-.492-.048c-.014 0-.027-.005-.041-.005h-.028c-.073 0-.146.007-.22.014-.034 0-.069 0-.103.007l.041-.044zM2.32 25.73v.005c-.033.037-.068.074-.099.113a6.25 6.25 0 01-.027-.535c0-.227.014-.454.039-.68.006-.057.018-.113.026-.167.023-.17.05-.34.087-.504.015-.067.035-.133.052-.2a6.4 6.4 0 01.213-.67 6.1 6.1 0 01.164-.388c.021-.047.045-.094.067-.14l.937-.134a1.703 1.703 0 011.443.48l1.67 1.671c-.008.02-.015.04-.024.057l-.012.03c-.01.026-.023.051-.032.078H4.46c-.11 0-.22.006-.328.019-.038.004-.075.014-.113.02-.07.011-.14.02-.209.037-.042.01-.084.025-.126.038-.062.017-.124.033-.184.056-.044.016-.086.037-.128.057-.057.024-.114.045-.17.073-.044.021-.085.048-.127.071-.052.03-.105.057-.154.089-.05.032-.081.056-.122.088-.041.03-.095.066-.14.103-.046.038-.075.068-.114.102-.04.034-.087.077-.128.12-.04.041-.064.073-.098.111zm2.683 2.233v.004c-.02.026-.037.056-.056.082-.044.06-.09.121-.129.185-.02.033-.037.07-.056.104a2.196 2.196 0 00-.098.181c-.019.04-.032.08-.049.12-.025.06-.05.12-.072.181-.014.043-.023.086-.035.13-.018.06-.037.12-.05.182-.01.045-.015.091-.022.137-.01.061-.022.122-.028.183-.005.048-.005.096-.007.144 0 .06-.007.121-.006.181 0 .05.007.1.01.15.003.049.004.102.01.153l-.043-.04a6.273 6.273 0 01-.602-.596 6.326 6.326 0 01-.895-1.313l-.036-.073a6.22 6.22 0 01-.29-.69l-.016-.046.568-.762a1.71 1.71 0 011.36-.68h2.363c.009.026.021.052.032.078l.012.03c.009.018.016.039.025.056l-1.671 1.671c-.078.078-.15.161-.219.248zm3.855 3.561l-.001.004a5.94 5.94 0 01-.627.012 6.155 6.155 0 01-.843-.084c-.05-.008-.102-.013-.15-.023a6.214 6.214 0 01-.738-.191c-.05-.017-.098-.037-.148-.057a6.33 6.33 0 01-.676-.286l-.133-.94a1.706 1.706 0 01.48-1.442l1.672-1.67.06.025.027.01c.026.011.052.024.08.033v2.364c0 .11.006.22.019.328.004.039.014.075.02.113.011.07.02.14.037.208.01.044.026.086.038.129.018.061.034.122.057.183.016.043.037.085.056.129.024.056.046.113.074.17.021.043.047.084.07.127.03.051.058.104.09.154.031.05.056.082.088.123.031.04.066.094.102.14.037.044.069.075.103.112.035.038.077.087.119.127.042.04.076.067.113.1.037.034.074.069.114.1-.035 0-.07 0-.103.002zm.092-5.99a.619.619 0 01-.07.102.571.571 0 01-.13.131.618.618 0 01-.103.07.567.567 0 01-.439 0 .618.618 0 01-.103-.07.547.547 0 01-.122-.118.574.574 0 01-.078-.113.567.567 0 010-.439.575.575 0 01.078-.119v.001a.549.549 0 01.122-.118.625.625 0 01.103-.07.567.567 0 01.439 0c.036.02.07.043.103.07.05.036.094.08.13.13a.61.61 0 01.07.104.567.567 0 010 .438zm4.195 3.84v.004a6.188 6.188 0 01-.593.599c-.397.35-.837.649-1.309.89l-.075.035c-.224.11-.454.207-.69.29l-.045.017-.76-.57a1.708 1.708 0 01-.68-1.36v-2.363c.028-.01.054-.022.08-.032l.027-.012c.02-.008.04-.015.06-.025l1.672 1.671c.122.12.255.229.396.325l.063.043a2.819 2.819 0 00.507.259c.153.06.312.108.473.143l.05.007c.164.032.33.048.496.05h.033c.114 0 .227-.008.34-.022-.014.02-.03.035-.045.051zM14.62 26c-.006.056-.018.113-.026.17-.023.17-.05.335-.086.5-.016.069-.035.136-.053.204-.039.148-.08.295-.13.44-.025.076-.056.152-.083.226-.05.13-.104.258-.163.385-.022.048-.045.094-.068.141l-.937.134a1.709 1.709 0 01-1.442-.48L9.96 26.047c.01-.02.016-.04.025-.06l.01-.027c.012-.026.024-.052.034-.08h2.364c.11 0 .219-.006.328-.018.038-.005.075-.015.113-.02.07-.012.14-.021.208-.038.043-.01.085-.025.128-.038.062-.017.123-.033.183-.056.044-.016.085-.037.13-.057.056-.024.112-.046.17-.073.043-.022.084-.048.126-.072.052-.028.105-.056.155-.088.05-.032.081-.057.122-.088.04-.032.095-.067.14-.103.044-.036.075-.068.113-.103.038-.035.086-.076.127-.118.04-.042.064-.075.098-.114l-.001.006c.032-.038.068-.074.098-.113.016.176.027.352.027.532 0 .227-.013.454-.039.68z" fill="#5C6D7D"/><path d="M5.203 18.213l.563-.725 2.705 2.1-.563.725-2.705-2.1zm3.39 12.777l.562-.725 2.706 2.1-.563.724-2.705-2.1zm2.588-13.058l.91-.115.428 3.398-.91.115-.428-3.398zM4.544 29.363l.91-.115.428 3.398-.91.115-.428-3.398zM1.175 22.64l-.115-.91 3.398-.429.115.91-3.398.428zm11.431 6.636l-.115-.91 3.398-.428.115.91-3.398.428zm-11.15-.658l-.725-.563 2.1-2.705.725.563-2.1 2.705zm12.776-3.39l-.724-.563 2.1-2.705.724.563-2.1 2.705z" fill="#5C6D7D"/><path d="M7.697 17.244l.796-.515 1.925 2.974-.797.515-1.924-2.974zM6.646 30.876l.796-.516 1.925 2.974-.797.516-1.924-2.974zM13.63 19.01l.928.199-.742 3.464-.928-.2.742-3.463zM3.248 27.906l.928.198-.743 3.464-.927-.199.742-3.463zm-.995-7.716l.198-.927 3.464.742-.199.928-3.463-.742zm8.895 10.383l.199-.928 3.464.742-.199.928-3.464-.742zM.487 26.124l-.516-.797 2.974-1.924.516.797-2.974 1.924zm13.631 1.051l-.515-.796 2.974-1.925.515.797-2.974 1.924zM32.774 7.96a9.757 9.757 0 00-.025-.24c-.017-.13-.037-.258-.057-.387a7.134 7.134 0 00-.097-.46c-.026-.108-.05-.216-.082-.324l-.006-.017a7.281 7.281 0 00-.208-.6c-.01-.027-.019-.057-.03-.083a7.416 7.416 0 00-.278-.6l-.023-.05a7.903 7.903 0 00-.346-.59l-.018-.028a7.536 7.536 0 00-.393-.543c-.014-.015-.024-.03-.035-.044a7.525 7.525 0 00-.404-.457c-.028-.029-.053-.06-.081-.089a7.209 7.209 0 00-.373-.347c-.057-.05-.108-.102-.165-.15-.1-.083-.206-.158-.31-.236-.09-.068-.177-.14-.27-.203-.083-.057-.17-.105-.254-.157-.114-.07-.22-.143-.335-.206l-.026-.013c-.045-.025-.094-.045-.14-.069a7.26 7.26 0 00-.493-.237c-.071-.03-.146-.057-.218-.083-.148-.056-.294-.113-.445-.162-.085-.028-.174-.047-.26-.071a6.526 6.526 0 00-.427-.11c-.097-.021-.197-.034-.296-.051-.136-.023-.271-.047-.408-.062-.114-.013-.231-.018-.347-.026a6.76 6.76 0 00-.364-.018c-.04 0-.079-.006-.119-.006-.108 0-.213.011-.32.016-.084.004-.17.006-.255.013a7.178 7.178 0 00-.557.067c-.04.006-.082.011-.124.019a7.54 7.54 0 00-.631.14c-.014.003-.028.004-.04.008l-.02.006a7.286 7.286 0 00-.651.213l-.057.02a7.36 7.36 0 00-.623.275l-.052.026c-.2.1-.392.211-.58.329-.02.014-.042.025-.063.039a7.256 7.256 0 00-.514.364c-.03.024-.063.045-.093.07-.148.117-.29.243-.428.372-.044.04-.09.079-.132.12a7.38 7.38 0 00-.336.356c-.057.063-.113.123-.17.188a5.93 5.93 0 00-.249.324c-.066.087-.135.17-.197.262-.068.1-.128.206-.191.31-.064.104-.123.187-.176.283l-.011.022a7.23 7.23 0 00-.353.751c-.028.071-.052.142-.078.214a7.202 7.202 0 00-.378 1.474c-.012.076-.026.15-.034.227a7.344 7.344 0 00-.054.858c0 .216.013.432.033.648.006.08.016.159.025.238a7.197 7.197 0 00.154.847c.026.108.05.217.082.324l.006.017c.06.205.131.405.208.602.01.027.019.056.03.081.084.206.178.408.279.604l.022.045c.107.205.224.403.35.596l.013.023c.124.19.258.372.397.549l.028.036c.129.161.267.315.41.464.025.027.048.057.074.082.122.124.25.24.381.355.053.047.103.097.157.143.103.086.213.163.32.244.087.065.17.134.26.195.091.061.176.108.263.162.109.068.215.14.327.201l.022.011c.244.132.494.25.751.353.07.029.142.052.214.078a7.207 7.207 0 001.474.378c.076.012.15.026.227.034.285.036.572.055.86.056.215 0 .431-.013.647-.032.08-.007.16-.017.239-.026.13-.016.259-.037.387-.056a7.21 7.21 0 00.46-.097c.108-.027.216-.05.323-.082l.017-.006c.204-.06.403-.13.6-.208.027-.01.057-.019.083-.03.205-.083.404-.177.6-.277l.05-.024a7.33 7.33 0 00.587-.345l.032-.02c.185-.12.363-.251.537-.388l.049-.038c.156-.125.304-.259.448-.396.033-.03.067-.057.098-.09.118-.113.227-.238.337-.36.053-.057.11-.114.16-.177.079-.095.15-.196.227-.294.076-.099.147-.188.215-.287.049-.073.091-.15.139-.227.075-.12.155-.238.226-.363l.011-.023c.131-.243.249-.493.352-.75.029-.07.052-.143.079-.214a6.06 6.06 0 00.195-.604 7.6 7.6 0 00.183-.871c.01-.075.025-.148.034-.224.033-.284.05-.57.051-.857a7.03 7.03 0 00-.033-.648zm-3.91-2.002c.025-.033.046-.068.07-.101.04-.057.081-.109.113-.167.025-.039.044-.08.067-.122.03-.056.061-.107.087-.163.02-.043.037-.089.054-.133.024-.057.048-.11.067-.17.015-.045.026-.092.039-.138.016-.056.034-.113.047-.174.01-.047.016-.095.023-.142.01-.06.021-.118.027-.178.005-.05.005-.097.007-.146.003-.06.007-.12.006-.18 0-.049-.007-.098-.01-.148-.003-.049-.004-.103-.01-.154l.048.044a6.206 6.206 0 01.598.593 6.3 6.3 0 01.897 1.312l.036.075c.11.224.207.454.29.69.005.015.014.03.017.045l-.002.008-.568.751a1.709 1.709 0 01-1.36.68h-2.363c-.01-.027-.022-.053-.033-.08L27 7.935c-.009-.02-.015-.04-.025-.06l1.671-1.672c.077-.077.15-.159.218-.244zm-3.55-3.578c.162-.004.323 0 .484.012.081.004.163.004.244.012.226.021.452.055.675.102.06.013.117.031.177.045.17.042.34.087.506.143.076.025.15.056.226.082.147.056.292.116.435.182.044.02.088.042.132.064l.133.937a1.706 1.706 0 01-.48 1.442l-1.671 1.671c-.02-.01-.04-.016-.06-.025l-.027-.011c-.027-.01-.053-.023-.08-.033V4.34a2.834 2.834 0 00-.047-.493 2.818 2.818 0 00-.136-.498c-.014-.037-.025-.073-.04-.11a2.853 2.853 0 00-.219-.42c-.018-.028-.04-.053-.056-.081a2.78 2.78 0 00-.24-.302c-.015-.017-.027-.036-.042-.053.027 0 .056-.003.086-.003zm-4.597 2.17v.002c.166-.191.343-.373.53-.543.03-.026.057-.056.088-.08a6.29 6.29 0 011.424-.94l.027-.012c.265-.126.539-.233.82-.32l.328.165c.578.286.942.875.94 1.519v2.663c-.027.01-.053.022-.08.033l-.027.011-.06.025-1.67-1.67a2.825 2.825 0 00-.397-.324l-.067-.046a2.82 2.82 0 00-.43-.226c-.025-.011-.05-.02-.077-.03a2.874 2.874 0 00-.479-.146l-.026-.004a2.857 2.857 0 00-.493-.048c-.014 0-.027-.005-.041-.005h-.028c-.073 0-.146.007-.22.014-.034 0-.068 0-.103.007l.041-.044zm-1.383 4.474v.004c-.033.038-.069.075-.1.114a6.25 6.25 0 01-.027-.535c0-.227.014-.454.04-.68.006-.057.017-.114.025-.167.024-.17.05-.34.088-.504.014-.068.034-.133.051-.2a6.374 6.374 0 01.213-.67c.05-.131.105-.26.164-.388l.067-.14.938-.134a1.703 1.703 0 011.442.48l1.671 1.671c-.01.02-.016.04-.024.057l-.013.03c-.01.025-.023.051-.032.078h-2.363c-.11 0-.219.006-.328.019-.038.004-.075.014-.113.02-.07.011-.14.02-.209.037-.042.01-.083.025-.126.037-.062.018-.124.034-.184.057a1.217 1.217 0 00-.128.057c-.057.024-.113.045-.17.073-.044.021-.085.048-.127.071-.052.03-.104.057-.154.089-.05.031-.081.056-.122.088-.04.03-.095.066-.14.103-.046.038-.075.068-.114.102a2.02 2.02 0 00-.127.12c-.04.041-.065.073-.098.111zm2.683 2.233v.004c-.021.026-.038.056-.057.082-.044.06-.09.121-.129.185-.02.033-.037.07-.056.104a2.202 2.202 0 00-.098.181c-.018.04-.032.08-.048.12-.025.06-.052.12-.072.18-.015.043-.024.087-.036.13-.018.06-.037.12-.05.183-.01.046-.015.091-.022.137-.01.06-.022.122-.028.183-.004.048-.004.096-.007.144 0 .06-.007.121-.006.181 0 .05.007.1.01.15.004.049.004.102.011.153l-.044-.04a6.274 6.274 0 01-.601-.596 6.328 6.328 0 01-.896-1.313l-.035-.073a6.197 6.197 0 01-.29-.69l-.017-.046.568-.763a1.71 1.71 0 011.36-.68h2.363c.009.027.021.053.032.079l.013.03c.008.018.015.039.024.056l-1.671 1.67a3.01 3.01 0 00-.218.249zm3.854 3.561l-.001.004a5.94 5.94 0 01-.627.012 6.127 6.127 0 01-.843-.084c-.05-.008-.101-.013-.15-.023a6.212 6.212 0 01-.737-.191c-.05-.017-.099-.037-.149-.057a6.331 6.331 0 01-.676-.286l-.132-.94a1.707 1.707 0 01.48-1.442l1.671-1.67.06.025.027.01c.027.011.053.024.08.033v2.364c0 .11.006.22.02.328.004.039.013.075.019.113.011.07.02.14.037.208.01.044.026.086.038.129.018.061.034.122.057.182.016.044.037.086.057.13.023.056.046.113.073.17.021.043.047.084.071.127.029.051.057.104.088.154.032.05.057.082.089.123.032.04.066.094.103.14.036.044.068.074.103.112.034.038.076.087.118.127.042.04.077.067.113.1.037.034.075.069.114.1-.035 0-.07 0-.103.002zm.092-5.99a.619.619 0 01-.07.102.571.571 0 01-.13.131.619.619 0 01-.103.07.567.567 0 01-.439 0 .619.619 0 01-.103-.07.55.55 0 01-.122-.118.577.577 0 01-.078-.113.567.567 0 010-.44.583.583 0 01.078-.118v.001a.55.55 0 01.122-.118.619.619 0 01.103-.07.567.567 0 01.439 0c.036.02.071.043.103.07.05.036.095.08.13.13a.61.61 0 01.07.104.567.567 0 010 .438zm4.196 3.84l-.002.004a6.204 6.204 0 01-.592.598c-.397.35-.837.65-1.309.89l-.075.036c-.224.11-.454.207-.69.29l-.045.016-.759-.569a1.708 1.708 0 01-.68-1.36V10.21l.08-.032.027-.012c.02-.008.04-.015.06-.025l1.67 1.671c.123.12.256.229.397.325l.063.043a2.801 2.801 0 00.508.259c.153.06.31.108.472.142.017.004.034.005.05.008.164.031.33.048.497.05h.032c.114 0 .228-.008.34-.022-.014.02-.03.035-.044.051zm1.475-3.374c-.007.056-.018.113-.026.17-.024.17-.05.335-.087.5-.015.069-.035.136-.053.204a5.68 5.68 0 01-.13.44c-.025.076-.056.152-.083.226-.05.13-.104.258-.163.385-.022.048-.045.094-.068.141l-.937.134a1.71 1.71 0 01-1.442-.48l-1.671-1.672c.01-.02.016-.04.025-.06l.011-.027c.01-.027.023-.052.033-.08h2.364c.11 0 .219-.006.328-.019.038-.004.075-.014.113-.02.07-.01.14-.02.208-.037.044-.01.086-.025.129-.038.06-.017.122-.033.182-.056.044-.016.086-.037.13-.057.056-.024.113-.046.17-.073.043-.022.084-.048.126-.072.052-.028.105-.056.155-.088.05-.032.081-.057.122-.088.041-.032.095-.067.14-.103.044-.036.075-.068.113-.103.038-.035.087-.077.127-.118.04-.042.065-.075.098-.114l-.001.006c.033-.038.068-.074.098-.113.016.176.028.352.028.532 0 .227-.014.454-.04.68z" fill="#E67861"/><path d="M22.216 1.507l.563-.725 2.705 2.1-.563.725-2.705-2.1zm3.39 12.776l.563-.724 2.705 2.1-.563.724-2.705-2.1zm2.589-13.057l.91-.115.428 3.398-.91.115-.428-3.398zm-6.637 11.431l.91-.115.427 3.398-.91.115-.427-3.398zm-3.37-6.724l-.115-.91 3.398-.428.115.91-3.398.428zm11.431 6.637l-.115-.91 3.398-.428.115.91-3.398.428zm-11.149-.658l-.725-.563 2.1-2.705.725.562-2.1 2.706zm12.775-3.39l-.724-.563 2.1-2.705.725.563-2.1 2.705z" fill="#E67861"/><path d="M24.71.538l.797-.515 1.924 2.974-.797.515L24.71.538zM23.659 14.17l.796-.516 1.925 2.974-.797.515-1.924-2.974zm6.984-11.866l.928.199-.742 3.464-.928-.2.742-3.463zM20.261 11.2l.928.198-.742 3.464-.928-.199.742-3.463zm-.995-7.715l.199-.928 3.463.742-.198.928-3.464-.742zm8.896 10.382l.198-.928 3.464.742-.199.928-3.463-.742zM17.5 9.418l-.515-.797 2.974-1.924.515.797L17.5 9.418zm13.631 1.052l-.515-.797 2.974-1.925.515.797-2.974 1.924z" fill="#5C6D7D"/></g><defs><clipPath id="clip0"><path fill="#fff" d="M0 0h34v34H0z"/></clipPath></defs></symbol></svg>